<?xml version="1.0" standalone="no"?>
<!DOCTYPE svg PUBLIC "-//W3C//DTD SVG 1.1//EN" "http://www.w3.org/Graphics/SVG/1.1/DTD/svg11.dtd" >
<svg>
<metadata>
Created by FontForge 20090914 at Tue Jun 19 19:44:24 2018
 By www-data
Converted by ALLTYPE
</metadata>
<defs>
<font id="Augustus" horiz-adv-x="311" >
  <font-face 
    font-family="Augustus"
    font-weight="5"
    font-style="italic"
    font-stretch="normal"
    units-per-em="1000"
    panose-1="0 0 0 0 0 0 0 0 0 0"
    ascent="800"
    descent="-200"
    x-height="739.997"
    cap-height="740.001"
    bbox="-7 -259 1259 2190.21"
    underline-thickness="50"
    underline-position="-55"
    slope="17560"
    unicode-range="U+0020-U+F002"
  />
<missing-glyph 
 />
    <glyph glyph-name=".notdef" 
 />
    <glyph glyph-name="space" unicode=" " 
 />
    <glyph glyph-name="space" unicode="&#xa0;" 
 />
    <glyph glyph-name="exclam" unicode="!" horiz-adv-x="206" 
d="M130 158l47 -150l-151 42l104 108v0zM150 730l-14 -526l-51 26l-29 523l94 -23v0z" />
    <glyph glyph-name="quotedbl" unicode="&#x22;" horiz-adv-x="238" 
d="M101 740l-39 -270l-35 270h74v0zM207 740l-39 -270l-35 270h74v0z" />
    <glyph glyph-name="numbersign" unicode="#" horiz-adv-x="562" 
d="M503 210h-101l-30 -210h-66l30 210h-135l-32 -210h-66l32 210h-106l2 59h111l18 138h-104l-3 62l115 -3l30 220h66l-29 -220h135l30 220h66l-30 -220l99 3l-18 -62h-87l-19 -138h102l-10 -59v0zM365 407h-139l-20 -139h139l20 139v0z" />
    <glyph glyph-name="dollar" unicode="$" horiz-adv-x="483" 
d="M263 720c6.66699 -0.666992 12.8359 -1.1709 18.5029 -1.50391s11.5 -0.833008 17.5 -1.5c5.33301 -0.666992 10.833 -1.5 16.5 -2.5s11.834 -2.16699 18.501 -3.5c8 -1.33301 15.333 -3 22 -5s13 -4 19 -6c5.33301 -1.33301 10.666 -3 15.999 -5s11 -4.33301 17 -7
l-17 -177l-12 47c-1.33301 4 -2.5 8.16699 -3.5 12.5s-1.83301 8.5 -2.5 12.5c-2.66699 11.333 -5.66699 21.833 -9 31.5s-8.66602 17.834 -15.999 24.501c-4 4 -9 7.66699 -15 11s-12.333 6.33301 -19 9c-9.33301 3.33301 -18 6 -26 8s-13 3 -15 3l-14 4v-282l31 -13
c4.66699 -2.66699 9.16699 -5 13.5 -7l12.5 -6c35.333 -16.667 67.666 -39.667 96.999 -69s44.333 -67 45 -113c0.666992 -49.333 -15.333 -92.166 -48 -128.499s-73.667 -58.5 -123 -66.5l-25 -5v-68h-55v65c-9.33301 0.666992 -17.833 1.33398 -25.5 2.00098
s-15.167 2 -22.5 4c-6.66699 1.33301 -13.334 2.83301 -20.001 4.5s-13.667 3.83398 -21 6.50098l-8 2l-8 2c-4.66699 2 -9.16699 3.83301 -13.5 5.5s-8.83301 3.5 -13.5 5.5l-16.5 8.5c-5.66699 3 -11.834 6.5 -18.501 10.5l-13 186l20 -49c4 -10.667 7.66699 -20 11 -28
s6.66602 -15.333 9.99902 -22c6 -14 12.833 -25.667 20.5 -35s18.834 -18.333 33.501 -27l9 -4.5l9 -4.5c10 -4 19.667 -7 29 -9s16.666 -3 21.999 -3l16 2v283l-34 14c-46 19.333 -82.833 43.5 -110.5 72.5s-41.167 68.833 -40.5 119.5c1.33301 44.667 15.833 83 43.5 115
s63.5 54 107.5 66l26 8l12 24h39l13 -20v0zM260.002 37.9961l17 -0.000976562c4 -0.666992 8.33301 -0.5 13 0.5s9 2.5 13 4.5c21.333 8 40.833 22.833 58.5 44.5s26.5 45.5 26.5 71.5c-0.666992 1.33301 -1 2.83301 -1 4.5v4.5c-2.66699 24.667 -10 45.334 -22 62.001
s-25 29.667 -39 39c-10 7.33301 -19.667 13 -29 17s-17 6.66699 -23 8l-14 4v-260v0zM207.002 664.995l-17 -2.99609c-26.667 -4.66699 -50.167 -18 -70.5 -40s-30.5 -48.667 -30.5 -80c0 -22.667 6.5 -43.834 19.5 -63.501s27.5 -34.834 43.5 -45.501
c5.33301 -4.66699 10.833 -8.33398 16.5 -11.001s11.167 -4.33398 16.5 -5.00098l22 -3v251v0z" />
    <glyph glyph-name="percent" unicode="%" horiz-adv-x="851" 
d="M631 422c0.666992 -0.666992 1.33398 -0.999023 2.00098 -0.999023h2h1h2c53.333 0 97.166 -20 131.499 -60s51.833 -89.667 52.5 -149c1.33301 -54.667 -15.334 -103.834 -50.001 -147.501s-80.667 -65.5 -138 -65.5h-1.5h-0.5h-1.5h-1.5
c-51.333 1.33301 -93 22.333 -125 63s-48.333 88.667 -49 144s15.833 104.5 49.5 147.5s75.834 65.5 126.501 67.5v1zM622 362.001c-36.667 -3.33301 -66.168 -18.666 -88.501 -45.999s-33.5 -61 -33.5 -101v-0.5v-1.5v-1.5v-0.5v-6.5c0 -2.33301 0.333008 -4.5 1 -6.5
c3.33301 -34.667 17.333 -66.334 42 -95.001s55.334 -43 92.001 -43c40 -0.666992 74.167 13.333 102.5 42s42.166 63.667 41.499 105c-0.666992 40.667 -15.167 76.667 -43.5 108s-62.166 47 -101.499 47h-2.5h-3.5c-0.666992 -0.666992 -1.5 -1 -2.5 -1h-3.5v1z
M587.999 735.001l-291 -735h-37l292 735h36v0zM204.999 738.001c1.33301 -0.666992 2.49902 -0.999023 3.49902 -0.999023h2.5c53.333 0 97.166 -21.333 131.499 -64s51.833 -91 52.5 -145c0.666992 -54.667 -16 -104.334 -50 -149.001s-79.667 -67 -137 -67h-0.5h-1.5h-1.5
h-0.5c-51.333 2 -93.166 24 -125.499 66s-49.166 90 -50.499 144c-0.666992 55.333 16 104.5 50 147.5s76.333 65.5 127 67.5v1zM195.998 679.002c-38 -4 -68.002 -20.501 -90.002 -49.501s-33 -64.167 -33 -105.5v-6.5c0 -2.33301 0.333008 -4.5 1 -6.5
c3.33301 -34 17.5 -65.167 42.5 -93.5s55.5 -42.5 91.5 -42.5c40.667 -0.666992 74.334 13.5 101.001 42.5s39.667 64.167 39 105.5c-0.666992 40.667 -14.667 76.834 -42 108.501s-60.666 47.167 -99.999 46.5h-5.5h-4.5v1z" />
    <glyph glyph-name="ampersand" unicode="&#x26;" horiz-adv-x="891" 
d="M396 397c-4 -1.33301 -8.00391 -2.16504 -12.0039 -2.49805s-8 -0.5 -12 -0.5c-14.667 0 -28.5 2.16699 -41.5 6.5s-25.167 9.5 -36.5 15.5l-5 -18c8.66699 -11.333 16.667 -21.333 24 -30l22 -25c2.66699 -2.66699 5.5 -5.66699 8.5 -9s5.83301 -6.33301 8.5 -9
c7.33301 -8 15.166 -16 23.499 -24l27.5 -26l33.5 -30.5l30.5 -25.5l12.5 -10l12.5 -10l28.5 -21c9.66699 -7.33301 20.5 -15 32.5 -23c3.33301 4 6.5 8 9.5 12s6.16699 7.66699 9.5 11c4.66699 6 9 12 13 18s8.33301 12 13 18l10.5 16.5
c3.66699 5.66699 7.16699 11.5 10.5 17.5c5.33301 9.33301 10 17.833 14 25.5s7.66699 15.5 11 23.5c3.33301 5.33301 6.16602 11.166 8.49902 17.499l7.5 19.5c1.33301 2.66699 2.5 5.66699 3.5 9s2.16699 6.66602 3.5 9.99902l-28 3
c-0.666992 -0.666992 -1.66699 -1 -3 -1s-2.33301 0.333008 -3 1h-3.5h-3.5c-3.33301 0 -6.66602 -0.166992 -9.99902 -0.5s-6.66602 -0.5 -9.99902 -0.5c-5.33301 -0.666992 -10.833 -1.66699 -16.5 -3s-10.834 -3 -15.501 -5c-6 -2.66699 -11 -6 -15 -10
s-7.66699 -8.33301 -11 -13c-2 -2.66699 -4 -5.5 -6 -8.5s-4.33301 -6.16699 -7 -9.5l-19 -21l24 134c2.66699 -2 5.33398 -3.5 8.00098 -4.5s5.33398 -2.16699 8.00098 -3.5c3.33301 -1.33301 7 -2.33301 11 -3s8.33301 -1.33398 13 -2.00098
c3.33301 -0.666992 6.33301 -1 9 -1h8h2.5h2.5h4.5h5.5l180 1c4 -0.666992 7.83301 -0.833984 11.5 -0.500977s7.16699 0.5 10.5 0.5l8 2c2.66699 0.666992 5.66699 1.33398 9 2.00098c1.33301 0.666992 2.66602 1.16699 3.99902 1.5s2.66602 0.833008 3.99902 1.5
c2.66699 1.33301 5.33398 2.5 8.00098 3.5s5.33398 2.16699 8.00098 3.5c2 1.33301 4 2.5 6 3.5s4 2.16699 6 3.5l-27 -156l-10 46c-1.33301 6 -3.5 11.333 -6.5 16s-7.5 8.66699 -13.5 12c-4 2.66699 -8.83301 4.66699 -14.5 6s-11.834 2.33301 -18.501 3
c-3.33301 0.666992 -6.83301 1.16699 -10.5 1.5s-7.16699 0.5 -10.5 0.5c-1.33301 0.666992 -2.5 1 -3.5 1h-2.5l-25 3c-1.33301 -5.33301 -2.83301 -10.333 -4.5 -15l-4.5 -13c-2 -6 -4 -11.5 -6 -16.5s-4.33301 -10.167 -7 -15.5c-3.33301 -8 -7 -16.167 -11 -24.5
l-13 -26.5c-3.33301 -6.66699 -6.83301 -13.167 -10.5 -19.5l-10.5 -18.5c-3.33301 -6 -6.66602 -11.667 -9.99902 -17l-11 -17l-18.5 -24.5l-21.5 -27.5l26 -20c3.33301 -3.33301 6.83301 -6.16602 10.5 -8.49902s7.83398 -4.83301 12.501 -7.5
c5.33301 -2.66699 10.666 -5.5 15.999 -8.5s11 -5.83301 17 -8.5l24 -10l22 -9c10 -4 19.333 -7.5 28 -10.5l25 -8.5l26 -8c8.66699 -2.66699 18.667 -5 30 -7l-62 -12c-4.66699 -1.33301 -10 -2.5 -16 -3.5s-12 -1.5 -18 -1.5c-14.667 0.666992 -30.167 2.5 -46.5 5.5
s-33.166 7.5 -50.499 13.5c-12.667 4.66699 -24.167 9.33398 -34.5 14.001s-20.166 10 -29.499 16c-5.33301 3.33301 -11 7.16602 -17 11.499s-12 9.16602 -18 14.499l-37 -22c-16 -10.667 -31.5 -19.5 -46.5 -26.5s-29.833 -12.833 -44.5 -17.5
c-14.667 -4 -29.5 -7 -44.5 -9s-30.5 -3 -46.5 -3h-7.5h-7.5c-71.333 2 -135.666 25.667 -192.999 71s-85.666 103.333 -84.999 174c0 42 9.66699 80 29 114s43.333 59.333 72 76l37 23l-13 48c-2 6.66699 -3.5 13.334 -4.5 20.001s-1.5 13.334 -1.5 20.001
c0 4.66699 0.333008 9.5 1 14.5s1.33398 10.5 2.00098 16.5c7.33301 49.333 29.666 89.833 66.999 121.5s80.333 47.5 129 47.5s91.667 -14.833 129 -44.5s57.666 -68.834 60.999 -117.501v-2v-2v-1.5v-0.5v-3.5v-3.5c0 -42.667 -14.167 -80.667 -42.5 -114
s-61.5 -53.333 -99.5 -60v1zM164.996 130.001c19.333 -18 40.332 -31.999 62.999 -41.999s45.667 -17 69 -21c7.33301 -1.33301 15 -2.33301 23 -3s15.667 -1 23 -1c22.667 0 44.334 2.66699 65.001 8s39.334 12.666 56.001 21.999l23 14
c-13.333 8.66699 -25.5 17.5 -36.5 26.5l-31.5 26.5c-6 4.66699 -11.833 9.66699 -17.5 15l-16.5 16l-36.5 35l-40.5 40c-10.667 10.667 -21 21.834 -31 33.501s-19.333 23.5 -28 35.5c-11.333 15.333 -22 30.5 -32 45.5l-28 42.5l-37 -37
c-15.333 -16.667 -27 -35.334 -35 -56.001s-12 -42 -12 -64v-4.5v-4.5c1.33301 -24 7.16602 -47.167 17.499 -69.5s24.5 -41.833 42.5 -58.5v1zM338.995 698.002c-33.333 -2.66699 -61.332 -16.334 -83.999 -41.001s-34 -53.667 -34 -87v-1.5v-1.5
c1.33301 -32.667 13.833 -61.167 37.5 -85.5s50.167 -36.833 79.5 -37.5c38 0 68.833 11.167 92.5 33.5s36.5 50.5 38.5 84.5v2v2v1v2c0 34.667 -12.333 64.834 -37 90.501s-54.334 38.167 -89.001 37.5h-0.5h-1.5h-1.5h-0.5v1z" />
    <glyph glyph-name="quotesingle" unicode="'" horiz-adv-x="131" 
d="M101 740l-39 -270l-35 270h74v0z" />
    <glyph glyph-name="parenleft" unicode="(" horiz-adv-x="332" 
d="M301 723l-29 -25.999l-27.5 -28c-9.66699 -10 -19.5 -21 -29.5 -33c-30.667 -36 -58.834 -79.167 -84.501 -129.5s-39.167 -103.166 -40.5 -158.499v-4v-4c0 -77.333 20 -145.333 60 -204s85.333 -108.334 136 -149.001l22 -17l-20 -31l-23 15
c-12.667 8 -26.167 17.667 -40.5 29s-28.833 24 -43.5 38c-37.333 37.333 -71.833 83.666 -103.5 138.999s-47.167 116 -46.5 182v3.5v2.5c1.33301 58 15.833 112.667 43.5 164s57.834 96 90.501 134c16 18 31.667 34 47 48s29 26 41 36l27 22l21 -29v0z" />
    <glyph glyph-name="parenright" unicode=")" horiz-adv-x="343" 
d="M43 -32l28.999 26.999c8.66699 7.33301 18 16 28 26s20 21 30 33c30.667 36.667 58.834 80 84.501 130s38.834 102.667 39.501 158v4.5v3.5c0 77.333 -20 145.333 -60 204s-85.333 108.334 -136 149.001l-21 19l19 30l23 -14c12.667 -8.66699 26 -18.667 40 -30
s28.333 -24.333 43 -39c38 -36.667 72.667 -82.5 104 -137.5s47 -115.167 47 -180.5v-4.5v-4.5c-1.33301 -58 -15.833 -112.667 -43.5 -164s-57.834 -96 -90.501 -134c-16 -18 -31.667 -33.833 -47 -47.5l-41 -35.5l-27 -22l-21 29v0z" />
    <glyph glyph-name="asterisk" unicode="*" horiz-adv-x="392" 
d="M43 671l116 -33l33 125l44 -127l122 35l-84 -98l91 -93l-128 31l-37 -123l-44 126l-123 -28l84 89l-74 96v0z" />
    <glyph glyph-name="plus" unicode="+" horiz-adv-x="565" 
d="M28 285h227v231h56v-231h230v-58h-228v-232h-57v233h-228v57v0z" />
    <glyph glyph-name="comma" unicode="," horiz-adv-x="284" 
d="M258 100l-227 -243l126 307l101 -64v0z" />
    <glyph glyph-name="hyphen" unicode="-" horiz-adv-x="356" 
d="M217 291h-96c-0.666992 -0.666992 -1.33398 -1 -2.00098 -1h-2h-11c-4 0 -8 -0.333008 -12 -1c-5.33301 -0.666992 -10.666 -2 -15.999 -4s-9.33301 -5 -12 -9c-1.33301 -1.33301 -2.33301 -2.83301 -3 -4.5s-1.66699 -3.16699 -3 -4.5
c0 -0.666992 -0.333008 -1.5 -1 -2.5s-1.33398 -2.16699 -2.00098 -3.5c-2 -3.33301 -4.16699 -7.33301 -6.5 -12l-8.5 -17l-16 -28v230l8 -17c1.33301 -3.33301 2.83301 -6.5 4.5 -9.5s3.16699 -5.83301 4.5 -8.5c0.666992 -1.33301 1.16699 -2.5 1.5 -3.5
s0.833008 -1.83301 1.5 -2.5c2.66699 -6 5.33398 -11.5 8.00098 -16.5s5 -9.16699 7 -12.5c3.33301 -5.33301 8.5 -8.66602 15.5 -9.99902s14.5 -2 22.5 -2h8h8h4h4l109 1c0.666992 -0.666992 1.66699 -1 3 -1h4c3.33301 0 7 0.166992 11 0.5s8.33301 0.833008 13 1.5
c4 1.33301 8.16699 2.83301 12.5 4.5s7.83301 4.16699 10.5 7.5c2 2 4.5 5.16699 7.5 9.5s5.83301 8.83301 8.5 13.5l2 4l2 4l7.5 13.5c2.33301 4.33301 4.5 8.16602 6.5 11.499l11 19v-237l-16 29c-3.33301 6 -6.16602 11.333 -8.49902 16s-4.5 8.66699 -6.5 12
c-0.666992 1.33301 -1.33398 2.5 -2.00098 3.5s-1 1.83301 -1 2.5c-1.33301 1.33301 -2.33301 2.83301 -3 4.5s-1.66699 3.16699 -3 4.5c-2 3.33301 -6.66699 5.83301 -14 7.5s-15.333 3.16699 -24 4.5c-7.33301 0.666992 -14.333 1.16699 -21 1.5s-11.667 0.5 -15 0.5v1z
" />
    <glyph glyph-name="period" unicode="." horiz-adv-x="213" 
d="M136 101l49 -163l-159 51l110 112v0z" />
    <glyph glyph-name="slash" unicode="/" horiz-adv-x="450" 
d="M420 751l-340 -761h-63l339 761h64v0z" />
    <glyph glyph-name="zero" unicode="0" horiz-adv-x="670" 
d="M319 755c1.33301 -0.666992 2.83398 -0.998047 4.50098 -0.998047h4.5c89.333 0 161.166 -34.333 215.499 -103s86.833 -146 97.5 -232c0.666992 -4.66699 1.16699 -9.33398 1.5 -14.001s0.5 -9 0.5 -13c0.666992 -4.66699 1 -9.33398 1 -14.001v-14v-4.5v-4.5
c-2 -91.333 -30.333 -175 -85 -251s-127.667 -114 -219 -114c-96.667 0 -173.167 39.5 -229.5 118.5s-83.833 169.833 -82.5 272.5v4.5v4.5c2.66699 90 29.667 172.667 81 248s121.333 114 210 116v1zM304.001 671.002c-68.667 -6 -122.834 -36.998 -162.501 -92.998
s-59.5 -118.667 -59.5 -188v-3.5v-3.5c2 -76.667 28 -146.5 78 -209.5s111.333 -94.167 184 -93.5h1.5h1.5c77.333 2 136.166 31.167 176.499 87.5s60.5 119.166 60.5 188.499c0 7.33301 -0.166992 14.833 -0.5 22.5s-1.16602 15.167 -2.49902 22.5
c-8.66699 73.333 -37.667 136.666 -87 189.999s-106.666 80 -171.999 80h-8.5c-3 0 -6.16699 -0.333008 -9.5 -1v1z" />
    <glyph glyph-name="one" unicode="1" horiz-adv-x="493" 
d="M256 606l-229 -173.001l262 307h55v-639c0 -7.33301 0.666992 -13.833 2 -19.5s3.33301 -11.167 6 -16.5c1.33301 -2.66699 2.83301 -5.33398 4.5 -8.00098s3.5 -5.33398 5.5 -8.00098c4.66699 -5.33301 12.334 -10.5 23.001 -15.5s22 -9.5 34 -13.5l18 -6
c6 -2 11.667 -4 17 -6l23 -8h-352l23 9c5.33301 1.33301 11 3 17 5s12.333 4 19 6c11.333 4 22.166 8.5 32.499 13.5s17.833 10.167 22.5 15.5c2 2.66699 3.83301 5.33398 5.5 8.00098s3.16699 5.33398 4.5 8.00098c2 5.33301 3.5 10.833 4.5 16.5s1.5 11.834 1.5 18.501
l1 506v0z" />
    <glyph glyph-name="two" unicode="2" horiz-adv-x="583" 
d="M339 276l-51.001 -9.00098c-2.66699 -0.666992 -5.16699 -1.16699 -7.5 -1.5s-4.83301 -0.833008 -7.5 -1.5c-4.66699 -0.666992 -9.5 -1 -14.5 -1h-15.5h-12.5c-4.33301 0 -8.83301 0.333008 -13.5 1c-54 6 -99.667 27.667 -137 65s-55.666 86.666 -54.999 147.999v6v6
c2.66699 70.667 31 129.667 85 177s113 74.333 177 81c1.33301 0 2.83301 0.166992 4.5 0.5s3.16699 0.5 4.5 0.5h4c1.33301 0 3 0.333008 5 1h4h4c6 0 11.833 -0.166992 17.5 -0.5s11.167 -1.16602 16.5 -2.49902c52 -8 99.833 -31.167 143.5 -69.5
s65.834 -87.833 66.501 -148.5c0.666992 -44.667 -8.66602 -84.667 -27.999 -120s-45 -69.666 -77 -102.999c-4 -3.33301 -7.66699 -6.83301 -11 -10.5s-7 -7.16699 -11 -10.5l-196 -189l8 -20l34 2c6 -0.666992 12 -0.833984 18 -0.500977s12 0.5 18 0.5h21.5
c7 0 14.167 -0.333008 21.5 -1h19h18c15.333 0 29.166 0.333008 41.499 1s22.166 2.33398 29.499 5.00098c7.33301 2 14 7.33301 20 16s11.333 18 16 28l6 14c2 4.66699 4 9 6 13l22 50l-5 -203h-457v16l268 260v0zM279.999 689.999
c-50.667 -2.66699 -94.168 -22.668 -130.501 -60.001s-54.166 -80.666 -53.499 -129.999c0.666992 -44.667 16.167 -85 46.5 -121s68.5 -54.667 114.5 -56h4.5h4.5c58 0 106 18 144 54s56.667 80.333 56 133c0 52 -16.667 94.833 -50 128.5s-76 50.5 -128 50.5h-2h-2h-2h-2
v1z" />
    <glyph glyph-name="three" unicode="3" horiz-adv-x="552" 
d="M86 570l-19.001 -63.001l-2 233h450l-213 -288l50 -9c50 -9.33301 90 -32.333 120 -69s47.333 -80.667 52 -132c0 -2 0.166992 -3.83301 0.5 -5.5s0.5 -3.5 0.5 -5.5v-5.5v-5.5c0 -66.667 -29.167 -121.667 -87.5 -165s-122.833 -64.333 -193.5 -63
c-34.667 0 -68 5.83301 -100 17.5s-58.667 26.5 -80 44.5l-41 37l43 46l24 -22c21.333 -19.333 44.333 -35.333 69 -48s50.667 -19 78 -19c55.333 -0.666992 101.333 17 138 53s55 79.667 55 131v1.5v1.5c-0.666992 44.667 -18 84.334 -52 119.001s-78.667 52.667 -134 54
l-34 2l169 254h-100c-2.66699 -0.666992 -5.33398 -1 -8.00098 -1h-8h-8h-8c-25.333 0 -49.166 -0.333008 -71.499 -1s-38.166 -3 -47.499 -7c-6 -2.66699 -11.5 -8.5 -16.5 -17.5s-9.5 -18.833 -13.5 -29.5c-2.66699 -7.33301 -5 -14.5 -7 -21.5l-5 -17.5v1z" />
    <glyph glyph-name="four" unicode="4" horiz-adv-x="632" 
d="M475 279l109.001 -0.000976562v-53h-109v-125c0 -7.33301 0.666992 -13.833 2 -19.5s3.33301 -11.167 6 -16.5c1.33301 -2.66699 2.83301 -5.33398 4.5 -8.00098s3.5 -5.33398 5.5 -8.00098c4 -5.33301 11.167 -10.5 21.5 -15.5s21.5 -9.5 33.5 -13.5
c6.66699 -2 13 -4 19 -6s11.667 -4 17 -6l23 -8h-352l23 9c5.33301 1.33301 11 3 17 5s12.333 4 19 6c11.333 4 22.166 8.5 32.499 13.5s17.833 10.167 22.5 15.5c2 2.66699 3.83301 5.33398 5.5 8.00098s3.16699 5.33398 4.5 8.00098c2 5.33301 3.5 10.833 4.5 16.5
s1.5 11.834 1.5 18.501v126h-359v58l394 456h55v-461v0zM124.001 278.999h261v330h-14l-247 -313v-17v0z" />
    <glyph glyph-name="five" unicode="5" horiz-adv-x="502" 
d="M429 739l-0.000976562 -199.002l-22 58l-0.5 1.5c-0.333008 1 -0.833008 1.83301 -1.5 2.5c-3.33301 10.667 -7.33301 20.5 -12 29.5s-11.334 15.833 -20.001 20.5c-6.66699 4 -17.167 6.66699 -31.5 8s-29.5 2 -45.5 2h-9h-9l-145 1l-10 -195l34 9c8 2 15.333 4 22 6
s13 3.66699 19 5s12 2.33301 18 3s12.333 1 19 1h1.5h1.5h0.5h1.5c64.667 -0.666992 120.334 -23.167 167.001 -67.5s70.667 -97.5 72 -159.5c1.33301 -79.333 -23 -144.5 -73 -195.5s-112.667 -76.833 -188 -77.5c-30 0 -57.333 3.33301 -82 10s-47 16.334 -67 29.001
l-40 29l37 51l38 -28c15.333 -13.333 31.666 -22.5 48.999 -27.5s35.333 -7.5 54 -7.5h3.5h2.5c50.667 1.33301 93.334 20.833 128.001 58.5s52 81.167 52 130.5v4.5v4.5c-2.66699 48 -20.334 88.5 -53.001 121.5s-73 51.833 -121 56.5h-4
c-1.33301 0 -2.66602 0.333008 -3.99902 1h-4h-4c-4.66699 0 -9.5 -0.166992 -14.5 -0.5s-10.167 -0.833008 -15.5 -1.5c-13.333 -2 -26.166 -4.66699 -38.499 -8s-23.5 -7.66602 -33.5 -12.999l-30 -14l1 351h357v0z" />
    <glyph glyph-name="six" unicode="6" horiz-adv-x="607" 
d="M405 716l-19.002 -21.002c-6.66699 -8.66699 -13.667 -17 -21 -25l-22 -25l-12 -14.5l-12 -14.5l-51 -62l-42 -54c-2 -2.66699 -3.66699 -5.16699 -5 -7.5s-2.66602 -4.83301 -3.99902 -7.5c-1.33301 -2 -2.66602 -4.16699 -3.99902 -6.5
s-2.66602 -4.83301 -3.99902 -7.5c-0.666992 -2.66699 -1.66699 -5.33398 -3 -8.00098l-4 -8l37 11c6.66699 0.666992 13 1.83398 19 3.50098s12 3.16699 18 4.5c8.66699 2 17.5 3.5 26.5 4.5s18.5 1.5 28.5 1.5c61.333 0.666992 115.666 -17.833 162.999 -55.5
s73.333 -87.167 78 -148.5v-4.5c0 -1.66699 0.333008 -3.16699 1 -4.5v-4.5v-4.5c0 -71.333 -28.333 -134.166 -85 -188.499s-122.667 -80.833 -198 -79.5c-76.667 0.666992 -140 22.167 -190 64.5s-74.667 102.5 -74 180.5v4.5v4.5c2 58.667 18.167 112.834 48.5 162.501
s66.5 98.167 108.5 145.5l18 20l18 20l143 155l43 -31v0zM279.998 421.998c-48.667 -4.66699 -90.165 -23.668 -124.498 -57.001s-52.5 -74.666 -54.5 -123.999v-4.5v-4.5c0 -51.333 19 -95.666 57 -132.999s83.667 -56 137 -56
c53.333 -0.666992 99.666 18.166 138.999 56.499s59 83.5 59 135.5v9.5c0 3 -0.333008 5.83301 -1 8.5c-4.66699 49.333 -26.334 89.833 -65.001 121.5s-82 47.5 -130 47.5h-4h-4c-2 -0.666992 -3.66699 -1 -5 -1h-4v1z" />
    <glyph glyph-name="seven" unicode="7" horiz-adv-x="606" 
d="M578 740l-394.001 -760.997l-80 52l366 629h-338c-8 -0.666992 -15.167 -1.33398 -21.5 -2.00098s-12.833 -2.33398 -19.5 -5.00098c-0.666992 -0.666992 -1.66699 -1.5 -3 -2.5s-2.66602 -1.83301 -3.99902 -2.5c-6 -5.33301 -10.833 -12.833 -14.5 -22.5
s-7.16699 -19.834 -10.5 -30.501c0 -1.33301 -0.166992 -2.33301 -0.5 -3s-0.5 -1.66699 -0.5 -3l-4 -12l-4 -12l-12 -36l-9 211h549v0z" />
    <glyph glyph-name="eight" unicode="8" horiz-adv-x="565" 
d="M271 750c1.33301 -0.666992 2.50293 -1.00098 3.50293 -1.00098h3.5h3.5h3.5h3.5h2.5c52.667 -1.33301 101 -16.333 145 -45s67 -69 69 -121v-2.5v-2.5v-2.5v-2.5c0 -32.667 -7.5 -60.167 -22.5 -82.5s-35.5 -42.833 -61.5 -61.5l-27 -18l41 -23
c32 -18 56.5 -40.167 73.5 -66.5s26.5 -58.166 28.5 -95.499v-6v-6c0 -62.667 -27.333 -115.5 -82 -158.5s-115.334 -64.5 -182.001 -64.5h-2h-1h-2h-2c-60.667 2 -115.334 20.333 -164.001 55s-73 83.334 -73 146.001v3v3v2.5v2.5c2 38 11.667 70 29 96
s41.333 49.333 72 70l31 21l-41 32c-1.33301 0.666992 -2.83301 1.5 -4.5 2.5s-3.16699 2.16699 -4.5 3.5c-19.333 16 -34.166 33.167 -44.499 51.5s-15.833 41.833 -16.5 70.5c-0.666992 57.333 21.666 104.166 66.999 140.499s96.666 55.833 153.999 58.5v1z
M269.003 370.999c-42.667 -4.66699 -78.5 -22.1689 -107.5 -52.502s-44.167 -67.166 -45.5 -110.499c-0.666992 -44.667 14.833 -82 46.5 -112s69.5 -46.333 113.5 -49h4.5h4.5c44.667 0 84 15.833 118 47.5s51 69.834 51 114.501v3.5v2.5c-0.666992 44 -18 81 -52 111
s-72.667 45 -116 45h-8c-2.66699 0 -5.66699 -0.333008 -9 -1v1zM268.003 699.997c-36.667 -3.33301 -68.834 -17.001 -96.501 -41.001s-42.167 -54.667 -43.5 -92v-1.5v-2.5c0 -38 13.833 -70.167 41.5 -96.5s60.834 -40.833 99.501 -43.5h4.5h4.5
c39.333 0 74.333 13.833 105 41.5s45.667 60.834 45 99.501v2v2v1v2c-2.66699 38 -19 69 -49 93s-64 35.667 -102 35h-4.5h-4.5v1z" />
    <glyph glyph-name="nine" unicode="9" horiz-adv-x="610" 
d="M137 34l22.0049 21c7.33301 6 14.666 12.333 21.999 19l23 20c2.66699 2.66699 5.33398 5.16699 8.00098 7.5s5.33398 4.5 8.00098 6.5l67 58.5c21.333 19 38.333 35.833 51 50.5l15 18c4 4.66699 8 9 12 13l0.5 1l0.5 1c2.66699 2.66699 5.16699 5.66699 7.5 9
s5.16602 7 8.49902 11l-47 -2c-8.66699 -1.33301 -15.834 -2.16602 -21.501 -2.49902s-10.834 -0.5 -15.501 -0.5h-4h-4h-8h-9c-7.33301 0 -14.666 0.666992 -21.999 2l-23 4c-44 10.667 -85 33 -123 67s-61 76.667 -69 128c-0.666992 3.33301 -1.16699 6.33301 -1.5 9
s-0.5 5.66699 -0.5 9c-0.666992 2.66699 -1 5.5 -1 8.5v8.5c0.666992 63.333 26 120 76 170s116 74.667 198 74h2h2h1h2c70.667 -2 131.167 -23.833 181.5 -65.5s79.166 -102.5 86.499 -182.5v-4c0 -1.33301 0.333008 -2.33301 1 -3v-4v-4
c0 -26.667 -6.33301 -54.334 -19 -83.001s-29.334 -58 -50.001 -88c-26.667 -36 -57.834 -71.667 -93.501 -107s-72.834 -68.333 -111.501 -99l-140 -112l-32 41v0zM326.005 317c49.333 4 90.999 23 124.999 57s52 75.667 54 125v3.5v2.5c0 52 -19 96.833 -57 134.5
s-84 56.834 -138 57.501c-54 0 -100.833 -19.333 -140.5 -58s-59.5 -84.334 -59.5 -137.001v-4c0 -1.33301 0.333008 -2.66602 1 -3.99902v-4v-4c4.66699 -50.667 26.834 -91.834 66.501 -123.501s83.5 -47.5 131.5 -47.5h8.5c3 0 5.83301 0.333008 8.5 1v1z" />
    <glyph glyph-name="colon" unicode=":" horiz-adv-x="213" 
d="M134 101l50 -163l-159 51l109 112v0zM134 459l50 -163l-159 50l109 113v0z" />
    <glyph glyph-name="semicolon" unicode=";" horiz-adv-x="286" 
d="M256 100l-226 -243l125 307l101 -64v0zM204 459l50 -163l-159 50l109 113v0z" />
    <glyph glyph-name="less" unicode="&#x3c;" horiz-adv-x="437" 
d="M415 451v-69l-342 -161l342 -154v-67l-389 182v82l389 187v0z" />
    <glyph glyph-name="equal" unicode="=" horiz-adv-x="519" 
d="M29 183h458v-51h-458v51v0zM29 304h458v-52h-458v52v0z" />
    <glyph glyph-name="greater" unicode="&#x3e;" horiz-adv-x="440" 
d="M26 0v69l343 160l-343 155v67l389 -183v-81l-389 -187v0z" />
    <glyph glyph-name="question" unicode="?" horiz-adv-x="515" 
d="M268 101l47 -163l-157 51l110 112v0zM276 150l27.001 41.999c12 17.333 20.5 30.166 25.5 38.499l12.5 21.5c2 2.66699 4 5.66699 6 9l7 12c4 6.66699 6.83301 12.167 8.5 16.5l4.5 11.5c0.666992 0.666992 1 1.33398 1 2.00098v2c1.33301 2 2.33301 4.33301 3 7
s1.66699 5.66699 3 9l-36 -15c-0.666992 -1.33301 -1.5 -2.16602 -2.5 -2.49902s-2.16699 -0.833008 -3.5 -1.5c-2.66699 -2 -5.83398 -4.16699 -9.50098 -6.5s-7.83398 -4.83301 -12.501 -7.5c-8 -4.66699 -18.333 -9 -31 -13s-30.334 -6.66699 -53.001 -8h-3h-4
c-8.66699 0 -17.667 0.666992 -27 2s-18.666 3.33301 -27.999 6c-33.333 10 -64.166 29.667 -92.499 59s-42.833 70 -43.5 122c0 64.667 21.667 117.667 65 159s99.333 64.333 168 69h3.5h3.5h3h3c55.333 0 104 -18.667 146 -56s63 -84.333 63 -141
c0.666992 -33.333 -4.5 -69 -15.5 -107s-37.167 -87.667 -78.5 -149l-78 -112l-35 31v0zM269.001 331.999c35.333 4 66.0029 19.001 92.0029 45.001s41.333 54 46 84c0 2.66699 0.166992 5.16699 0.5 7.5s0.5 4.83301 0.5 7.5v3.5v2.5
c-2.66699 41.333 -18.834 76.166 -48.501 104.499s-64.834 42.833 -105.501 43.5h-2.5h-2.5c-44 0 -81.5 -15.333 -112.5 -46s-46.5 -70 -46.5 -118v-4c0 -1.33301 0.333008 -2.33301 1 -3v-4v-4c3.33301 -38.667 20.666 -68.667 51.999 -90s65.333 -32 102 -32
c4 0 8 0.166992 12 0.5s8 0.833008 12 1.5v1z" />
    <glyph glyph-name="at" unicode="@" horiz-adv-x="767" 
d="M463 487l11.0078 -26.9941l19 64h87l-71 -265l-5 -18c-0.666992 -4 -1.5 -8.16699 -2.5 -12.5s-1.83301 -8.5 -2.5 -12.5c-0.666992 -2 -1 -4 -1 -6v-6c0 -6 1.16699 -11.5 3.5 -16.5s6.5 -8.5 12.5 -10.5c2.66699 -0.666992 5.16699 -1.16699 7.5 -1.5
s4.83301 -0.5 7.5 -0.5c6.66699 0 13.5 1.16699 20.5 3.5s13.833 5.83301 20.5 10.5c20.667 14 40.667 35.333 60 64s33.666 58.667 42.999 90c2 8 3.83301 15.667 5.5 23s2.83398 14.666 3.50098 21.999c1.33301 7.33301 2 14.166 2 20.499v19.5
c0 58 -17.5 107.833 -52.5 149.5s-90.167 71.5 -165.5 89.5c-4 1.33301 -8 2.33301 -12 3l-12 2c-8 1.33301 -16 2.33301 -24 3s-16 1 -24 1c-80 -0.666992 -149.833 -29.334 -209.5 -86.001s-93.167 -124.667 -100.5 -204c-0.666992 -4.66699 -1 -9.5 -1 -14.5v-15.5
c0 -78.667 25.667 -147.834 77 -207.501s116.333 -95.167 195 -106.5l24 -2c8 -0.666992 15.667 -1 23 -1c48 0 91.833 9 131.5 27s71.167 37.667 94.5 59c7.33301 6.66699 13.666 13.5 18.999 20.5s9.66602 13.5 12.999 19.5l10 21h64l-12 -20
c-32.667 -59.333 -78 -103.5 -136 -132.5s-120 -43.167 -186 -42.5h-22.5c-7.66699 0 -15.167 0.666992 -22.5 2c-94 8.66699 -172.333 48.667 -235 120s-94 153.666 -94 246.999v6.5v6.5c0 2 0.166992 4.16699 0.5 6.5s0.5 4.5 0.5 6.5
c7.33301 94.667 47.333 175.167 120 241.5s155 99.5 247 99.5c11.333 0 22.5 -0.5 33.5 -1.5s22.167 -2.83301 33.5 -5.5c84 -16.667 151.167 -50 201.5 -100s75.5 -112 75.5 -186v-11c0 -4 -0.333008 -8 -1 -12c-4.66699 -70 -30.334 -131.5 -77.001 -184.5
s-102.334 -79.833 -167.001 -80.5c-12 0 -22.833 4 -32.5 12s-17.5 16.667 -23.5 26c-3.33301 4.66699 -6 9.5 -8 14.5s-3.33301 9.16699 -4 12.5l-2 21l-19 -24c-14 -18.667 -29.833 -33 -47.5 -43s-36.834 -14.667 -57.501 -14c-5.33301 0 -10.833 0.333008 -16.5 1
s-11.167 1.66699 -16.5 3c-33.333 9.33301 -59 28.333 -77 57s-26.667 60 -26 94v10c0 3.33301 0.333008 6.66602 1 9.99902c0 3.33301 0.333008 6.66602 1 9.99902l2 10c9.33301 42.667 30.166 80.334 62.499 113.001s66.833 55 103.5 67
c8.66699 2.66699 17.167 4.66699 25.5 6s16.5 2 24.5 2c5.33301 0 10.166 -0.166992 14.499 -0.5s8.83301 -1.16602 13.5 -2.49902c13.333 -2.66699 24.166 -7.83398 32.499 -15.501s14.833 -17.5 19.5 -29.5v1zM276.008 374.006c-4 -10 -7.49707 -20.332 -10.4971 -30.999
s-5.5 -21.334 -7.5 -32.001c-1.33301 -8 -2.5 -16 -3.5 -24s-1.5 -15.667 -1.5 -23c0 -18.667 3.33301 -35.334 10 -50.001s18 -24.667 34 -30c4 -1.33301 8 -2.33301 12 -3s8 -1 12 -1c23.333 0 43.166 11.333 59.499 34s30.166 47.667 41.499 75l6 17.5l6 16.5
c3.33301 8 6.16602 16.333 8.49902 25s4.5 17.334 6.5 26.001s3.33301 17.334 4 26.001s1 17 1 25c0 16.667 -2.5 31.667 -7.5 45s-13.833 23.333 -26.5 30c-2 1.33301 -4 2.5 -6 3.5s-4 1.5 -6 1.5c-2.66699 0.666992 -5 1.16699 -7 1.5s-4 0.5 -6 0.5
c-20.667 0 -40.5 -10.833 -59.5 -32.5s-34.833 -45.834 -47.5 -72.501l-6 -14.5l-6 -14.5v1z" />
    <glyph glyph-name="A" unicode="A" horiz-adv-x="841" 
d="M460 740c1.33301 -5.33301 2.66797 -10.167 4.00098 -14.5l4 -12.5c0.666992 -4.66699 1.66699 -9 3 -13s2.66602 -8.66699 3.99902 -14c9.33301 -28.667 23 -68.167 41 -118.5l57 -156.5l4 -10l4 -10l68.5 -182.5c21.667 -55.667 36.167 -91.5 43.5 -107.5
c2 -5.33301 4 -10 6 -14s4 -8.33301 6 -13c1.33301 -3.33301 3 -6.83301 5 -10.5l6 -11.5c3.33301 -6.66699 10.166 -12.667 20.499 -18s21.5 -10.333 33.5 -15c2.66699 -0.666992 5.33398 -1.66699 8.00098 -3s5.33398 -2.33301 8.00098 -3
c2 -0.666992 3.83301 -1.5 5.5 -2.5s3.5 -1.83301 5.5 -2.5l21 -8h-296l26 10c4 0.666992 8.33301 2 13 4s9.66699 4 15 6c9.33301 3.33301 17.833 7.33301 25.5 12s12.5 10.334 14.5 17.001v0.5c0 0.333008 0.333008 0.833008 1 1.5v1.5v1.5
c0 3.33301 -0.666992 7.66602 -2 12.999s-3 10.333 -5 15c-0.666992 2.66699 -1.33398 5 -2.00098 7l-2 6c-0.666992 2.66699 -1.5 5.16699 -2.5 7.5s-1.83301 4.5 -2.5 6.5l-67 188h-247l-70 -187l-1.5 -4.5c-0.333008 -1 -0.5 -2.16699 -0.5 -3.5
c-1.33301 -2.66699 -2.5 -5.66699 -3.5 -9s-1.83301 -6.66602 -2.5 -9.99902c-2 -7.33301 -3.66699 -14.333 -5 -21s-2 -11.667 -2 -15v-1.5v-1.5c2.66699 -6 7.83398 -10.833 15.501 -14.5s16.167 -7.16699 25.5 -10.5c1.33301 0 2.66602 -0.166992 3.99902 -0.5
s2.33301 -0.833008 3 -1.5c3.33301 -1.33301 6.66602 -2.5 9.99902 -3.5s6.33301 -2.16699 9 -3.5l27 -10h-273l22 8c4.66699 1.33301 9.83398 3 15.501 5l16.5 6c11.333 4 22 8.66699 32 14s16.667 11 20 17c2 3.33301 3.66699 6.66602 5 9.99902
s2.66602 6.33301 3.99902 9c1.33301 2 2.33301 4 3 6s1.33398 4.33301 2.00098 7c1.33301 2.66699 2.5 5.33398 3.5 8.00098l3.5 9c8.66699 18.667 17.167 38.167 25.5 58.5l25.5 62.5l14 32.5l14 33.5l94 241.5c28 75 45.333 122.833 52 143.5l5.5 18
c1.66699 5.33301 3.16699 10.666 4.5 15.999c0 2 0.333008 3.83301 1 5.5s1 3.5 1 5.5c1.33301 3.33301 2.5 7 3.5 11s1.83301 8 2.5 12l67 1v0zM511.002 348.999l-101 262l-102 -262h203v0z" />
    <glyph glyph-name="B" unicode="B" horiz-adv-x="630" 
d="M26 740l182.001 0.00195312c10.667 -0.666992 20.5 -1 29.5 -1h25.5c5.33301 0.666992 10.333 1 15 1h14h32.5c11 0 23.5 -0.333008 37.5 -1c48 -2 90.5 -17 127.5 -45s56.833 -67.667 59.5 -119v-2.5v-2.5v-2.5v-2.5c0 -36 -9.83301 -67 -29.5 -93
s-45.834 -47.667 -78.501 -65l-31 -16l58 -19c39.333 -13.333 70.833 -33.833 94.5 -61.5s37.167 -62.167 40.5 -103.5v-6v-6c0 -50 -20 -92.167 -60 -126.5s-83.667 -56.833 -131 -67.5l-25.5 -4c-8.33301 -1.33301 -16.5 -2 -24.5 -2h-8.5h-9.5
c-7.33301 0 -14.333 0.166992 -21 0.5s-13 0.833008 -19 1.5h-5.5c-1.66699 0 -3.5 0.333008 -5.5 1c-8 0 -16.5 0.333008 -25.5 1s-18.833 1 -29.5 1h-212l22 8c4.66699 1.33301 10 3 16 5l18 6c11.333 4 22.166 8.5 32.499 13.5s17.5 10.167 21.5 15.5
c1.33301 1.33301 2.33301 2.66602 3 3.99902s1.33398 2.33301 2.00098 3c4 6.66699 6.83301 13.167 8.5 19.5s2.5 13.5 2.5 21.5v546c0 8.66699 -0.5 16.667 -1.5 24s-4.16699 14.333 -9.5 21c-4 5.33301 -11.167 10.166 -21.5 14.499s-21.5 8.5 -33.5 12.5l-21.5 7.5
c-7 2.33301 -13.167 4.83301 -18.5 7.5l-20 11v0zM258.001 53.002c6 -3.33301 15.5 -6.16797 28.5 -8.50098s26.833 -3.5 41.5 -3.5c8.66699 0 17.167 0.333008 25.5 1s16.5 2 24.5 4c49.333 12 85 31.333 107 58s32.667 58.334 32 95.001v10.5
c0 3.66699 -0.333008 7.5 -1 11.5c-4 44.667 -25.333 77.667 -64 99s-81 33.333 -127 36c-3.33301 0.666992 -6.83301 1 -10.5 1h-11.5l-66 1v-261c0 -9.33301 1.5 -18 4.5 -26s8.5 -14.333 16.5 -19v1zM335.001 691c-2 -0.666992 -4.00098 -0.999023 -6.00098 -0.999023h-7
h-9.5h-9.5c-11.333 -0.666992 -22.166 -1.66699 -32.499 -3s-17.5 -3 -21.5 -5c-6 -4 -9.5 -9.33301 -10.5 -16s-1.5 -14 -1.5 -22v-1v-2v-238h47c6.66699 -0.666992 13.167 -0.666992 19.5 0s12.833 1.66699 19.5 3c38 6.66699 72.667 22.667 104 48s47 57.666 47 96.999
v3.5v2.5c-0.666992 1.33301 -1 2.5 -1 3.5v3.5c-4.66699 49.333 -20.667 82.333 -48 99s-57.333 25.667 -90 27v1z" />
    <glyph glyph-name="C" unicode="C" horiz-adv-x="771" 
d="M438 768c11.333 0 21.9971 0.168945 31.9971 0.501953s19.667 0.5 29 0.5c14 0 27.5 -0.5 40.5 -1.5s26.167 -2.5 39.5 -4.5c12.667 -2 25.5 -4.5 38.5 -7.5s26.5 -6.5 40.5 -10.5l29 -7l1 -201l-24 62c-1.33301 3.33301 -2.83301 6.83301 -4.5 10.5
s-3.16699 7.5 -4.5 11.5c-5.33301 13.333 -10.833 25.666 -16.5 36.999s-13.167 20 -22.5 26l-4 2c-1.33301 0.666992 -3 1.66699 -5 3c-12 4.66699 -29.5 9.16699 -52.5 13.5s-47.167 7.16602 -72.5 8.49902c-4.66699 0.666992 -9.33398 1 -14.001 1h-14h-6h-5
c-2 -0.666992 -3.83301 -1 -5.5 -1h-5.5c-90 -4.66699 -165.667 -37.834 -227 -99.501s-91.666 -140.5 -90.999 -236.5c0.666992 -92 33.167 -170.833 97.5 -236.5s144.833 -97.834 241.5 -96.501c4 0 8 0.166992 12 0.5s8 0.5 12 0.5c38 2.66699 74.333 10.334 109 23.001
s59.334 27.334 74.001 44.001c5.33301 6 10.5 13.167 15.5 21.5s9.83301 16.833 14.5 25.5l12 24.5c4 8.33301 7.66699 15.5 11 21.5l25 48l-43 -214l-36 -13c-7.33301 -3.33301 -14.333 -6.16602 -21 -8.49902s-13.334 -4.5 -20.001 -6.5
c-28 -7.33301 -57.5 -12.333 -88.5 -15s-70.167 -3.66699 -117.5 -3c-11.333 0 -22.666 0.666992 -33.999 2s-22.666 3.33301 -33.999 6c-78 16 -149.667 56.333 -215 121s-99.666 144.667 -102.999 240v3.5v3.5v3v3c0 112.667 41.167 205.167 123.5 277.5
s178.5 111.166 288.5 116.499v1z" />
    <glyph glyph-name="D" unicode="D" horiz-adv-x="841" 
d="M807 414c0.666992 -8 1.16797 -15.667 1.50098 -23s0.5 -14.666 0.5 -21.999c0 -82 -18.667 -148 -56 -198s-78.333 -88.333 -123 -115c-30.667 -18.667 -60.167 -32.667 -88.5 -42s-50.5 -15 -66.5 -17c-9.33301 -1.33301 -19.833 -2.5 -31.5 -3.5
s-23.834 -1.5 -36.501 -1.5c-6.66699 0 -13.334 0.166992 -20.001 0.5s-13.334 0.5 -20.001 0.5c-9.33301 0.666992 -18.666 1.16699 -27.999 1.5s-18.333 0.833008 -27 1.5c-14.667 1.33301 -28.5 2.33301 -41.5 3s-23.833 1 -32.5 1h-212l22 8c4.66699 1.33301 10 3 16 5
l18 6c11.333 4 22.166 8.5 32.499 13.5s17.5 10.167 21.5 15.5c1.33301 1.33301 2.33301 2.66602 3 3.99902s1.33398 2.33301 2.00098 3c4 6.66699 6.83301 13.167 8.5 19.5s2.5 13.5 2.5 21.5v546c0 8.66699 -0.5 16.667 -1.5 24s-4.16699 14.333 -9.5 21
c-4.66699 5.33301 -12.167 10.166 -22.5 14.499s-21.166 8.16602 -32.499 11.499c-6.66699 2.66699 -13.167 4.83398 -19.5 6.50098s-12.166 3.5 -17.499 5.5l-22 9h182c8.66699 -0.666992 19 -0.666992 31 0s25.333 1.33398 40 2.00098c14.667 0 30.167 0.333008 46.5 1
s33.5 1 51.5 1c12 0 24 -0.166992 36 -0.5s24 -0.833008 36 -1.5l25 -2c8 -0.666992 16 -1.66699 24 -3c17.333 -2.66699 36.666 -7.5 57.999 -14.5s43.333 -16.833 66 -29.5c42.667 -24 82.5 -58.5 119.5 -103.5s58.5 -101.833 64.5 -170.5v1zM237.001 642
l-0.000976562 -538.001c0 -10.667 1.33301 -20.167 4 -28.5s8.33398 -15.166 17.001 -20.499c0.666992 -0.666992 1.5 -1.16699 2.5 -1.5s2.5 -0.5 4.5 -0.5c8.66699 -2 22.834 -4 42.501 -6s41.167 -3 64.5 -3h15.5c5 0 9.83301 0.333008 14.5 1
c21.333 0.666992 42.166 2.66699 62.499 6s37.833 8.33301 52.5 15l38.5 17.5c14.333 6.33301 29.166 14.166 44.499 23.499c29.333 18.667 56.666 46.334 81.999 83.001s39.333 89.334 42 158.001v3.5v3.5v3v3c0 73.333 -22.833 140.333 -68.5 201
s-107.5 99.667 -185.5 117c-8 2 -22.333 3.66699 -43 5s-42.667 1.66602 -66 0.999023h-2h-2c-23.333 0 -45.166 -0.833008 -65.499 -2.5s-34.166 -4.5 -41.499 -8.5c-5.33301 -2.66699 -8.83301 -7 -10.5 -13s-2.5 -12.667 -2.5 -20v1z" />
    <glyph glyph-name="E" unicode="E" horiz-adv-x="593" 
d="M26 740l501.003 -0.00390625l-1 -164l-14 40c-1.33301 2.66699 -2.5 5.66699 -3.5 9s-2.16699 6.33301 -3.5 9c-3.33301 9.33301 -6.83301 17.5 -10.5 24.5s-9.5 13.167 -17.5 18.5c-5.33301 3.33301 -11.333 6 -18 8s-13.334 3.33301 -20.001 4
c-4 0 -7.83301 0.166992 -11.5 0.5s-7.5 0.5 -11.5 0.5l-123 1c-1.33301 -0.666992 -2.66602 -1 -3.99902 -1h-5c-8 0 -15.833 -0.333008 -23.5 -1s-13.5 -3 -17.5 -7c-2.66699 -2.66699 -4.33398 -7.16699 -5.00098 -13.5s-1 -13.166 -1 -20.499v-0.5v-1.5v-2.5v-2.5v-239
h142c4 -0.666992 8 -1 12 -1h12c8 0 15.5 0.5 22.5 1.5s13.5 3.83301 19.5 8.5c1.33301 1.33301 2.66602 2.5 3.99902 3.5s2.33301 2.16699 3 3.5c3.33301 2.66699 5.83301 5.33398 7.5 8.00098s3.5 6 5.5 10l21 44v-235l-9 23c-0.666992 2 -1.5 4.33301 -2.5 7
s-1.83301 5.33398 -2.5 8.00098c-0.666992 1.33301 -1.16699 2.5 -1.5 3.5s-0.833008 2.16699 -1.5 3.5c-3.33301 10.667 -7.16602 20.834 -11.499 30.501s-10.166 16.5 -17.499 20.5c-4 2.66699 -8 4.66699 -12 6s-8 2.33301 -12 3s-8.16699 1 -12.5 1h-14.5h-2.5h-2.5
l-147 1v-246c0 -3.33301 0.166992 -7 0.5 -11s0.833008 -7.66699 1.5 -11c1.33301 -7.33301 3.16602 -13.833 5.49902 -19.5s5.5 -9.5 9.5 -11.5c5.33301 -2.66699 10.166 -4.33398 14.499 -5.00098s8.83301 -1 13.5 -1h5.5c1.66699 0 3.5 0.333008 5.5 1h5h6l164 1
c2 -0.666992 4 -1 6 -1h6c1.33301 -0.666992 3 -1 5 -1h6c3.33301 0 6.66602 0.333008 9.99902 1s6.66602 1.66699 9.99902 3c5.33301 2.66699 9.83301 8 13.5 16s7.16699 17 10.5 27c0.666992 2 1.33398 4.16699 2.00098 6.5s1.33398 4.5 2.00098 6.5
c1.33301 4 2.83301 8 4.5 12l4.5 11l13 32l-5 -162h-530l23 7c5.33301 0.666992 11.5 2 18.5 4l21.5 6c6.66699 2.66699 13.334 5.16699 20.001 7.5s12.667 4.83301 18 7.5c3.33301 1.33301 6.33301 3 9 5s4.66699 3.66699 6 5c3.33301 4 5.66602 8.5 6.99902 13.5
s2.33301 10.167 3 15.5v6v6v9v8v542v9.5v9.5c0 6.66699 -0.5 12.834 -1.5 18.501s-3.83301 11.167 -8.5 16.5c-1.33301 1.33301 -3.33301 3 -6 5s-5.66699 3.66699 -9 5c-5.33301 2.66699 -11.333 5.16699 -18 7.5s-13.334 4.83301 -20.001 7.5l-21.5 6
c-7 2 -13.167 3.66699 -18.5 5l-23 8v0z" />
    <glyph glyph-name="F" unicode="F" horiz-adv-x="537" 
d="M26 740l481 -0.000976562v-164l-14 40c-1.33301 2.66699 -2.5 5.66699 -3.5 9s-2.16699 6.33301 -3.5 9c-3.33301 9.33301 -6.83301 17.5 -10.5 24.5s-9.5 13.167 -17.5 18.5c-6.66699 4 -13.667 6.83301 -21 8.5s-15 2.83398 -23 3.50098
c-2.66699 0.666992 -5.5 1 -8.5 1h-9.5l-103 1c-1.33301 -0.666992 -2.66602 -1 -3.99902 -1h-5c-8 0 -15.833 -0.333008 -23.5 -1s-13.5 -3 -17.5 -7c-2.66699 -2.66699 -4.5 -5.83398 -5.5 -9.50098s-1.5 -7.16699 -1.5 -10.5v-4.5c0 -1.66699 0.333008 -3.5 1 -5.5v-2v-2
v-3.5v-3.5v-239h133c4 -0.666992 8 -1 12 -1h11c8 0 15.667 0.5 23 1.5s14 3.83301 20 8.5c1.33301 1.33301 2.66602 2.5 3.99902 3.5s2.33301 2.16699 3 3.5c2 2 3.83301 4 5.5 6s3.16699 4.66699 4.5 8c0 0.666992 0.166992 1.33398 0.5 2.00098
s0.833008 1.33398 1.5 2.00098l21 44v-235l-9 23c-1.33301 2 -2.5 4.5 -3.5 7.5s-1.83301 6.16699 -2.5 9.5c0 0.666992 -0.166992 1.5 -0.5 2.5s-0.5 1.83301 -0.5 2.5l-12 30.5c-4 9.66699 -10 16.5 -18 20.5c-4 2 -7.66699 3.66699 -11 5s-7 2.33301 -11 3
c-4 1.33301 -8.33301 2 -13 2h-15h-2.5h-2.5l-138 1v-255c0 -11.333 0.5 -21.166 1.5 -29.499s4.83301 -16.5 11.5 -24.5c4 -5.33301 11.167 -9.83301 21.5 -13.5s21.166 -6.83398 32.499 -9.50098c2 -0.666992 3.83301 -1.33398 5.5 -2.00098s3.5 -1 5.5 -1
c5.33301 -1.33301 10.333 -2.83301 15 -4.5l13 -4.5l22 -8h-339l23 7c5.33301 0.666992 11.5 2 18.5 4l21.5 6c6.66699 2.66699 13.334 5.16699 20.001 7.5s12.667 4.83301 18 7.5c3.33301 1.33301 6.33301 3 9 5s4.66699 3.66699 6 5l5.5 9.5
c1.66699 3 2.83398 6.16699 3.50098 9.5s1.16699 6.66602 1.5 9.99902s0.5 6.33301 0.5 9v5.5v4.5c-0.666992 2 -1 3.83301 -1 5.5v4.5v542v9.5v9.5c0 6.66699 -0.5 12.834 -1.5 18.501s-3.83301 11.167 -8.5 16.5c-1.33301 1.33301 -3.33301 3 -6 5s-5.66699 3.66699 -9 5
c-5.33301 2.66699 -11.333 5.16699 -18 7.5s-13.334 4.83301 -20.001 7.5l-21.5 6c-7 2 -13.167 3.66699 -18.5 5l-23 8v0z" />
    <glyph glyph-name="G" unicode="G" horiz-adv-x="831" 
d="M631 153v73.9961c0 6 -1 11.5 -3 16.5s-5 9.83301 -9 14.5c-0.666992 0.666992 -1.33398 1.5 -2.00098 2.5s-1.33398 1.83301 -2.00098 2.5c-4 4 -9.16699 7.16699 -15.5 9.5s-13.166 4.5 -20.499 6.5c-2.66699 0.666992 -5.5 1.33398 -8.5 2.00098
s-6.16699 1.33398 -9.5 2.00098c-2.66699 1.33301 -5.16699 2.33301 -7.5 3s-4.5 1.33398 -6.5 2.00098l-32 17h289l-34 -19c-1.33301 -1.33301 -2.66602 -2.33301 -3.99902 -3l-4 -2c-2.66699 -1.33301 -5.5 -2.5 -8.5 -3.5s-5.83301 -1.83301 -8.5 -2.5
c-6.66699 -2.66699 -12.667 -5.5 -18 -8.5s-9.33301 -7.5 -12 -13.5c-2 -4.66699 -3.5 -14.667 -4.5 -30s-1.5 -32 -1.5 -50v-4.5v-4.5c0 -10 0.333008 -19.5 1 -28.5s1.33398 -17.167 2.00098 -24.5l6 -54l-58 -23c-3.33301 -2 -7 -3.66699 -11 -5l-12 -4
c-24.667 -9.33301 -55.334 -17.5 -92.001 -24.5s-80.334 -10.167 -131.001 -9.5c-10.667 0 -21.667 0.666992 -33 2s-22.666 3 -33.999 5c-78 16 -149.833 56.5 -215.5 121.5s-100.167 145.167 -103.5 240.5v3.5v3.5v3v3c0 112.667 41.5 205.5 124.5 278.5
s179.5 111.833 289.5 116.5c7.33301 0.666992 14.666 1 21.999 1h21c28 0 53.833 -1.66699 77.5 -5s46.834 -8 69.501 -14l13 -4.5c4.66699 -1.66699 9.33398 -3.16699 14.001 -4.5l42 -13l-15 -210l-20 81c-4 17.333 -8.83301 33.833 -14.5 49.5s-14.834 27.5 -27.501 35.5
c-2 1.33301 -4.83301 2.83301 -8.5 4.5s-8.16699 3.5 -13.5 5.5c-12.667 4 -28.834 7.83301 -48.501 11.5s-40.167 6.16699 -61.5 7.5c-6.66699 0.666992 -13.667 1.16699 -21 1.5s-14.333 0.5 -21 0.5h-8.5h-9.5c-88.667 -5.33301 -163.667 -38 -225 -98
s-91.666 -136.333 -90.999 -229v-3v-3v-3.5v-3.5c4 -104 37.667 -186 101 -246s143 -89.333 239 -88c5.33301 0 10.833 0.166992 16.5 0.5s11.167 0.833008 16.5 1.5c30 4 58 11.333 84 22s42.667 22.334 50 35.001c1.33301 2 2.33301 3.83301 3 5.5
s1.33398 3.16699 2.00098 4.5c1.33301 5.33301 2.16602 11 2.49902 17s0.5 14.333 0.5 25v1z" />
    <glyph glyph-name="H" unicode="H" horiz-adv-x="891" 
d="M756 697c-0.666992 -2 -1.50391 -3.49609 -2.50391 -4.49609s-1.83301 -2.16699 -2.5 -3.5c-4 -6.66699 -6.16699 -13.167 -6.5 -19.5s-0.5 -13.5 -0.5 -21.5v-3.5v-3.5l1 -544v-4.5v-3.5c0 -8.66699 0.333008 -16.667 1 -24s4 -14.666 10 -21.999
c4 -5.33301 11.167 -9.83301 21.5 -13.5s21.166 -6.83398 32.499 -9.50098c2 -0.666992 3.83301 -1.33398 5.5 -2.00098s3.5 -1 5.5 -1c4.66699 -1.33301 9.5 -2.83301 14.5 -4.5l13.5 -4.5l21 -8h-338l23 7c5.33301 0.666992 11.5 2 18.5 4l21.5 6
c6.66699 2.66699 13.334 5.16699 20.001 7.5s12.667 4.83301 18 7.5c3.33301 1.33301 6.33301 3 9 5s4.66699 3.66699 6 5c1.33301 2 2.5 4 3.5 6s2.16699 4 3.5 6c1.33301 4 2.16602 8 2.49902 12s0.5 8 0.5 12v8.5v9.5v253h-427v-252c0 -11.333 0.5 -21.166 1.5 -29.499
s4.83301 -16.5 11.5 -24.5c4 -5.33301 11.167 -9.83301 21.5 -13.5s21.166 -6.83398 32.499 -9.50098c2 -0.666992 3.83301 -1.33398 5.5 -2.00098s3.5 -1 5.5 -1c5.33301 -1.33301 10.333 -2.83301 15 -4.5l13 -4.5l22 -8h-339l23 7c5.33301 0.666992 11.5 2 18.5 4l21.5 6
c6.66699 2.66699 13.334 5.16699 20.001 7.5s12.667 4.83301 18 7.5c3.33301 1.33301 6.33301 3 9 5s4.66699 3.66699 6 5l5.5 9.5c1.66699 3 2.83398 6.16699 3.50098 9.5s1.16699 6.66602 1.5 9.99902s0.5 6.33301 0.5 9v5.5v4.5c-0.666992 2 -1 3.83301 -1 5.5v4.5v539
v3.5c0 1.66699 0.333008 3.5 1 5.5v5v6c0 2.66699 -0.166992 5.16699 -0.5 7.5s-0.833008 4.83301 -1.5 7.5c-0.666992 4 -1.66699 7.83301 -3 11.5s-3.33301 7.16699 -6 10.5c-1.33301 1.33301 -3.33301 3 -6 5s-5.66699 3.66699 -9 5
c-5.33301 2.66699 -11.333 5.16699 -18 7.5s-13.334 4.83301 -20.001 7.5l-21.5 6c-7 2 -13.167 3.66699 -18.5 5l-23 8h339l-22 -9c-4 -2.66699 -8.66699 -4.66699 -14 -6s-11 -2.66602 -17 -3.99902c-1.33301 -0.666992 -2.66602 -1.16699 -3.99902 -1.5
s-2.66602 -0.833008 -3.99902 -1.5c-11.333 -2.66699 -22.166 -5.83398 -32.499 -9.50098s-17.5 -7.83398 -21.5 -12.501c-0.666992 -1.33301 -1.5 -2.5 -2.5 -3.5s-1.83301 -2.16699 -2.5 -3.5c-4 -7.33301 -6.33301 -14.833 -7 -22.5s-1 -16.167 -1 -25.5v-231h427v232
v9.5v9.5c0 6.66699 -0.5 12.834 -1.5 18.501s-3.83301 11.167 -8.5 16.5c-1.33301 1.33301 -3.33301 3 -6 5s-5.66699 3.66699 -9 5c-5.33301 2.66699 -11.333 5.16699 -18 7.5s-13.334 4.83301 -20.001 7.5l-21.5 6c-7 2 -13.167 3.66699 -18.5 5l-23 8h338l-21 -9
c-4 -2.66699 -8.66699 -4.66699 -14 -6s-11 -2.66602 -17 -3.99902c-1.33301 -0.666992 -2.66602 -1.16699 -3.99902 -1.5s-2.66602 -0.833008 -3.99902 -1.5c-11.333 -2.66699 -22.166 -5.83398 -32.499 -9.50098s-17.5 -7.83398 -21.5 -12.501v1z" />
    <glyph glyph-name="I" unicode="I" horiz-adv-x="389" 
d="M237 642l-0.00292969 -544.997c0 -11.333 0.5 -21.166 1.5 -29.499s4.83301 -16.5 11.5 -24.5c4 -5.33301 11.167 -9.83301 21.5 -13.5s21.166 -6.83398 32.499 -9.50098c2 -0.666992 3.83301 -1.33398 5.5 -2.00098s3.5 -1 5.5 -1
c5.33301 -1.33301 10.333 -2.83301 15 -4.5l13 -4.5l22 -8h-339l23 7c5.33301 0.666992 11.5 2 18.5 4l21.5 6c6.66699 2.66699 13.334 5.16699 20.001 7.5s12.667 4.83301 18 7.5c3.33301 1.33301 6.33301 3 9 5s4.66699 3.66699 6 5l5.5 9.5
c1.66699 3 2.83398 6.16699 3.50098 9.5s1.16699 6.66602 1.5 9.99902s0.5 6.33301 0.5 9v5.5v4.5c-0.666992 2 -1 3.83301 -1 5.5v4.5v539v3.5c0 1.66699 0.333008 3.5 1 5.5v5v6c0 2.66699 -0.166992 5.16699 -0.5 7.5s-0.833008 4.83301 -1.5 7.5
c-0.666992 4 -1.66699 7.83301 -3 11.5s-3.33301 7.16699 -6 10.5c-1.33301 1.33301 -3.33301 3 -6 5s-5.66699 3.66699 -9 5c-5.33301 2.66699 -11.333 5.16699 -18 7.5s-13.334 4.83301 -20.001 7.5l-21.5 6c-7 2 -13.167 3.66699 -18.5 5l-23 8h339l-22 -9
c-4 -2.66699 -8.66699 -4.66699 -14 -6s-11 -2.66602 -17 -3.99902c-1.33301 -0.666992 -2.66602 -1.16699 -3.99902 -1.5s-2.66602 -0.833008 -3.99902 -1.5c-11.333 -2.66699 -22.166 -5.83398 -32.499 -9.50098s-17.5 -7.83398 -21.5 -12.501
c-0.666992 -1.33301 -1.5 -2.5 -2.5 -3.5s-1.83301 -2.16699 -2.5 -3.5c-4 -7.33301 -6.33301 -14.833 -7 -22.5s-1 -16.167 -1 -25.5v1z" />
    <glyph glyph-name="J" unicode="J" horiz-adv-x="423" 
d="M262 233c0 -64.667 -5.1709 -117.001 -15.5039 -157.001s-39.833 -70.333 -88.5 -91c-11.333 -5.33301 -24.166 -9.83301 -38.499 -13.5s-29.833 -5.5 -46.5 -5.5h-3.5h-4.5l-36 1l26 12c2.66699 0.666992 5.16699 1.5 7.5 2.5s4.5 2.16699 6.5 3.5
c6.66699 2.66699 12.834 5.5 18.501 8.5s11.167 6.16699 16.5 9.5l11.5 8c3.66699 2.66699 7.5 5.66699 11.5 9c12.667 10.667 22.5 23.334 29.5 38.001s12.167 30 15.5 46c2 8.66699 3.33301 17.334 4 26.001s1 17 1 25v484v3.5c0 1.66699 0.333008 3.5 1 5.5v5v6
c0 2.66699 -0.166992 5.16699 -0.5 7.5s-0.833008 4.83301 -1.5 7.5c-0.666992 4 -1.66699 7.83301 -3 11.5s-3.33301 7.16699 -6 10.5c-1.33301 1.33301 -3.33301 3 -6 5s-5.66699 3.66699 -9 5c-5.33301 2.66699 -11.333 5.16699 -18 7.5s-13.334 4.83301 -20.001 7.5
l-21.5 6c-7 2 -13.167 3.66699 -18.5 5l-23 8h338l-21 -9c-4 -2.66699 -8.66699 -4.66699 -14 -6s-11 -2.66602 -17 -3.99902c-1.33301 -0.666992 -2.66602 -1.16699 -3.99902 -1.5s-2.66602 -0.833008 -3.99902 -1.5c-11.333 -2.66699 -22.166 -5.83398 -32.499 -9.50098
s-17.5 -7.83398 -21.5 -12.501c-0.666992 -1.33301 -1.5 -2.5 -2.5 -3.5s-1.83301 -2.16699 -2.5 -3.5c-4 -7.33301 -6.33301 -14.833 -7 -22.5s-1 -16.167 -1 -25.5v-408v0z" />
    <glyph glyph-name="K" unicode="K" horiz-adv-x="817" 
d="M237 367l-0.00390625 -269.997c0 -11.333 0.5 -21.166 1.5 -29.499s4.83301 -16.5 11.5 -24.5c4 -5.33301 11.167 -9.83301 21.5 -13.5s21.166 -6.83398 32.499 -9.50098c2 -0.666992 3.83301 -1.33398 5.5 -2.00098s3.5 -1 5.5 -1
c5.33301 -1.33301 10.333 -2.83301 15 -4.5l13 -4.5l22 -8h-339l23 7c5.33301 0.666992 11.5 2 18.5 4l21.5 6c6.66699 2.66699 13.334 5.16699 20.001 7.5s12.667 4.83301 18 7.5c3.33301 1.33301 6.33301 3 9 5s4.66699 3.66699 6 5l5.5 9.5
c1.66699 3 2.83398 6.16699 3.50098 9.5s1.16699 6.66602 1.5 9.99902s0.5 6.33301 0.5 9v5.5v4.5c-0.666992 2 -1 3.83301 -1 5.5v4.5v539v7v9v8.5c0 3 -0.333008 6.16699 -1 9.5c-0.666992 4 -1.66699 8 -3 12s-3.33301 7.66699 -6 11
c-1.33301 1.33301 -3.16602 3 -5.49902 5s-5.5 3.66699 -9.5 5c-4.66699 2.66699 -10.334 5.16699 -17.001 7.5l-21 7.5l-21.5 6c-7 2 -13.167 3.66699 -18.5 5l-23 8h339l-22 -9c-4 -2.66699 -8.66699 -4.66699 -14 -6s-11 -2.66602 -17 -3.99902
c-1.33301 -0.666992 -2.66602 -1.16699 -3.99902 -1.5s-2.66602 -0.833008 -3.99902 -1.5c-11.333 -2.66699 -22.166 -5.83398 -32.499 -9.50098s-17.5 -7.83398 -21.5 -12.501c-0.666992 -1.33301 -1.5 -2.5 -2.5 -3.5s-1.83301 -2.16699 -2.5 -3.5
c-4 -7.33301 -6.33301 -14.833 -7 -22.5s-1 -16.167 -1 -25.5v-244l173 164l17.5 15.5c6.33301 5.66699 12.5 11.5 18.5 17.5c2 1.33301 4 3 6 5l6 6c16.667 16 31.334 31.167 44.001 45.5s18.667 25.166 18 32.499v0.5v1.5c0 0.666992 -0.166992 1.16699 -0.5 1.5l-0.5 0.5
c-2.66699 4.66699 -6.83398 8.66699 -12.501 12s-11.834 6.33301 -18.501 9c-6 2.66699 -11.5 4.83398 -16.5 6.50098s-9.16699 3.16699 -12.5 4.5l-30 14h289l-29 -16c-2 -2 -4.33301 -3.33301 -7 -4s-5.33398 -1.66699 -8.00098 -3l-15.5 -4.5
c-5.66699 -1.66699 -11.167 -3.83398 -16.5 -6.50098c-3.33301 -1.33301 -6.5 -2.83301 -9.5 -4.5l-9.5 -5.5c-17.333 -11.333 -37.5 -28 -60.5 -50l-72.5 -69l-9.5 -9.5c-3 -3 -6.16699 -5.83301 -9.5 -8.5l-165 -152l200 -216c22 -24.667 45.5 -49.667 70.5 -75
s54.833 -50.666 89.5 -75.999c6 -4.66699 11.833 -8.5 17.5 -11.5l16.5 -8.5c4 -1.33301 8 -2.83301 12 -4.5s8.33301 -3.16699 13 -4.5c4.66699 -2 9.83398 -3.66699 15.501 -5s11.834 -3.33301 18.501 -6l35 -13l-46 -5h-2.5h-3.5h-1.5h-1.5
c-7.33301 0 -16.333 0.5 -27 1.5s-21.667 2.83301 -33 5.5c-13.333 2 -26 4.66699 -38 8s-21.333 6.66602 -28 9.99902l-42 27.5c-14.667 9.66699 -29.667 20.834 -45 33.501c-6 4.66699 -11.833 9.66699 -17.5 15s-11.167 11 -16.5 17l-255 274v0z" />
    <glyph glyph-name="L" unicode="L" horiz-adv-x="570" 
d="M237 642l-0.00488281 -544.995c0 -7.33301 0.666992 -14.333 2 -21s4.33301 -12.334 9 -17.001c4 -4 9.33301 -6.66699 16 -8s13.334 -2.33301 20.001 -3h5h4l123 1c4.66699 -0.666992 9.5 -0.833984 14.5 -0.500977s10.167 1.16602 15.5 2.49902
c6.66699 0.666992 13.334 2 20.001 4s12.334 4.66699 17.001 8c9.33301 6 16.333 13.667 21 23s9 19.666 13 30.999c0.666992 2.66699 1.5 5.16699 2.5 7.5s1.83301 4.5 2.5 6.5l13 37v-168h-509l23 7c5.33301 0.666992 11.5 2 18.5 4l21.5 6
c6.66699 2.66699 13.334 5.16699 20.001 7.5s12.667 4.83301 18 7.5c3.33301 1.33301 6.33301 3 9 5s4.66699 3.66699 6 5c1.33301 2 2.5 4 3.5 6s2.16699 4 3.5 6c1.33301 4 2.16602 8 2.49902 12s0.5 8 0.5 12v8.5v9.5v543v3.5c0 1.66699 0.333008 3.5 1 5.5v5v6
c0 2.66699 -0.166992 5.16699 -0.5 7.5s-0.833008 4.83301 -1.5 7.5c-0.666992 4 -1.66699 7.83301 -3 11.5s-3.33301 7.16699 -6 10.5c-1.33301 1.33301 -3.33301 3 -6 5s-5.66699 3.66699 -9 5c-5.33301 2.66699 -11.333 5.16699 -18 7.5s-13.334 4.83301 -20.001 7.5
l-21.5 6c-7 2 -13.167 3.66699 -18.5 5l-23 8h339l-22 -9c-4 -2.66699 -8.66699 -4.66699 -14 -6s-11 -2.66602 -17 -3.99902c-1.33301 -0.666992 -2.66602 -1.16699 -3.99902 -1.5s-2.66602 -0.833008 -3.99902 -1.5c-11.333 -2.66699 -22.166 -5.83398 -32.499 -9.50098
s-17.5 -7.83398 -21.5 -12.501c-0.666992 -1.33301 -1.5 -2.5 -2.5 -3.5s-1.83301 -2.16699 -2.5 -3.5c-4 -7.33301 -6.33301 -14.833 -7 -22.5s-1 -16.167 -1 -25.5v1z" />
    <glyph glyph-name="M" unicode="M" horiz-adv-x="1116" 
d="M255 653c13.333 -28.667 31.001 -62.8359 53.001 -102.503l69 -123.5l7.5 -13.5c2.33301 -4.33301 4.83301 -8.5 7.5 -12.5l97.5 -165.5c30.333 -50.333 49.833 -81.166 58.5 -92.499c21.333 34.667 51.333 87.834 90 159.501l122 227.5l6 10.5l6 10.5l18.5 34l18.5 34
l14.5 28l12.5 26c0.666992 2 1.5 4 2.5 6s1.83301 4 2.5 6c4 8 7.83301 16.5 11.5 25.5s7.83398 18.5 12.501 28.5l55 1c0.666992 -12 1.33398 -23 2.00098 -33s1.33398 -19.333 2.00098 -28c0 -2.66699 0.166992 -5.16699 0.5 -7.5s0.5 -4.5 0.5 -6.5
c0.666992 -11.333 1.5 -23 2.5 -35s2.16699 -25 3.5 -39c2 -24.667 4.33301 -50.834 7 -78.501l8 -83.5l19 -217c6 -66 9.33301 -99.667 10 -101c0 -2 0.166992 -3.83301 0.5 -5.5s0.5 -3.5 0.5 -5.5c1.33301 -10 3.16602 -19.5 5.49902 -28.5s4.83301 -16.5 7.5 -22.5
c3.33301 -6 10 -11.5 20 -16.5s20.667 -9.5 32 -13.5c5.33301 -2 10.5 -3.83301 15.5 -5.5s9.83301 -3.5 14.5 -5.5l21 -8h-311l33 13c2.66699 0 5.16699 0.5 7.5 1.5s4.83301 1.83301 7.5 2.5c0.666992 0 1.16699 0.166992 1.5 0.5s0.833008 0.5 1.5 0.5
c10.667 3.33301 20.834 7 30.501 11s16.167 9 19.5 15c5.33301 8.66699 8.83301 16.667 10.5 24s2.5 14.333 2.5 21c0 4 -0.166992 8 -0.5 12s-0.833008 7.66699 -1.5 11c-0.666992 2.66699 -1.16699 5.16699 -1.5 7.5s-0.5 4.83301 -0.5 7.5l-41 454l-57 -102.5l-83 -150.5
l-59 -109.5l-51 -93.5c-2.66699 -4.66699 -5.16699 -9.33398 -7.5 -14.001l-7.5 -15c-0.666992 -2 -1.66699 -4.16699 -3 -6.5s-2.66602 -4.83301 -3.99902 -7.5l-27.5 -57.5l-15.5 -32.5c-2.66699 5.33301 -7.83398 14.666 -15.501 27.999l-23.5 43
c-0.666992 0.666992 -1 1.16699 -1 1.5v0.5c-2.66699 5.33301 -5.33398 10.333 -8.00098 15l-8 14c-73.333 136 -133.666 243 -180.999 321s-75.666 125.333 -84.999 142l-28 -382c0 -3.33301 -0.333008 -7 -1 -11s-1 -8.66699 -1 -14
c-0.666992 -6.66699 -1.33398 -14 -2.00098 -22s-1 -16 -1 -24v-4v-3c0 -10 0.833008 -19.667 2.5 -29s4.5 -17.333 8.5 -24c3.33301 -5.33301 9 -10 17 -14s16.667 -7.66699 26 -11c1.33301 0 2.66602 -0.333008 3.99902 -1s2.66602 -1 3.99902 -1
c2.66699 -1.33301 5.5 -2.5 8.5 -3.5s5.83301 -2.16699 8.5 -3.5l28 -10h-261l17 8c2 0 3.83301 0.333008 5.5 1s3.5 1.33398 5.5 2.00098c2 1.33301 4 2.33301 6 3l6 2c11.333 4.66699 22 9.5 32 14.5s17 10.833 21 17.5c3.33301 6.66699 6 18.834 8 36.501
s3.66699 36.5 5 56.5c0 4.66699 0.166992 9.16699 0.5 13.5s0.5 8.83301 0.5 13.5c2.66699 22.667 5.16699 46.5 7.5 71.5s4.16602 50.167 5.49902 75.5c4 53.333 7.16699 104.333 9.5 153s4.5 86.334 6.5 113.001c1.33301 17.333 2.16602 33.333 2.49902 48
s0.5 29.334 0.5 44.001v19v20v13.5v13.5l58 1c2 -6.66699 4.5 -14.5 7.5 -23.5s6.5 -18.5 10.5 -28.5l4 -12c1.33301 -4 3 -8 5 -12c0.666992 -2 1.5 -4 2.5 -6s1.83301 -4 2.5 -6v1z" />
    <glyph glyph-name="N" unicode="N" horiz-adv-x="935" 
d="M769 -2l-99.498 110.504l-31.5 34.5l-14 14l-27 28l-42 44l-43 45c-2.66699 3.33301 -5.66699 6.5 -9 9.5s-6.33301 6.16699 -9 9.5l-186 190.5l-126 125.5v-432v-9.5v-11.5c-0.666992 -4 -1 -8.5 -1 -13.5v-15.5v-12v-12
c0.666992 -10.667 1.83398 -21.334 3.50098 -32.001s4.16699 -19.334 7.5 -26.001s9.83301 -12.334 19.5 -17.001s19.834 -9 30.501 -13l9 -3.5c2.66699 -1 5.33398 -1.83301 8.00098 -2.5l28 -9h-261l17 8c3.33301 0.666992 6.5 1.66699 9.5 3s6.16699 2.66602 9.5 3.99902
c11.333 4.66699 22.166 9.66699 32.499 15s17.5 11.666 21.5 18.999c3.33301 6 5.5 16.5 6.5 31.5s1.83301 31.167 2.5 48.5v24v22v565h58l26 -33.5c10 -13 23.333 -28.167 40 -45.5l92.5 -95l102.5 -106l198.5 -207c61.667 -64 99.5 -102.333 113.5 -115v426v15.5v17.5
v17.5v16.5c0 13.333 -0.333008 25.5 -1 36.5s-2.33398 18.833 -5.00098 23.5c-3.33301 6.66699 -9.83301 12.334 -19.5 17.001s-19.834 9 -30.501 13l-3 1.5c-0.666992 0.333008 -1.33398 0.5 -2.00098 0.5l-10 4l-10 4l-17 9h261l-28 -12
c-2 -1.33301 -3.83301 -2.33301 -5.5 -3s-3.5 -1.33398 -5.5 -2.00098c-10.667 -4.66699 -20.167 -9.16699 -28.5 -13.5s-15.833 -9.83301 -22.5 -16.5c-3.33301 -3.33301 -5.83301 -11.166 -7.5 -23.499s-2.83398 -25.5 -3.50098 -39.5c-0.666992 -8 -1 -15.833 -1 -23.5
v-20.5v-15.5v-5.5v-567h-48v0z" />
    <glyph glyph-name="O" unicode="O" horiz-adv-x="845" 
d="M405 754c1.33301 -0.666992 2.83105 -1 4.49805 -1h5.5h4.5h4.5c104.667 0 195.334 -34.333 272.001 -103s116.334 -161 119.001 -277c1.33301 -116.667 -39 -210.167 -121 -280.5s-178.667 -104.833 -290 -103.5c-104.667 0.666992 -193.5 38.167 -266.5 112.5
s-109.5 164.833 -109.5 271.5c0 104 37 192.333 111 265s162.667 111 266 115v1zM403.998 698c-90.667 -3.33301 -162.5 -36.833 -215.5 -100.5s-79.167 -137.834 -78.5 -222.501c1.33301 -81.333 30 -155.666 86 -222.999s127.333 -103.666 214 -108.999h5.5h4.5
c1.33301 -0.666992 2.83301 -1 4.5 -1h5.5c81.333 0 152 29.167 212 87.5s90 133.5 90 225.5c0 90 -30.5 169.667 -91.5 239s-136.167 103.666 -225.5 102.999h-2.5h-2.5h-3h-3v1z" />
    <glyph glyph-name="P" unicode="P" horiz-adv-x="641" 
d="M611 513l-0.000976562 -2.50098v-0.5v-1.5v-1.5c0 -56 -24.833 -104.667 -74.5 -146s-104.167 -64 -163.5 -68c-3.33301 -0.666992 -6.5 -1 -9.5 -1h-9.5c-8.66699 0 -17.167 0.5 -25.5 1.5s-16.833 2.5 -25.5 4.5l-36 9v-210c0 -11.333 0.5 -21.166 1.5 -29.499
s4.83301 -16.5 11.5 -24.5c4 -5.33301 11 -9.66602 21 -12.999s20.667 -6.66602 32 -9.99902c2 -0.666992 4 -1.16699 6 -1.5s4 -0.833008 6 -1.5c5.33301 -1.33301 10.333 -2.83301 15 -4.5l13 -4.5l22 -8h-339l23 7c5.33301 0.666992 11.5 2 18.5 4l21.5 6
c6.66699 2.66699 13.334 5.16699 20.001 7.5s12.667 4.83301 18 7.5c3.33301 1.33301 6.33301 3 9 5s4.66699 3.66699 6 5l5.5 9.5c1.66699 3 2.83398 6.16699 3.50098 9.5s1.16699 6.66602 1.5 9.99902s0.5 6.33301 0.5 9v5.5v4.5c-0.666992 2 -1 3.83301 -1 5.5v4.5v542
c0 8.66699 -0.5 16.667 -1.5 24s-4.16699 14.333 -9.5 21c-4.66699 5.33301 -12.167 10.5 -22.5 15.5s-21.166 9.83301 -32.499 14.5l-19.5 7.5l-17.5 6.5l-22 9h182c10 -0.666992 19.667 -0.833984 29 -0.500977s18.333 0.5 27 0.5h5h4c7.33301 0.666992 14.833 1 22.5 1
h23.5h21c7.33301 0 14.666 -0.333008 21.999 -1c7.33301 0 15 -0.666992 23 -2s16 -3 24 -5c41.333 -10 79.666 -33 114.999 -69s54 -86.667 56 -152v1zM364.999 684.999c-2 -0.666992 -4.00098 -1.00195 -6.00098 -1.00195h-7h-9.5h-9.5
c-11.333 -0.666992 -22.166 -1.66699 -32.499 -3s-17.5 -3.33301 -21.5 -6c-6 -4 -9.5 -9.33301 -10.5 -16s-1.5 -13.667 -1.5 -21v-1.5v-1.5v-279l30 -4c8 -2 15.833 -3.33301 23.5 -4s15.167 -1 22.5 -1c51.333 0 95 14.667 131 44s54 70.333 54 123v5.5v4.5
c-2 44.667 -14.667 78.834 -38 102.501s-48.333 39.834 -75 48.501c-8.66699 2.66699 -17.167 4.66699 -25.5 6s-16.5 2.33301 -24.5 3v1z" />
    <glyph glyph-name="Q" unicode="Q" horiz-adv-x="859" 
d="M511 -8l-24 -5.99902l9 -17c2 -3.33301 6 -7.5 12 -12.5s13.333 -10.167 22 -15.5c7.33301 -4 15 -7.83301 23 -11.5l24 -10.5c17.333 -7.33301 33.5 -13.666 48.5 -18.999s29.833 -9.66602 44.5 -12.999c19.333 -5.33301 39.166 -9.5 59.499 -12.5
s42.833 -5.5 67.5 -7.5c2.66699 0 5.33398 -0.166992 8.00098 -0.5s5 -0.5 7 -0.5h3h3c3.33301 0 7 -0.166992 11 -0.5s8.33301 -0.833008 13 -1.5l37 -4l-30 -13c-2 -0.666992 -3.83301 -1.33398 -5.5 -2.00098s-3.5 -1 -5.5 -1c-6.66699 -2 -13.667 -3.16699 -21 -3.5
s-15.333 -0.5 -24 -0.5h-4h-4h-4h-4h-13.5h-13.5c-66 0 -128.333 7.83301 -187 23.5s-106.334 35.167 -143.001 58.5c-4.66699 2.66699 -9 5.5 -13 8.5s-8 5.83301 -12 8.5c-5.33301 4 -10.333 8 -15 12l-14 12c-4.66699 4 -9.16699 8.33301 -13.5 13l-14.5 15l-20 4
c-8.66699 2 -17.5 4.16699 -26.5 6.5s-18.167 5.5 -27.5 9.5c-58.667 24 -112.667 65.5 -162 124.5s-74 135.167 -74 228.5c0 105.333 37.333 194 112 266s164.334 111.667 269.001 119c2 0 4.16699 0.166992 6.5 0.5s4.5 0.5 6.5 0.5h6.5h6.5h8.5h8.5
c93.333 -4.66699 178.833 -40.5 256.5 -107.5s116.167 -155.167 115.5 -264.5v-3v-3v-3.5v-3.5c-4 -102.667 -34.167 -185.334 -90.5 -248.001s-130.5 -104.334 -222.5 -125.001v0zM408 693.001c-90.667 -3.33301 -162.666 -36.166 -215.999 -98.499
s-80 -135.833 -80 -220.5v-2v-2v-2v-2c1.33301 -92.667 30.666 -169.334 87.999 -230.001s128.333 -94.667 213 -102c2 0 4 -0.166992 6 -0.5s4 -0.5 6 -0.5h5h6c76.667 0.666992 146.334 30.167 209.001 88.5s94 133.5 94 225.5
c0.666992 91.333 -29.833 171.833 -91.5 241.5s-137.834 104.167 -228.501 103.5h-2.5h-2.5h-3h-3v1z" />
    <glyph glyph-name="R" unicode="R" horiz-adv-x="764" 
d="M380 344l-19.9961 -3.99902l111 -123l33.5 -38.5l30.5 -34.5c2.66699 -3.33301 5.5 -6.5 8.5 -9.5s5.83301 -6.16699 8.5 -9.5c8 -8.66699 16.5 -17.334 25.5 -26.001l28.5 -28c6 -5.33301 11.167 -10.166 15.5 -14.499s8.83301 -8.5 13.5 -12.5
c2.66699 -2 5.16699 -4 7.5 -6s5.16602 -4 8.49902 -6c6 -4 12.833 -8.16699 20.5 -12.5s17.5 -9.5 29.5 -15.5l27 -12l-33 -8c-1.33301 -0.666992 -3 -1 -5 -1h-7c-10.667 0 -23.834 1.83301 -39.501 5.5s-31.834 8.16699 -48.501 13.5
c-18.667 7.33301 -41.167 24.333 -67.5 51l-81.5 86c-0.666992 0.666992 -1.33398 1.16699 -2.00098 1.5s-1 0.833008 -1 1.5c-6 6 -11.667 12 -17 18l-16 18l-146 156h-27v-237c0 -11.333 0.5 -21.166 1.5 -29.499s4.83301 -16.5 11.5 -24.5
c4 -5.33301 11.167 -9.83301 21.5 -13.5s21.166 -6.83398 32.499 -9.50098c2 -0.666992 3.83301 -1.33398 5.5 -2.00098s3.5 -1 5.5 -1c5.33301 -1.33301 10.333 -2.83301 15 -4.5l13 -4.5l22 -8h-339l23 7c5.33301 0.666992 11.5 2 18.5 4l21.5 6l21 7.5
c6.66699 2.33301 12.334 4.83301 17.001 7.5c4 1.33301 7.16699 3 9.5 5s4.16602 3.66699 5.49902 5c3.33301 4 5.66602 8.5 6.99902 13.5s2.33301 10.167 3 15.5v11.5v11.5v3v3v542c0 8.66699 -0.5 16.667 -1.5 24s-4.16699 14.333 -9.5 21
c-4.66699 5.33301 -12.167 10.5 -22.5 15.5s-21.166 9.83301 -32.499 14.5l-19.5 7.5l-17.5 6.5l-22 9h182c10 -0.666992 19.333 -0.833984 28 -0.500977s17.334 0.833008 26.001 1.5h4h4c7.33301 0 14.666 0.166992 21.999 0.5s15 0.5 23 0.5
c7.33301 0 14.833 -0.166992 22.5 -0.5s15.834 -0.833008 24.501 -1.5l15.5 -2l15.5 -2c40 -8.66699 77 -29.667 111 -63s51 -79.666 51 -138.999c0 -45.333 -11.167 -81 -33.5 -107s-46.833 -45.667 -73.5 -59c-12 -6 -24 -11 -36 -15s-23 -7.33301 -33 -10v1z
M334.004 695.001c-2 -0.666992 -3.83105 -1.00098 -5.49805 -1.00098s-3.16699 0.333008 -4.5 1h-5.5h-5.5h-2h-2c-12.667 0 -24.834 -0.833008 -36.501 -2.5s-19.5 -3.83398 -23.5 -6.50098c-6 -4 -9.5 -9.33301 -10.5 -16s-1.5 -13.667 -1.5 -21v-1.5v-1.5v-270l47 1
c52.667 0 98 14.5 136 43.5s56.667 67.167 56 114.5v6v6c-3.33301 40.667 -17.833 73.834 -43.5 99.501s-53.834 40.834 -84.501 45.501c-2 0.666992 -4.16699 1.16699 -6.5 1.5s-4.83301 0.5 -7.5 0.5v1z" />
    <glyph glyph-name="S" unicode="S" horiz-adv-x="490" 
d="M260 755c24 -0.666992 47.166 -2.50195 69.499 -5.50195s40.833 -6.5 55.5 -10.5c1.33301 0 2.83301 -0.166992 4.5 -0.5s3.16699 -0.833008 4.5 -1.5l20 -5l2 -193l-42 102c-9.33301 23.333 -23.666 38.833 -42.999 46.5s-44.333 12.167 -75 13.5h-2h-2h-2h-2
c-40.667 0 -74.834 -13.833 -102.501 -41.5s-41.5 -60.834 -41.5 -99.501c0 -25.333 8.16699 -47.166 24.5 -65.499s34.166 -33.833 53.499 -46.5c10.667 -6.66699 20.834 -12.5 30.501 -17.5s18.167 -9.16699 25.5 -12.5l15.5 -8l15.5 -8
c48.667 -24.667 91.834 -51.667 129.501 -81s57.167 -71.666 58.5 -126.999c1.33301 -66.667 -20.334 -117.667 -65.001 -153s-101.667 -53.333 -171 -54h-10c-3.33301 0 -6.66602 0.333008 -9.99902 1c-11.333 0.666992 -22.666 1.83398 -33.999 3.50098
s-21.666 3.5 -30.999 5.5c-8 2 -15.333 3.66699 -22 5s-12 2.33301 -16 3l-43 12l-5 190l34 -88c9.33301 -25.333 24.166 -43.333 44.499 -54s41.833 -17.667 64.5 -21c4 -0.666992 7.83301 -1.16699 11.5 -1.5s7.16699 -0.833008 10.5 -1.5c2 0 3.83301 -0.166992 5.5 -0.5
s3.16699 -0.5 4.5 -0.5h4.5h5.5c39.333 0 74.166 12 104.499 36s45.166 54.667 44.499 92v2v2v1v2c-2 35.333 -13.833 62.5 -35.5 81.5s-47.5 36.167 -77.5 51.5l-26.5 14l-27.5 15l-34.5 19l-32.5 18c-33.333 19.333 -60.666 41 -81.999 65s-33.333 59.333 -36 106v2.5v2.5
v2.5v2.5c0 62 23.5 110.5 70.5 145.5s99.5 52.833 157.5 53.5v1z" />
    <glyph glyph-name="T" unicode="T" horiz-adv-x="624" 
d="M26 756l41.9951 -16h472l52 19l-2 -224l-16 53c-0.666992 0.666992 -1.16699 1.5 -1.5 2.5s-0.5 1.83301 -0.5 2.5c-1.33301 4 -2.5 8 -3.5 12s-2.16699 8 -3.5 12c-4.66699 13.333 -9.66699 25.833 -15 37.5s-12.666 19.167 -21.999 22.5
c-3.33301 1.33301 -6.66602 2.33301 -9.99902 3s-6.66602 1 -9.99902 1c-3.33301 0.666992 -6.66602 1 -9.99902 1h-11h-3.5h-3.5l-132 1v-586c0 -11.333 0.5 -21.166 1.5 -29.499s4.83301 -16.5 11.5 -24.5c4 -5.33301 11.167 -9.83301 21.5 -13.5
s21.166 -6.83398 32.499 -9.50098c2 -0.666992 3.83301 -1.33398 5.5 -2.00098s3.5 -1 5.5 -1c5.33301 -1.33301 10.333 -2.83301 15 -4.5l13 -4.5l22 -8h-339l23 7c5.33301 0.666992 11.5 2 18.5 4l21.5 6c6.66699 2.66699 13.334 5.16699 20.001 7.5
s12.667 4.83301 18 7.5c3.33301 1.33301 6.33301 3 9 5s4.66699 3.66699 6 5l5.5 9.5c1.66699 3 2.83398 6.16699 3.50098 9.5s1.16699 6.66602 1.5 9.99902s0.5 6.33301 0.5 9v5.5v4.5c-0.666992 2 -1 3.83301 -1 5.5v4.5v583h-155c-3.33301 -0.666992 -6.5 -1 -9.5 -1
s-5.83301 -0.333008 -8.5 -1c-1.33301 -0.666992 -2.83301 -1.33398 -4.5 -2.00098s-3.16699 -1.33398 -4.5 -2.00098c-8 -5.33301 -14.333 -14.666 -19 -27.999s-8.66699 -27.666 -12 -42.999c-0.666992 -2 -1.16699 -4.16699 -1.5 -6.5s-0.833008 -4.5 -1.5 -6.5
c-0.666992 -3.33301 -1.5 -6.66602 -2.5 -9.99902s-1.83301 -6.66602 -2.5 -9.99902l-11 -34l-5 217v0z" />
    <glyph glyph-name="U" unicode="U" horiz-adv-x="882" 
d="M726 603l-0.00195312 -313.001c0 -115.333 -29.667 -195.166 -89 -239.499s-127 -66.166 -203 -65.499c-72.667 0.666992 -137.834 23.667 -195.501 69s-86.5 119.666 -86.5 222.999v362v3.5c0 1.66699 0.333008 3.5 1 5.5v5v6c0 2.66699 -0.166992 5.16699 -0.5 7.5
s-0.833008 4.83301 -1.5 7.5c-0.666992 4 -1.66699 7.83301 -3 11.5s-3.33301 7.16699 -6 10.5c-1.33301 1.33301 -3.33301 3 -6 5s-5.66699 3.66699 -9 5c-5.33301 2.66699 -11.333 5.16699 -18 7.5s-13.334 4.83301 -20.001 7.5l-21.5 6c-7 2 -13.167 3.66699 -18.5 5
l-23 8h339l-22 -9c-4 -2.66699 -8.66699 -4.66699 -14 -6s-11 -2.66602 -17 -3.99902c-1.33301 -0.666992 -2.66602 -1.16699 -3.99902 -1.5s-2.66602 -0.833008 -3.99902 -1.5c-11.333 -2.66699 -22.166 -5.83398 -32.499 -9.50098s-17.5 -7.83398 -21.5 -12.501
c-0.666992 -1.33301 -1.5 -2.5 -2.5 -3.5s-1.83301 -2.16699 -2.5 -3.5c-4 -7.33301 -6.33301 -14.833 -7 -22.5s-1 -16.167 -1 -25.5v-367c0 -80 18.167 -137.333 54.5 -172s82.833 -56.334 139.5 -65.001c5.33301 -0.666992 10.333 -1.16699 15 -1.5
s9.33398 -0.5 14.001 -0.5c55.333 0 104 20.5 146 61.5s63 95.833 63 164.5v374v0.5v1.5v14.5c0 5 -0.666992 10.167 -2 15.5c-0.666992 4 -1.83398 8 -3.50098 12s-3.83398 8 -6.50098 12c-1.33301 1.33301 -3.33301 2.83301 -6 4.5s-6 3.5 -10 5.5
c-4.66699 2 -10.167 4.16699 -16.5 6.5l-19.5 7.5c-8 2 -15.5 4.33301 -22.5 7l-18.5 7l-23 11h312l-20 -11c-5.33301 -3.33301 -11.5 -6 -18.5 -8s-14.167 -4.33301 -21.5 -7c-11.333 -3.33301 -22.166 -6.83301 -32.499 -10.5s-17.166 -7.83398 -20.499 -12.501
c-2.66699 -3.33301 -4.83398 -9.16602 -6.50098 -17.499s-3.16699 -17.166 -4.5 -26.499c-1.33301 -10 -2.16602 -19.167 -2.49902 -27.5s-0.5 -14.166 -0.5 -17.499v1z" />
    <glyph glyph-name="V" unicode="V" horiz-adv-x="855" 
d="M247 629l198.998 -502.004l185 503c1.33301 2 2.5 4.5 3.5 7.5s1.83301 6.16699 2.5 9.5c2 6.66699 3.5 13.167 4.5 19.5s1.5 11.5 1.5 15.5v3c0 0.666992 -0.333008 1.33398 -1 2.00098c-2 6.66699 -7.66699 12.667 -17 18s-19.333 10 -30 14
c-4 2 -7.66699 3.66699 -11 5l-10 4l-27 12h279l-22 -8c-1.33301 -1.33301 -2.83301 -2.16602 -4.5 -2.49902s-3.16699 -0.833008 -4.5 -1.5l-13 -4.5l-13 -4.5c-12 -3.33301 -23 -7.33301 -33 -12s-16.667 -10 -20 -16l-6 -10l-6 -10l-6.5 -13
c-2.33301 -4.66699 -4.5 -9.66699 -6.5 -15c-6 -12.667 -19 -45.834 -39 -99.501l-64 -175.5c-0.666992 -2.66699 -1.5 -5.16699 -2.5 -7.5s-1.83301 -4.5 -2.5 -6.5l-64 -181.5c-19.333 -56.333 -31.333 -91.833 -36 -106.5l-5.5 -19c-1.66699 -6 -3.5 -12 -5.5 -18v-0.5
v-0.5c-1.33301 -6 -3 -12.167 -5 -18.5l-6 -19.5h-51c-2.66699 6 -5.16699 11.333 -7.5 16s-4.5 9.66699 -6.5 15l-6 14.5c-2 5 -4 10.5 -6 16.5c-9.33301 28.667 -23.666 68 -42.999 118l-62 157c-0.666992 2.66699 -1.66699 5.5 -3 8.5s-2.66602 6.16699 -3.99902 9.5
l-74.5 183l-44.5 108c-2 4 -3.66699 7.83301 -5 11.5l-4 10.5c-0.666992 0.666992 -1 1.5 -1 2.5s-0.333008 1.83301 -1 2.5c-1.33301 3.33301 -2.83301 6.83301 -4.5 10.5s-3.5 7.5 -5.5 11.5c-3.33301 6 -9.16602 11.167 -17.499 15.5s-17.833 8.5 -28.5 12.5
c-0.666992 0 -1.5 0.333008 -2.5 1s-2.16699 1 -3.5 1l-14.5 6c-5 2 -9.83301 4.33301 -14.5 7l-20 12h295l-25 -11c-4 -2 -8.33301 -3.83301 -13 -5.5l-15 -5.5c-9.33301 -3.33301 -17.833 -7.16602 -25.5 -11.499s-12.5 -9.83301 -14.5 -16.5v-1.5v-0.5
c-0.666992 -0.666992 -1 -1.16699 -1 -1.5v-1.5c0 -4 0.666992 -8.5 2 -13.5s2.66602 -10.5 3.99902 -16.5c0.666992 -1.33301 1.16699 -2.66602 1.5 -3.99902s0.833008 -2.66602 1.5 -3.99902l3.5 -10.5c1 -3 1.83301 -5.83301 2.5 -8.5v1z" />
    <glyph glyph-name="W" unicode="W" horiz-adv-x="1284" 
d="M703 617l5.49609 -13.002c1.66699 -4 3.16699 -8 4.5 -12l102.5 -244c32.333 -78 59.833 -139.667 82.5 -185l165 468c1.33301 2 2.5 4.66699 3.5 8s1.83301 6.33301 2.5 9c2 7.33301 3.66699 14.333 5 21s2 12 2 16v1.5v1.5c-0.666992 0.666992 -1 1.16699 -1 1.5v0.5
c-2 6 -7.66699 11.5 -17 16.5s-19.666 9.5 -30.999 13.5c-3.33301 1.33301 -6.5 2.66602 -9.5 3.99902s-6.16699 2.66602 -9.5 3.99902l-27 12h278l-22 -8c-1.33301 -1.33301 -2.83301 -2.16602 -4.5 -2.49902s-3.16699 -0.833008 -4.5 -1.5l-13 -4.5l-13 -4.5
c-12 -3.33301 -23 -7.33301 -33 -12s-16.667 -10 -20 -16l-6 -10c-2 -3.33301 -3.66699 -6.66602 -5 -9.99902c-2.66699 -4 -5 -8.33301 -7 -13s-4 -9.66699 -6 -15c-6 -12.667 -18.5 -45.667 -37.5 -99l-60.5 -174c-0.666992 -2 -1.33398 -4.16699 -2.00098 -6.5
s-1.66699 -4.5 -3 -6.5l-60 -179.5l-35 -105.5c-2 -7.33301 -3.66699 -14.166 -5 -20.499s-2.33301 -12.5 -3 -18.5c0 -3.33301 -0.166992 -6.5 -0.5 -9.5s-0.5 -6.16699 -0.5 -9.5c0 -4 -0.166992 -7.83301 -0.5 -11.5s-0.833008 -7.83398 -1.5 -12.501h-49l-5.5 16
l-5.5 15c-0.666992 1.33301 -1.16699 2.83301 -1.5 4.5s-0.833008 3.16699 -1.5 4.5c-1.33301 3.33301 -2.5 6.83301 -3.5 10.5s-2.16699 7.5 -3.5 11.5c-8 24.667 -18 53.167 -30 85.5l-38 98.5c-2 4.66699 -3.83301 9.33398 -5.5 14.001s-3.5 9 -5.5 13l-57 142
c-18 43.333 -30 71.333 -36 84l-33 73l-35 -85c-4 -10 -12.833 -34.667 -26.5 -74l-43.5 -127c0 -1.33301 -0.166992 -2.5 -0.5 -3.5s-0.833008 -1.83301 -1.5 -2.5l-41 -122.5l-26 -78.5l-5.5 -20c-1.66699 -6 -3.16699 -12 -4.5 -18
c0 -1.33301 -0.166992 -2.83301 -0.5 -4.5s-0.833008 -3.16699 -1.5 -4.5c-0.666992 -5.33301 -1.66699 -10.5 -3 -15.5s-2.66602 -10.5 -3.99902 -16.5h-49l-5.5 16c-1.66699 4.66699 -3.16699 9.66699 -4.5 15c-1.33301 4.66699 -2.83301 9.5 -4.5 14.5l-5.5 16.5
c-9.33301 28.667 -23.666 68 -42.999 118l-62 157c-0.666992 2.66699 -1.66699 5.5 -3 8.5s-2.66602 6.16699 -3.99902 9.5l-74.5 183l-44.5 108l-3.5 9c-1 2.66699 -2.16699 5.33398 -3.5 8.00098c-0.666992 2 -1.16699 3.66699 -1.5 5s-1.16602 3 -2.49902 5
c-1.33301 3.33301 -2.83301 6.83301 -4.5 10.5s-3.5 7.5 -5.5 11.5c-3.33301 6 -9.16602 11.167 -17.499 15.5s-17.833 8.5 -28.5 12.5c-0.666992 0 -1.5 0.333008 -2.5 1s-2.16699 1 -3.5 1l-14.5 6c-5 2 -9.83301 4.33301 -14.5 7l-20 12h304l-26 -11c-4 -2 -9 -4 -15 -6
s-12.333 -4 -19 -6c-9.33301 -3.33301 -18.166 -7.33301 -26.499 -12s-13.5 -10.334 -15.5 -17.001c-0.666992 -1.33301 -1 -2.83301 -1 -4.5v-6.5c0 -3.33301 0.166992 -7 0.5 -11s0.833008 -8.33301 1.5 -13l4 -16c1.33301 -5.33301 2.66602 -10 3.99902 -14l198 -471
l51.5 141.5l77.5 213.5l19.5 55.5l19.5 54.5l13 37c4 11.333 7.66699 22.333 11 33l1 1v1l12 33.5l13 38.5l9.5 -30.5l8.5 -27.5c0.666992 -3.33301 1.66699 -6.66602 3 -9.99902s2.33301 -6.66602 3 -9.99902c3.33301 -10.667 7.16602 -21.334 11.499 -32.001l14.5 -35v1z
" />
    <glyph glyph-name="X" unicode="X" horiz-adv-x="745" 
d="M382 440l103.001 187.001c1.33301 1.33301 2.66602 3.16602 3.99902 5.49902s2.66602 4.83301 3.99902 7.5c5.33301 10.667 9.83301 21 13.5 31s5.16699 16.333 4.5 19c-2.66699 6.66699 -8.83398 12.5 -18.501 17.5s-19.834 9.83301 -30.501 14.5
c-2.66699 0.666992 -5.33398 1.5 -8.00098 2.5s-5.33398 2.16699 -8.00098 3.5l-27 12h284l-22 -8c-3.33301 -2 -6.66602 -3.5 -9.99902 -4.5s-6.66602 -2.16699 -9.99902 -3.5c-6.66699 -2 -13.5 -4.16699 -20.5 -6.5s-14.167 -5.16602 -21.5 -8.49902l-15 -9
c-5.33301 -3.33301 -10.666 -7.33301 -15.999 -12c-7.33301 -6.66699 -14.5 -14.667 -21.5 -24s-13.833 -19.666 -20.5 -30.999l-138 -242l172 -283c6.66699 -11.333 13.167 -21.833 19.5 -31.5s11.833 -18.834 16.5 -27.501c3.33301 -6.66699 10.666 -12.667 21.999 -18
s23 -10.333 35 -15l10 -4c3.33301 -1.33301 6.33301 -2.66602 9 -3.99902l21 -8h-279l25 10c0.666992 -0.666992 1.33398 -0.833984 2.00098 -0.500977l3 1.5l4 2c1.33301 0.666992 2.66602 1 3.99902 1c8.66699 4 16.834 8.33301 24.501 13s12.834 11.334 15.501 20.001v2
v2c0 3.33301 -0.833008 7.66602 -2.5 12.999s-3.83398 11 -6.50098 17c-0.666992 2 -1.66699 4.16699 -3 6.5s-2.33301 4.83301 -3 7.5c-1.33301 2.66699 -2.66602 5.16699 -3.99902 7.5s-2.66602 4.5 -3.99902 6.5l-124 208l-118 -208l-6 -11.5
c-2 -3.66699 -4.33301 -7.5 -7 -11.5c0 -0.666992 -0.166992 -1 -0.5 -1s-0.5 -0.333008 -0.5 -1c-4.66699 -8 -8.83398 -15.667 -12.501 -23s-5.16699 -12 -4.5 -14c2.66699 -6.66699 8 -12.334 16 -17.001s17 -9.33398 27 -14.001c2 -0.666992 4.33301 -1.5 7 -2.5
s5.33398 -2.16699 8.00098 -3.5l27 -10h-273l22 8c3.33301 0.666992 6.83301 1.5 10.5 2.5s7.16699 2.16699 10.5 3.5l20 6c6.66699 2 13.667 4.66699 21 8c4.66699 2.66699 9.66699 5.83398 15 9.50098s10.666 7.83398 15.999 12.501c7.33301 7.33301 14.333 15.5 21 24.5
s13.334 19.167 20.001 30.5l152 259l-166 271c-3.33301 5.33301 -7 10.5 -11 15.5l-12 14.5l-13 11.5l-11 10.5c-3.33301 3.33301 -7.83301 6.66602 -13.5 9.99902l-18.5 11c-4 1.33301 -8.16699 3 -12.5 5l-12.5 6c-3.33301 1.33301 -6.5 2.83301 -9.5 4.5
s-5.83301 3.16699 -8.5 4.5l-22 12h302l-26 -11l-8 -4c-2.66699 -1.33301 -5.66699 -2.66602 -9 -3.99902c-8.66699 -4 -16.667 -9 -24 -15s-12 -13 -14 -21c-0.666992 -0.666992 -1 -1.66699 -1 -3v-4c0 -3.33301 0.333008 -6.83301 1 -10.5s1.66699 -7.5 3 -11.5l4 -10
c1.33301 -3.33301 3 -6.66602 5 -9.99902c0 -0.666992 0.166992 -1.33398 0.5 -2.00098s0.833008 -1.33398 1.5 -2.00098l121 -192v0z" />
    <glyph glyph-name="Y" unicode="Y" horiz-adv-x="762" 
d="M350 350l-65.0059 122.999l-15.5 28.5c-5.66699 10.333 -11.834 20.5 -18.501 30.5c-3.33301 6 -6.83301 11.833 -10.5 17.5l-10.5 16.5l-25.5 38l-22.5 32c-10 14 -21 26.333 -33 37s-24.333 19.667 -37 27c-7.33301 4.66699 -14.666 8.83398 -21.999 12.501
s-14.333 6.83398 -21 9.50098l-39 19l36 8c2 0 4.5 0.166992 7.5 0.5s5.83301 0.166016 8.5 -0.500977c9.33301 0 20.333 -1.16699 33 -3.5s25.667 -5.83301 39 -10.5c12.667 -4.66699 25 -10.167 37 -16.5s22.667 -13.833 32 -22.5
c13.333 -12.667 26.166 -26.667 38.499 -42s23.833 -30.666 34.5 -45.999c9.33301 -13.333 17.833 -26.666 25.5 -39.999l21.5 -37l59 -106l116 202c1.33301 1.33301 2.5 2.83301 3.5 4.5s1.83301 3.5 2.5 5.5c6 10.667 10.833 20.667 14.5 30s5.16699 16 4.5 20v1.5v1.5
c-1.33301 3.33301 -3.16602 6.33301 -5.49902 9s-5.5 5.33398 -9.5 8.00098c-6 3.33301 -13.667 6.83301 -23 10.5l-36 14.5l-17 8h283l-21 -8c-3.33301 -2 -6.66602 -3.5 -9.99902 -4.5s-6.66602 -2.16699 -9.99902 -3.5c-6.66699 -2 -13.5 -4.16699 -20.5 -6.5
s-14.167 -5.16602 -21.5 -8.49902l-15 -9c-5.33301 -3.33301 -10.666 -7.33301 -15.999 -12c-4 -3.33301 -7.66699 -7.5 -11 -12.5l-10 -15.5l-8 -14.5c-2.66699 -5 -5.66699 -10.167 -9 -15.5l-148 -251l-1 -282c0 -10 0.5 -18.833 1.5 -26.5s3.83301 -14.834 8.5 -21.501
c0.666992 -1.33301 1.33398 -2.33301 2.00098 -3s1.33398 -1.66699 2.00098 -3c4 -5.33301 11.167 -9.83301 21.5 -13.5s21.166 -6.83398 32.499 -9.50098c2 -0.666992 3.83301 -1.33398 5.5 -2.00098s3.5 -1 5.5 -1c4.66699 -1.33301 9.5 -2.83301 14.5 -4.5l13.5 -4.5
l22 -8h-339l23 7c5.33301 0.666992 11.5 2 18.5 4l21.5 6c6.66699 2.66699 13.334 5.16699 20.001 7.5s12.667 4.83301 18 7.5c3.33301 1.33301 6.33301 3 9 5s4.66699 3.66699 6 5l5.5 9.5c1.66699 3 2.83398 6.16699 3.50098 9.5s1.16699 6.66602 1.5 9.99902
s0.5 6.33301 0.5 9v5.5v4.5c-0.666992 2 -1 3.83301 -1 5.5v4.5v250v0z" />
    <glyph glyph-name="Z" unicode="Z" horiz-adv-x="689" 
d="M660 741l-29.5 -41.498l-26.5 -35.5c-9.33301 -11.333 -18.5 -23.166 -27.5 -35.499l-29.5 -40.5l-101.5 -137.5l-87.5 -123.5c-2.66699 -2.66699 -5 -5.5 -7 -8.5s-4 -6.16699 -6 -9.5l-85.5 -122.5l-97.5 -138.5l331 1c5.33301 -0.666992 10 -0.833984 14 -0.500977
s8.33301 0.833008 13 1.5c4 1.33301 8.16699 2.5 12.5 3.5s8.83301 2.5 13.5 4.5c11.333 4.66699 21 10.834 29 18.501s15 15.5 21 23.5s11 15.667 15 23s8 13.333 12 18l28 36l-66 -191l-27 14h-532l491 689h-347c-4 -0.666992 -9.5 -1.33398 -16.5 -2.00098
s-14.167 -1.66699 -21.5 -3c-9.33301 -1.33301 -18 -2.83301 -26 -4.5s-13.333 -3.5 -16 -5.5c-4.66699 -2.66699 -9 -8.83398 -13 -18.501s-7.66699 -19.834 -11 -30.501c-2 -6.66699 -3.83301 -13.5 -5.5 -20.5s-3.16699 -12.833 -4.5 -17.5l-14 -46l-3 210l39 -10h582v0z
" />
    <glyph glyph-name="bracketleft" unicode="[" horiz-adv-x="271" 
d="M29 -125l3.99805 31.0039c3.33301 20.667 5 54.167 5 100.5s-0.333008 97.166 -1 152.499c0 11.333 -0.166992 22.833 -0.5 34.5s-0.5 23.5 -0.5 35.5v50v49v55v57c0 50 -0.5 97.833 -1.5 143.5s-1.83301 81.834 -2.5 108.501
c-0.666992 7.33301 -1.16699 13.833 -1.5 19.5s-0.5 10.167 -0.5 13.5l-3 25h16c3.33301 -0.666992 7.83301 -1.33398 13.5 -2.00098s12.167 -1 19.5 -1c4 -0.666992 8.33301 -1.16699 13 -1.5s9.33398 -0.5 14.001 -0.5c3.33301 -0.666992 6.5 -1 9.5 -1h9.5h9.5h8.5h4h4
c6.66699 0 13.5 0.166992 20.5 0.5s13.5 0.5 19.5 0.5c6.66699 0 12.834 0.166992 18.501 0.5s9.83398 0.5 12.501 0.5l18 1v-32h-21c-0.666992 -0.666992 -1.66699 -1 -3 -1h-4h-16c-6 0 -12.333 -0.333008 -19 -1c-8.66699 -0.666992 -16.667 -2.16699 -24 -4.5
s-13 -5.5 -17 -9.5c-5.33301 -6 -8.5 -12.333 -9.5 -19s-1.5 -14 -1.5 -22l2 -690c0 -8.66699 0.833008 -16.334 2.5 -23.001s5.16699 -13.334 10.5 -20.001c4 -4.66699 9.83301 -8 17.5 -10s15.5 -3.33301 23.5 -4h8h8h10h9c2 0.666992 4.16699 1 6.5 1h5.5h13l1 -34h-18
c-2.66699 0 -6.83398 0.166992 -12.501 0.5s-12.167 0.5 -19.5 0.5c-5.33301 0 -11 0.166992 -17 0.5s-12.333 0.5 -19 0.5h-6.5h-6.5h-7.5h-7.5c-2.66699 0 -5.5 -0.166992 -8.5 -0.5s-5.83301 -0.5 -8.5 -0.5c-4 0 -8 -0.166992 -12 -0.5s-7.66699 -0.5 -11 -0.5
c-8.66699 -0.666992 -16.5 -1.33398 -23.5 -2.00098s-12.5 -1 -16.5 -1h-16v0z" />
    <glyph glyph-name="backslash" unicode="\" horiz-adv-x="692" 
d="M600 0l-568 740h64l567 -740h-63v0z" />
    <glyph glyph-name="bracketright" unicode="]" horiz-adv-x="270" 
d="M230 -93l4.99512 -31.002h-17c-3.33301 0 -8.5 0.333008 -15.5 1s-14.833 1.33398 -23.5 2.00098c-3.33301 0 -6.66602 0.166992 -9.99902 0.5s-6.66602 0.5 -9.99902 0.5s-6.66602 0.166992 -9.99902 0.5s-6.66602 0.5 -9.99902 0.5h-8.5h-9.5h-2h-2
c-7.33301 0 -14.833 -0.166992 -22.5 -0.5s-14.5 -0.5 -20.5 -0.5c-7.33301 0 -13.666 -0.166992 -18.999 -0.5s-9.33301 -0.5 -12 -0.5h-19l2 34h13h5c2 0 4.33301 -0.333008 7 -1h9h10h8h8c8 0.666992 15.833 2 23.5 4s13.5 5.33301 17.5 10
c5.33301 6.66699 8.66602 13.334 9.99902 20.001s2 14.334 2 23.001l2 691v1v2c0 6.66699 -0.333008 13.167 -1 19.5s-3.66699 12.166 -9 17.499c-4 4.66699 -9.66699 8 -17 10s-15 3.33301 -23 4c-4 0.666992 -8 1 -12 1h-11h-12h-8l-22 1v32h19
c2.66699 -0.666992 6.83398 -1.16699 12.501 -1.5s12.167 -0.5 19.5 -0.5c6.66699 0 14 -0.166992 22 -0.5s16 -0.5 24 -0.5h2h2h7.5h7.5h9.5c3 0 5.83301 0.333008 8.5 1c5.33301 0 10.166 0.166992 14.499 0.5s8.83301 0.833008 13.5 1.5c6.66699 0 13 0.333008 19 1
s10.333 1 13 1l17 1l-3 -24c-1.33301 -16 -2.66602 -51.833 -3.99902 -107.5s-2.33301 -115.167 -3 -178.5v-57v-55v-49v-50v-44.5c0 -15 -0.333008 -29.5 -1 -43.5v-142c0 -42.667 1.33301 -73.667 4 -93v0z" />
    <glyph glyph-name="asciicircum" unicode="^" horiz-adv-x="320" 
d="M159 645l-133 -52l133 145l133 -140l-133 47v0z" />
    <glyph glyph-name="underscore" unicode="_" horiz-adv-x="698" 
d="M5 -167v16h719v-16h-719v0z" />
    <glyph glyph-name="grave" unicode="`" horiz-adv-x="222" 
d="M193 519l-163 174l73 47l90 -221v0z" />
    <glyph glyph-name="a" unicode="a" horiz-adv-x="841" 
d="M460 740c1.33301 -5.33301 2.66797 -10.167 4.00098 -14.5l4 -12.5c0.666992 -4.66699 1.66699 -9 3 -13s2.66602 -8.66699 3.99902 -14c9.33301 -28.667 23 -68.167 41 -118.5l57 -156.5l4 -10l4 -10l68.5 -182.5c21.667 -55.667 36.167 -91.5 43.5 -107.5
c2 -5.33301 4 -10 6 -14s4 -8.33301 6 -13c1.33301 -3.33301 3 -6.83301 5 -10.5l6 -11.5c3.33301 -6.66699 10.166 -12.667 20.499 -18s21.5 -10.333 33.5 -15c2.66699 -0.666992 5.33398 -1.66699 8.00098 -3s5.33398 -2.33301 8.00098 -3
c2 -0.666992 3.83301 -1.5 5.5 -2.5s3.5 -1.83301 5.5 -2.5l21 -8h-296l26 10c4 0.666992 8.33301 2 13 4s9.66699 4 15 6c9.33301 3.33301 17.833 7.33301 25.5 12s12.5 10.334 14.5 17.001v0.5c0 0.333008 0.333008 0.833008 1 1.5v1.5v1.5
c0 3.33301 -0.666992 7.66602 -2 12.999s-3 10.333 -5 15c-0.666992 2.66699 -1.33398 5 -2.00098 7l-2 6c-0.666992 2.66699 -1.5 5.16699 -2.5 7.5s-1.83301 4.5 -2.5 6.5l-67 188h-247l-70 -187l-1.5 -4.5c-0.333008 -1 -0.5 -2.16699 -0.5 -3.5
c-1.33301 -2.66699 -2.5 -5.66699 -3.5 -9s-1.83301 -6.66602 -2.5 -9.99902c-2 -7.33301 -3.66699 -14.333 -5 -21s-2 -11.667 -2 -15v-1.5v-1.5c2.66699 -6 7.83398 -10.833 15.501 -14.5s16.167 -7.16699 25.5 -10.5c1.33301 0 2.66602 -0.166992 3.99902 -0.5
s2.33301 -0.833008 3 -1.5c3.33301 -1.33301 6.66602 -2.5 9.99902 -3.5s6.33301 -2.16699 9 -3.5l27 -10h-273l22 8c4.66699 1.33301 9.83398 3 15.501 5l16.5 6c11.333 4 22 8.66699 32 14s16.667 11 20 17c2 3.33301 3.66699 6.66602 5 9.99902
s2.66602 6.33301 3.99902 9c1.33301 2 2.33301 4 3 6s1.33398 4.33301 2.00098 7c1.33301 2.66699 2.5 5.33398 3.5 8.00098l3.5 9c8.66699 18.667 17.167 38.167 25.5 58.5l25.5 62.5l14 32.5l14 33.5l94 241.5c28 75 45.333 122.833 52 143.5l5.5 18
c1.66699 5.33301 3.16699 10.666 4.5 15.999c0 2 0.333008 3.83301 1 5.5s1 3.5 1 5.5c1.33301 3.33301 2.5 7 3.5 11s1.83301 8 2.5 12l67 1v0zM511.002 348.999l-101 262l-102 -262h203v0z" />
    <glyph glyph-name="b" unicode="b" horiz-adv-x="630" 
d="M26 740l182.001 0.00195312c10.667 -0.666992 20.5 -1 29.5 -1h25.5c5.33301 0.666992 10.333 1 15 1h14h32.5c11 0 23.5 -0.333008 37.5 -1c48 -2 90.5 -17 127.5 -45s56.833 -67.667 59.5 -119v-2.5v-2.5v-2.5v-2.5c0 -36 -9.83301 -67 -29.5 -93
s-45.834 -47.667 -78.501 -65l-31 -16l58 -19c39.333 -13.333 70.833 -33.833 94.5 -61.5s37.167 -62.167 40.5 -103.5v-6v-6c0 -50 -20 -92.167 -60 -126.5s-83.667 -56.833 -131 -67.5l-25.5 -4c-8.33301 -1.33301 -16.5 -2 -24.5 -2h-8.5h-9.5
c-7.33301 0 -14.333 0.166992 -21 0.5s-13 0.833008 -19 1.5h-5.5c-1.66699 0 -3.5 0.333008 -5.5 1c-8 0 -16.5 0.333008 -25.5 1s-18.833 1 -29.5 1h-212l22 8c4.66699 1.33301 10 3 16 5l18 6c11.333 4 22.166 8.5 32.499 13.5s17.5 10.167 21.5 15.5
c1.33301 1.33301 2.33301 2.66602 3 3.99902s1.33398 2.33301 2.00098 3c4 6.66699 6.83301 13.167 8.5 19.5s2.5 13.5 2.5 21.5v546c0 8.66699 -0.5 16.667 -1.5 24s-4.16699 14.333 -9.5 21c-4 5.33301 -11.167 10.166 -21.5 14.499s-21.5 8.5 -33.5 12.5l-21.5 7.5
c-7 2.33301 -13.167 4.83301 -18.5 7.5l-20 11v0zM258.001 53.002c6 -3.33301 15.5 -6.16797 28.5 -8.50098s26.833 -3.5 41.5 -3.5c8.66699 0 17.167 0.333008 25.5 1s16.5 2 24.5 4c49.333 12 85 31.333 107 58s32.667 58.334 32 95.001v10.5
c0 3.66699 -0.333008 7.5 -1 11.5c-4 44.667 -25.333 77.667 -64 99s-81 33.333 -127 36c-3.33301 0.666992 -6.83301 1 -10.5 1h-11.5l-66 1v-261c0 -9.33301 1.5 -18 4.5 -26s8.5 -14.333 16.5 -19v1zM335.001 691c-2 -0.666992 -4.00098 -0.999023 -6.00098 -0.999023h-7
h-9.5h-9.5c-11.333 -0.666992 -22.166 -1.66699 -32.499 -3s-17.5 -3 -21.5 -5c-6 -4 -9.5 -9.33301 -10.5 -16s-1.5 -14 -1.5 -22v-1v-2v-238h47c6.66699 -0.666992 13.167 -0.666992 19.5 0s12.833 1.66699 19.5 3c38 6.66699 72.667 22.667 104 48s47 57.666 47 96.999
v3.5v2.5c-0.666992 1.33301 -1 2.5 -1 3.5v3.5c-4.66699 49.333 -20.667 82.333 -48 99s-57.333 25.667 -90 27v1z" />
    <glyph glyph-name="c" unicode="c" horiz-adv-x="771" 
d="M438 768c11.333 0 21.9971 0.168945 31.9971 0.501953s19.667 0.5 29 0.5c14 0 27.5 -0.5 40.5 -1.5s26.167 -2.5 39.5 -4.5c12.667 -2 25.5 -4.5 38.5 -7.5s26.5 -6.5 40.5 -10.5l29 -7l1 -201l-24 62c-1.33301 3.33301 -2.83301 6.83301 -4.5 10.5
s-3.16699 7.5 -4.5 11.5c-5.33301 13.333 -10.833 25.666 -16.5 36.999s-13.167 20 -22.5 26l-4 2c-1.33301 0.666992 -3 1.66699 -5 3c-12 4.66699 -29.5 9.16699 -52.5 13.5s-47.167 7.16602 -72.5 8.49902c-4.66699 0.666992 -9.33398 1 -14.001 1h-14h-6h-5
c-2 -0.666992 -3.83301 -1 -5.5 -1h-5.5c-90 -4.66699 -165.667 -37.834 -227 -99.501s-91.666 -140.5 -90.999 -236.5c0.666992 -92 33.167 -170.833 97.5 -236.5s144.833 -97.834 241.5 -96.501c4 0 8 0.166992 12 0.5s8 0.5 12 0.5c38 2.66699 74.333 10.334 109 23.001
s59.334 27.334 74.001 44.001c5.33301 6 10.5 13.167 15.5 21.5s9.83301 16.833 14.5 25.5l12 24.5c4 8.33301 7.66699 15.5 11 21.5l25 48l-43 -214l-36 -13c-7.33301 -3.33301 -14.333 -6.16602 -21 -8.49902s-13.334 -4.5 -20.001 -6.5
c-28 -7.33301 -57.5 -12.333 -88.5 -15s-70.167 -3.66699 -117.5 -3c-11.333 0 -22.666 0.666992 -33.999 2s-22.666 3.33301 -33.999 6c-78 16 -149.667 56.333 -215 121s-99.666 144.667 -102.999 240v3.5v3.5v3v3c0 112.667 41.167 205.167 123.5 277.5
s178.5 111.166 288.5 116.499v1z" />
    <glyph glyph-name="d" unicode="d" horiz-adv-x="841" 
d="M807 414c0.666992 -8 1.16797 -15.667 1.50098 -23s0.5 -14.666 0.5 -21.999c0 -82 -18.667 -148 -56 -198s-78.333 -88.333 -123 -115c-30.667 -18.667 -60.167 -32.667 -88.5 -42s-50.5 -15 -66.5 -17c-9.33301 -1.33301 -19.833 -2.5 -31.5 -3.5
s-23.834 -1.5 -36.501 -1.5c-6.66699 0 -13.334 0.166992 -20.001 0.5s-13.334 0.5 -20.001 0.5c-9.33301 0.666992 -18.666 1.16699 -27.999 1.5s-18.333 0.833008 -27 1.5c-14.667 1.33301 -28.5 2.33301 -41.5 3s-23.833 1 -32.5 1h-212l22 8c4.66699 1.33301 10 3 16 5
l18 6c11.333 4 22.166 8.5 32.499 13.5s17.5 10.167 21.5 15.5c1.33301 1.33301 2.33301 2.66602 3 3.99902s1.33398 2.33301 2.00098 3c4 6.66699 6.83301 13.167 8.5 19.5s2.5 13.5 2.5 21.5v546c0 8.66699 -0.5 16.667 -1.5 24s-4.16699 14.333 -9.5 21
c-4.66699 5.33301 -12.167 10.166 -22.5 14.499s-21.166 8.16602 -32.499 11.499c-6.66699 2.66699 -13.167 4.83398 -19.5 6.50098s-12.166 3.5 -17.499 5.5l-22 9h182c8.66699 -0.666992 19 -0.666992 31 0s25.333 1.33398 40 2.00098c14.667 0 30.167 0.333008 46.5 1
s33.5 1 51.5 1c12 0 24 -0.166992 36 -0.5s24 -0.833008 36 -1.5l25 -2c8 -0.666992 16 -1.66699 24 -3c17.333 -2.66699 36.666 -7.5 57.999 -14.5s43.333 -16.833 66 -29.5c42.667 -24 82.5 -58.5 119.5 -103.5s58.5 -101.833 64.5 -170.5v1zM237.001 642
l-0.000976562 -538.001c0 -10.667 1.33301 -20.167 4 -28.5s8.33398 -15.166 17.001 -20.499c0.666992 -0.666992 1.5 -1.16699 2.5 -1.5s2.5 -0.5 4.5 -0.5c8.66699 -2 22.834 -4 42.501 -6s41.167 -3 64.5 -3h15.5c5 0 9.83301 0.333008 14.5 1
c21.333 0.666992 42.166 2.66699 62.499 6s37.833 8.33301 52.5 15l38.5 17.5c14.333 6.33301 29.166 14.166 44.499 23.499c29.333 18.667 56.666 46.334 81.999 83.001s39.333 89.334 42 158.001v3.5v3.5v3v3c0 73.333 -22.833 140.333 -68.5 201
s-107.5 99.667 -185.5 117c-8 2 -22.333 3.66699 -43 5s-42.667 1.66602 -66 0.999023h-2h-2c-23.333 0 -45.166 -0.833008 -65.499 -2.5s-34.166 -4.5 -41.499 -8.5c-5.33301 -2.66699 -8.83301 -7 -10.5 -13s-2.5 -12.667 -2.5 -20v1z" />
    <glyph glyph-name="e" unicode="e" horiz-adv-x="593" 
d="M26 740l501.003 -0.00390625l-1 -164l-14 40c-1.33301 2.66699 -2.5 5.66699 -3.5 9s-2.16699 6.33301 -3.5 9c-3.33301 9.33301 -6.83301 17.5 -10.5 24.5s-9.5 13.167 -17.5 18.5c-5.33301 3.33301 -11.333 6 -18 8s-13.334 3.33301 -20.001 4
c-4 0 -7.83301 0.166992 -11.5 0.5s-7.5 0.5 -11.5 0.5l-123 1c-1.33301 -0.666992 -2.66602 -1 -3.99902 -1h-5c-8 0 -15.833 -0.333008 -23.5 -1s-13.5 -3 -17.5 -7c-2.66699 -2.66699 -4.33398 -7.16699 -5.00098 -13.5s-1 -13.166 -1 -20.499v-0.5v-1.5v-2.5v-2.5v-239
h142c4 -0.666992 8 -1 12 -1h12c8 0 15.5 0.5 22.5 1.5s13.5 3.83301 19.5 8.5c1.33301 1.33301 2.66602 2.5 3.99902 3.5s2.33301 2.16699 3 3.5c3.33301 2.66699 5.83301 5.33398 7.5 8.00098s3.5 6 5.5 10l21 44v-235l-9 23c-0.666992 2 -1.5 4.33301 -2.5 7
s-1.83301 5.33398 -2.5 8.00098c-0.666992 1.33301 -1.16699 2.5 -1.5 3.5s-0.833008 2.16699 -1.5 3.5c-3.33301 10.667 -7.16602 20.834 -11.499 30.501s-10.166 16.5 -17.499 20.5c-4 2.66699 -8 4.66699 -12 6s-8 2.33301 -12 3s-8.16699 1 -12.5 1h-14.5h-2.5h-2.5
l-147 1v-246c0 -3.33301 0.166992 -7 0.5 -11s0.833008 -7.66699 1.5 -11c1.33301 -7.33301 3.16602 -13.833 5.49902 -19.5s5.5 -9.5 9.5 -11.5c5.33301 -2.66699 10.166 -4.33398 14.499 -5.00098s8.83301 -1 13.5 -1h5.5c1.66699 0 3.5 0.333008 5.5 1h5h6l164 1
c2 -0.666992 4 -1 6 -1h6c1.33301 -0.666992 3 -1 5 -1h6c3.33301 0 6.66602 0.333008 9.99902 1s6.66602 1.66699 9.99902 3c5.33301 2.66699 9.83301 8 13.5 16s7.16699 17 10.5 27c0.666992 2 1.33398 4.16699 2.00098 6.5s1.33398 4.5 2.00098 6.5
c1.33301 4 2.83301 8 4.5 12l4.5 11l13 32l-5 -162h-530l23 7c5.33301 0.666992 11.5 2 18.5 4l21.5 6c6.66699 2.66699 13.334 5.16699 20.001 7.5s12.667 4.83301 18 7.5c3.33301 1.33301 6.33301 3 9 5s4.66699 3.66699 6 5c3.33301 4 5.66602 8.5 6.99902 13.5
s2.33301 10.167 3 15.5v6v6v9v8v542v9.5v9.5c0 6.66699 -0.5 12.834 -1.5 18.501s-3.83301 11.167 -8.5 16.5c-1.33301 1.33301 -3.33301 3 -6 5s-5.66699 3.66699 -9 5c-5.33301 2.66699 -11.333 5.16699 -18 7.5s-13.334 4.83301 -20.001 7.5l-21.5 6
c-7 2 -13.167 3.66699 -18.5 5l-23 8v0z" />
    <glyph glyph-name="f" unicode="f" horiz-adv-x="537" 
d="M26 740l481 -0.000976562v-164l-14 40c-1.33301 2.66699 -2.5 5.66699 -3.5 9s-2.16699 6.33301 -3.5 9c-3.33301 9.33301 -6.83301 17.5 -10.5 24.5s-9.5 13.167 -17.5 18.5c-6.66699 4 -13.667 6.83301 -21 8.5s-15 2.83398 -23 3.50098
c-2.66699 0.666992 -5.5 1 -8.5 1h-9.5l-103 1c-1.33301 -0.666992 -2.66602 -1 -3.99902 -1h-5c-8 0 -15.833 -0.333008 -23.5 -1s-13.5 -3 -17.5 -7c-2.66699 -2.66699 -4.5 -5.83398 -5.5 -9.50098s-1.5 -7.16699 -1.5 -10.5v-4.5c0 -1.66699 0.333008 -3.5 1 -5.5v-2v-2
v-3.5v-3.5v-239h133c4 -0.666992 8 -1 12 -1h11c8 0 15.667 0.5 23 1.5s14 3.83301 20 8.5c1.33301 1.33301 2.66602 2.5 3.99902 3.5s2.33301 2.16699 3 3.5c2 2 3.83301 4 5.5 6s3.16699 4.66699 4.5 8c0 0.666992 0.166992 1.33398 0.5 2.00098
s0.833008 1.33398 1.5 2.00098l21 44v-235l-9 23c-1.33301 2 -2.5 4.5 -3.5 7.5s-1.83301 6.16699 -2.5 9.5c0 0.666992 -0.166992 1.5 -0.5 2.5s-0.5 1.83301 -0.5 2.5l-12 30.5c-4 9.66699 -10 16.5 -18 20.5c-4 2 -7.66699 3.66699 -11 5s-7 2.33301 -11 3
c-4 1.33301 -8.33301 2 -13 2h-15h-2.5h-2.5l-138 1v-255c0 -11.333 0.5 -21.166 1.5 -29.499s4.83301 -16.5 11.5 -24.5c4 -5.33301 11.167 -9.83301 21.5 -13.5s21.166 -6.83398 32.499 -9.50098c2 -0.666992 3.83301 -1.33398 5.5 -2.00098s3.5 -1 5.5 -1
c5.33301 -1.33301 10.333 -2.83301 15 -4.5l13 -4.5l22 -8h-339l23 7c5.33301 0.666992 11.5 2 18.5 4l21.5 6c6.66699 2.66699 13.334 5.16699 20.001 7.5s12.667 4.83301 18 7.5c3.33301 1.33301 6.33301 3 9 5s4.66699 3.66699 6 5l5.5 9.5
c1.66699 3 2.83398 6.16699 3.50098 9.5s1.16699 6.66602 1.5 9.99902s0.5 6.33301 0.5 9v5.5v4.5c-0.666992 2 -1 3.83301 -1 5.5v4.5v542v9.5v9.5c0 6.66699 -0.5 12.834 -1.5 18.501s-3.83301 11.167 -8.5 16.5c-1.33301 1.33301 -3.33301 3 -6 5s-5.66699 3.66699 -9 5
c-5.33301 2.66699 -11.333 5.16699 -18 7.5s-13.334 4.83301 -20.001 7.5l-21.5 6c-7 2 -13.167 3.66699 -18.5 5l-23 8v0z" />
    <glyph glyph-name="g" unicode="g" horiz-adv-x="831" 
d="M631 153v73.9961c0 6 -1 11.5 -3 16.5s-5 9.83301 -9 14.5c-0.666992 0.666992 -1.33398 1.5 -2.00098 2.5s-1.33398 1.83301 -2.00098 2.5c-4 4 -9.16699 7.16699 -15.5 9.5s-13.166 4.5 -20.499 6.5c-2.66699 0.666992 -5.5 1.33398 -8.5 2.00098
s-6.16699 1.33398 -9.5 2.00098c-2.66699 1.33301 -5.16699 2.33301 -7.5 3s-4.5 1.33398 -6.5 2.00098l-32 17h289l-34 -19c-1.33301 -1.33301 -2.66602 -2.33301 -3.99902 -3l-4 -2c-2.66699 -1.33301 -5.5 -2.5 -8.5 -3.5s-5.83301 -1.83301 -8.5 -2.5
c-6.66699 -2.66699 -12.667 -5.5 -18 -8.5s-9.33301 -7.5 -12 -13.5c-2 -4.66699 -3.5 -14.667 -4.5 -30s-1.5 -32 -1.5 -50v-4.5v-4.5c0 -10 0.333008 -19.5 1 -28.5s1.33398 -17.167 2.00098 -24.5l6 -54l-58 -23c-3.33301 -2 -7 -3.66699 -11 -5l-12 -4
c-24.667 -9.33301 -55.334 -17.5 -92.001 -24.5s-80.334 -10.167 -131.001 -9.5c-10.667 0 -21.667 0.666992 -33 2s-22.666 3 -33.999 5c-78 16 -149.833 56.5 -215.5 121.5s-100.167 145.167 -103.5 240.5v3.5v3.5v3v3c0 112.667 41.5 205.5 124.5 278.5
s179.5 111.833 289.5 116.5c7.33301 0.666992 14.666 1 21.999 1h21c28 0 53.833 -1.66699 77.5 -5s46.834 -8 69.501 -14l13 -4.5c4.66699 -1.66699 9.33398 -3.16699 14.001 -4.5l42 -13l-15 -210l-20 81c-4 17.333 -8.83301 33.833 -14.5 49.5s-14.834 27.5 -27.501 35.5
c-2 1.33301 -4.83301 2.83301 -8.5 4.5s-8.16699 3.5 -13.5 5.5c-12.667 4 -28.834 7.83301 -48.501 11.5s-40.167 6.16699 -61.5 7.5c-6.66699 0.666992 -13.667 1.16699 -21 1.5s-14.333 0.5 -21 0.5h-8.5h-9.5c-88.667 -5.33301 -163.667 -38 -225 -98
s-91.666 -136.333 -90.999 -229v-3v-3v-3.5v-3.5c4 -104 37.667 -186 101 -246s143 -89.333 239 -88c5.33301 0 10.833 0.166992 16.5 0.5s11.167 0.833008 16.5 1.5c30 4 58 11.333 84 22s42.667 22.334 50 35.001c1.33301 2 2.33301 3.83301 3 5.5
s1.33398 3.16699 2.00098 4.5c1.33301 5.33301 2.16602 11 2.49902 17s0.5 14.333 0.5 25v1z" />
    <glyph glyph-name="h" unicode="h" horiz-adv-x="891" 
d="M756 697c-0.666992 -2 -1.50391 -3.49609 -2.50391 -4.49609s-1.83301 -2.16699 -2.5 -3.5c-4 -6.66699 -6.16699 -13.167 -6.5 -19.5s-0.5 -13.5 -0.5 -21.5v-3.5v-3.5l1 -544v-4.5v-3.5c0 -8.66699 0.333008 -16.667 1 -24s4 -14.666 10 -21.999
c4 -5.33301 11.167 -9.83301 21.5 -13.5s21.166 -6.83398 32.499 -9.50098c2 -0.666992 3.83301 -1.33398 5.5 -2.00098s3.5 -1 5.5 -1c4.66699 -1.33301 9.5 -2.83301 14.5 -4.5l13.5 -4.5l21 -8h-338l23 7c5.33301 0.666992 11.5 2 18.5 4l21.5 6
c6.66699 2.66699 13.334 5.16699 20.001 7.5s12.667 4.83301 18 7.5c3.33301 1.33301 6.33301 3 9 5s4.66699 3.66699 6 5c1.33301 2 2.5 4 3.5 6s2.16699 4 3.5 6c1.33301 4 2.16602 8 2.49902 12s0.5 8 0.5 12v8.5v9.5v253h-427v-252c0 -11.333 0.5 -21.166 1.5 -29.499
s4.83301 -16.5 11.5 -24.5c4 -5.33301 11.167 -9.83301 21.5 -13.5s21.166 -6.83398 32.499 -9.50098c2 -0.666992 3.83301 -1.33398 5.5 -2.00098s3.5 -1 5.5 -1c5.33301 -1.33301 10.333 -2.83301 15 -4.5l13 -4.5l22 -8h-339l23 7c5.33301 0.666992 11.5 2 18.5 4l21.5 6
c6.66699 2.66699 13.334 5.16699 20.001 7.5s12.667 4.83301 18 7.5c3.33301 1.33301 6.33301 3 9 5s4.66699 3.66699 6 5l5.5 9.5c1.66699 3 2.83398 6.16699 3.50098 9.5s1.16699 6.66602 1.5 9.99902s0.5 6.33301 0.5 9v5.5v4.5c-0.666992 2 -1 3.83301 -1 5.5v4.5v539
v3.5c0 1.66699 0.333008 3.5 1 5.5v5v6c0 2.66699 -0.166992 5.16699 -0.5 7.5s-0.833008 4.83301 -1.5 7.5c-0.666992 4 -1.66699 7.83301 -3 11.5s-3.33301 7.16699 -6 10.5c-1.33301 1.33301 -3.33301 3 -6 5s-5.66699 3.66699 -9 5
c-5.33301 2.66699 -11.333 5.16699 -18 7.5s-13.334 4.83301 -20.001 7.5l-21.5 6c-7 2 -13.167 3.66699 -18.5 5l-23 8h339l-22 -9c-4 -2.66699 -8.66699 -4.66699 -14 -6s-11 -2.66602 -17 -3.99902c-1.33301 -0.666992 -2.66602 -1.16699 -3.99902 -1.5
s-2.66602 -0.833008 -3.99902 -1.5c-11.333 -2.66699 -22.166 -5.83398 -32.499 -9.50098s-17.5 -7.83398 -21.5 -12.501c-0.666992 -1.33301 -1.5 -2.5 -2.5 -3.5s-1.83301 -2.16699 -2.5 -3.5c-4 -7.33301 -6.33301 -14.833 -7 -22.5s-1 -16.167 -1 -25.5v-231h427v232
v9.5v9.5c0 6.66699 -0.5 12.834 -1.5 18.501s-3.83301 11.167 -8.5 16.5c-1.33301 1.33301 -3.33301 3 -6 5s-5.66699 3.66699 -9 5c-5.33301 2.66699 -11.333 5.16699 -18 7.5s-13.334 4.83301 -20.001 7.5l-21.5 6c-7 2 -13.167 3.66699 -18.5 5l-23 8h338l-21 -9
c-4 -2.66699 -8.66699 -4.66699 -14 -6s-11 -2.66602 -17 -3.99902c-1.33301 -0.666992 -2.66602 -1.16699 -3.99902 -1.5s-2.66602 -0.833008 -3.99902 -1.5c-11.333 -2.66699 -22.166 -5.83398 -32.499 -9.50098s-17.5 -7.83398 -21.5 -12.501v1z" />
    <glyph glyph-name="i" unicode="i" horiz-adv-x="389" 
d="M237 642l-0.00292969 -544.997c0 -11.333 0.5 -21.166 1.5 -29.499s4.83301 -16.5 11.5 -24.5c4 -5.33301 11.167 -9.83301 21.5 -13.5s21.166 -6.83398 32.499 -9.50098c2 -0.666992 3.83301 -1.33398 5.5 -2.00098s3.5 -1 5.5 -1
c5.33301 -1.33301 10.333 -2.83301 15 -4.5l13 -4.5l22 -8h-339l23 7c5.33301 0.666992 11.5 2 18.5 4l21.5 6c6.66699 2.66699 13.334 5.16699 20.001 7.5s12.667 4.83301 18 7.5c3.33301 1.33301 6.33301 3 9 5s4.66699 3.66699 6 5l5.5 9.5
c1.66699 3 2.83398 6.16699 3.50098 9.5s1.16699 6.66602 1.5 9.99902s0.5 6.33301 0.5 9v5.5v4.5c-0.666992 2 -1 3.83301 -1 5.5v4.5v539v3.5c0 1.66699 0.333008 3.5 1 5.5v5v6c0 2.66699 -0.166992 5.16699 -0.5 7.5s-0.833008 4.83301 -1.5 7.5
c-0.666992 4 -1.66699 7.83301 -3 11.5s-3.33301 7.16699 -6 10.5c-1.33301 1.33301 -3.33301 3 -6 5s-5.66699 3.66699 -9 5c-5.33301 2.66699 -11.333 5.16699 -18 7.5s-13.334 4.83301 -20.001 7.5l-21.5 6c-7 2 -13.167 3.66699 -18.5 5l-23 8h339l-22 -9
c-4 -2.66699 -8.66699 -4.66699 -14 -6s-11 -2.66602 -17 -3.99902c-1.33301 -0.666992 -2.66602 -1.16699 -3.99902 -1.5s-2.66602 -0.833008 -3.99902 -1.5c-11.333 -2.66699 -22.166 -5.83398 -32.499 -9.50098s-17.5 -7.83398 -21.5 -12.501
c-0.666992 -1.33301 -1.5 -2.5 -2.5 -3.5s-1.83301 -2.16699 -2.5 -3.5c-4 -7.33301 -6.33301 -14.833 -7 -22.5s-1 -16.167 -1 -25.5v1z" />
    <glyph glyph-name="j" unicode="j" horiz-adv-x="423" 
d="M262 233c0 -64.667 -5.1709 -117.001 -15.5039 -157.001s-39.833 -70.333 -88.5 -91c-11.333 -5.33301 -24.166 -9.83301 -38.499 -13.5s-29.833 -5.5 -46.5 -5.5h-3.5h-4.5l-36 1l26 12c2.66699 0.666992 5.16699 1.5 7.5 2.5s4.5 2.16699 6.5 3.5
c6.66699 2.66699 12.834 5.5 18.501 8.5s11.167 6.16699 16.5 9.5l11.5 8c3.66699 2.66699 7.5 5.66699 11.5 9c12.667 10.667 22.5 23.334 29.5 38.001s12.167 30 15.5 46c2 8.66699 3.33301 17.334 4 26.001s1 17 1 25v484v3.5c0 1.66699 0.333008 3.5 1 5.5v5v6
c0 2.66699 -0.166992 5.16699 -0.5 7.5s-0.833008 4.83301 -1.5 7.5c-0.666992 4 -1.66699 7.83301 -3 11.5s-3.33301 7.16699 -6 10.5c-1.33301 1.33301 -3.33301 3 -6 5s-5.66699 3.66699 -9 5c-5.33301 2.66699 -11.333 5.16699 -18 7.5s-13.334 4.83301 -20.001 7.5
l-21.5 6c-7 2 -13.167 3.66699 -18.5 5l-23 8h338l-21 -9c-4 -2.66699 -8.66699 -4.66699 -14 -6s-11 -2.66602 -17 -3.99902c-1.33301 -0.666992 -2.66602 -1.16699 -3.99902 -1.5s-2.66602 -0.833008 -3.99902 -1.5c-11.333 -2.66699 -22.166 -5.83398 -32.499 -9.50098
s-17.5 -7.83398 -21.5 -12.501c-0.666992 -1.33301 -1.5 -2.5 -2.5 -3.5s-1.83301 -2.16699 -2.5 -3.5c-4 -7.33301 -6.33301 -14.833 -7 -22.5s-1 -16.167 -1 -25.5v-408v0z" />
    <glyph glyph-name="k" unicode="k" horiz-adv-x="817" 
d="M237 367l-0.00390625 -269.997c0 -11.333 0.5 -21.166 1.5 -29.499s4.83301 -16.5 11.5 -24.5c4 -5.33301 11.167 -9.83301 21.5 -13.5s21.166 -6.83398 32.499 -9.50098c2 -0.666992 3.83301 -1.33398 5.5 -2.00098s3.5 -1 5.5 -1
c5.33301 -1.33301 10.333 -2.83301 15 -4.5l13 -4.5l22 -8h-339l23 7c5.33301 0.666992 11.5 2 18.5 4l21.5 6c6.66699 2.66699 13.334 5.16699 20.001 7.5s12.667 4.83301 18 7.5c3.33301 1.33301 6.33301 3 9 5s4.66699 3.66699 6 5l5.5 9.5
c1.66699 3 2.83398 6.16699 3.50098 9.5s1.16699 6.66602 1.5 9.99902s0.5 6.33301 0.5 9v5.5v4.5c-0.666992 2 -1 3.83301 -1 5.5v4.5v539v7v9v8.5c0 3 -0.333008 6.16699 -1 9.5c-0.666992 4 -1.66699 8 -3 12s-3.33301 7.66699 -6 11
c-1.33301 1.33301 -3.16602 3 -5.49902 5s-5.5 3.66699 -9.5 5c-4.66699 2.66699 -10.334 5.16699 -17.001 7.5l-21 7.5l-21.5 6c-7 2 -13.167 3.66699 -18.5 5l-23 8h339l-22 -9c-4 -2.66699 -8.66699 -4.66699 -14 -6s-11 -2.66602 -17 -3.99902
c-1.33301 -0.666992 -2.66602 -1.16699 -3.99902 -1.5s-2.66602 -0.833008 -3.99902 -1.5c-11.333 -2.66699 -22.166 -5.83398 -32.499 -9.50098s-17.5 -7.83398 -21.5 -12.501c-0.666992 -1.33301 -1.5 -2.5 -2.5 -3.5s-1.83301 -2.16699 -2.5 -3.5
c-4 -7.33301 -6.33301 -14.833 -7 -22.5s-1 -16.167 -1 -25.5v-244l173 164l17.5 15.5c6.33301 5.66699 12.5 11.5 18.5 17.5c2 1.33301 4 3 6 5l6 6c16.667 16 31.334 31.167 44.001 45.5s18.667 25.166 18 32.499v0.5v1.5c0 0.666992 -0.166992 1.16699 -0.5 1.5l-0.5 0.5
c-2.66699 4.66699 -6.83398 8.66699 -12.501 12s-11.834 6.33301 -18.501 9c-6 2.66699 -11.5 4.83398 -16.5 6.50098s-9.16699 3.16699 -12.5 4.5l-30 14h289l-29 -16c-2 -2 -4.33301 -3.33301 -7 -4s-5.33398 -1.66699 -8.00098 -3l-15.5 -4.5
c-5.66699 -1.66699 -11.167 -3.83398 -16.5 -6.50098c-3.33301 -1.33301 -6.5 -2.83301 -9.5 -4.5l-9.5 -5.5c-17.333 -11.333 -37.5 -28 -60.5 -50l-72.5 -69l-9.5 -9.5c-3 -3 -6.16699 -5.83301 -9.5 -8.5l-165 -152l200 -216c22 -24.667 45.5 -49.667 70.5 -75
s54.833 -50.666 89.5 -75.999c6 -4.66699 11.833 -8.5 17.5 -11.5l16.5 -8.5c4 -1.33301 8 -2.83301 12 -4.5s8.33301 -3.16699 13 -4.5c4.66699 -2 9.83398 -3.66699 15.501 -5s11.834 -3.33301 18.501 -6l35 -13l-46 -5h-2.5h-3.5h-1.5h-1.5
c-7.33301 0 -16.333 0.5 -27 1.5s-21.667 2.83301 -33 5.5c-13.333 2 -26 4.66699 -38 8s-21.333 6.66602 -28 9.99902l-42 27.5c-14.667 9.66699 -29.667 20.834 -45 33.501c-6 4.66699 -11.833 9.66699 -17.5 15s-11.167 11 -16.5 17l-255 274v0z" />
    <glyph glyph-name="l" unicode="l" horiz-adv-x="570" 
d="M237 642l-0.00488281 -544.995c0 -7.33301 0.666992 -14.333 2 -21s4.33301 -12.334 9 -17.001c4 -4 9.33301 -6.66699 16 -8s13.334 -2.33301 20.001 -3h5h4l123 1c4.66699 -0.666992 9.5 -0.833984 14.5 -0.500977s10.167 1.16602 15.5 2.49902
c6.66699 0.666992 13.334 2 20.001 4s12.334 4.66699 17.001 8c9.33301 6 16.333 13.667 21 23s9 19.666 13 30.999c0.666992 2.66699 1.5 5.16699 2.5 7.5s1.83301 4.5 2.5 6.5l13 37v-168h-509l23 7c5.33301 0.666992 11.5 2 18.5 4l21.5 6
c6.66699 2.66699 13.334 5.16699 20.001 7.5s12.667 4.83301 18 7.5c3.33301 1.33301 6.33301 3 9 5s4.66699 3.66699 6 5c1.33301 2 2.5 4 3.5 6s2.16699 4 3.5 6c1.33301 4 2.16602 8 2.49902 12s0.5 8 0.5 12v8.5v9.5v543v3.5c0 1.66699 0.333008 3.5 1 5.5v5v6
c0 2.66699 -0.166992 5.16699 -0.5 7.5s-0.833008 4.83301 -1.5 7.5c-0.666992 4 -1.66699 7.83301 -3 11.5s-3.33301 7.16699 -6 10.5c-1.33301 1.33301 -3.33301 3 -6 5s-5.66699 3.66699 -9 5c-5.33301 2.66699 -11.333 5.16699 -18 7.5s-13.334 4.83301 -20.001 7.5
l-21.5 6c-7 2 -13.167 3.66699 -18.5 5l-23 8h339l-22 -9c-4 -2.66699 -8.66699 -4.66699 -14 -6s-11 -2.66602 -17 -3.99902c-1.33301 -0.666992 -2.66602 -1.16699 -3.99902 -1.5s-2.66602 -0.833008 -3.99902 -1.5c-11.333 -2.66699 -22.166 -5.83398 -32.499 -9.50098
s-17.5 -7.83398 -21.5 -12.501c-0.666992 -1.33301 -1.5 -2.5 -2.5 -3.5s-1.83301 -2.16699 -2.5 -3.5c-4 -7.33301 -6.33301 -14.833 -7 -22.5s-1 -16.167 -1 -25.5v1z" />
    <glyph glyph-name="m" unicode="m" horiz-adv-x="1116" 
d="M255 653c13.333 -28.667 31.001 -62.8359 53.001 -102.503l69 -123.5l7.5 -13.5c2.33301 -4.33301 4.83301 -8.5 7.5 -12.5l97.5 -165.5c30.333 -50.333 49.833 -81.166 58.5 -92.499c21.333 34.667 51.333 87.834 90 159.501l122 227.5l6 10.5l6 10.5l18.5 34l18.5 34
l14.5 28l12.5 26c0.666992 2 1.5 4 2.5 6s1.83301 4 2.5 6c4 8 7.83301 16.5 11.5 25.5s7.83398 18.5 12.501 28.5l55 1c0.666992 -12 1.33398 -23 2.00098 -33s1.33398 -19.333 2.00098 -28c0 -2.66699 0.166992 -5.16699 0.5 -7.5s0.5 -4.5 0.5 -6.5
c0.666992 -11.333 1.5 -23 2.5 -35s2.16699 -25 3.5 -39c2 -24.667 4.33301 -50.834 7 -78.501l8 -83.5l19 -217c6 -66 9.33301 -99.667 10 -101c0 -2 0.166992 -3.83301 0.5 -5.5s0.5 -3.5 0.5 -5.5c1.33301 -10 3.16602 -19.5 5.49902 -28.5s4.83301 -16.5 7.5 -22.5
c3.33301 -6 10 -11.5 20 -16.5s20.667 -9.5 32 -13.5c5.33301 -2 10.5 -3.83301 15.5 -5.5s9.83301 -3.5 14.5 -5.5l21 -8h-311l33 13c2.66699 0 5.16699 0.5 7.5 1.5s4.83301 1.83301 7.5 2.5c0.666992 0 1.16699 0.166992 1.5 0.5s0.833008 0.5 1.5 0.5
c10.667 3.33301 20.834 7 30.501 11s16.167 9 19.5 15c5.33301 8.66699 8.83301 16.667 10.5 24s2.5 14.333 2.5 21c0 4 -0.166992 8 -0.5 12s-0.833008 7.66699 -1.5 11c-0.666992 2.66699 -1.16699 5.16699 -1.5 7.5s-0.5 4.83301 -0.5 7.5l-41 454l-57 -102.5l-83 -150.5
l-59 -109.5l-51 -93.5c-2.66699 -4.66699 -5.16699 -9.33398 -7.5 -14.001l-7.5 -15c-0.666992 -2 -1.66699 -4.16699 -3 -6.5s-2.66602 -4.83301 -3.99902 -7.5l-27.5 -57.5l-15.5 -32.5c-2.66699 5.33301 -7.83398 14.666 -15.501 27.999l-23.5 43
c-0.666992 0.666992 -1 1.16699 -1 1.5v0.5c-2.66699 5.33301 -5.33398 10.333 -8.00098 15l-8 14c-73.333 136 -133.666 243 -180.999 321s-75.666 125.333 -84.999 142l-28 -382c0 -3.33301 -0.333008 -7 -1 -11s-1 -8.66699 -1 -14
c-0.666992 -6.66699 -1.33398 -14 -2.00098 -22s-1 -16 -1 -24v-4v-3c0 -10 0.833008 -19.667 2.5 -29s4.5 -17.333 8.5 -24c3.33301 -5.33301 9 -10 17 -14s16.667 -7.66699 26 -11c1.33301 0 2.66602 -0.333008 3.99902 -1s2.66602 -1 3.99902 -1
c2.66699 -1.33301 5.5 -2.5 8.5 -3.5s5.83301 -2.16699 8.5 -3.5l28 -10h-261l17 8c2 0 3.83301 0.333008 5.5 1s3.5 1.33398 5.5 2.00098c2 1.33301 4 2.33301 6 3l6 2c11.333 4.66699 22 9.5 32 14.5s17 10.833 21 17.5c3.33301 6.66699 6 18.834 8 36.501
s3.66699 36.5 5 56.5c0 4.66699 0.166992 9.16699 0.5 13.5s0.5 8.83301 0.5 13.5c2.66699 22.667 5.16699 46.5 7.5 71.5s4.16602 50.167 5.49902 75.5c4 53.333 7.16699 104.333 9.5 153s4.5 86.334 6.5 113.001c1.33301 17.333 2.16602 33.333 2.49902 48
s0.5 29.334 0.5 44.001v19v20v13.5v13.5l58 1c2 -6.66699 4.5 -14.5 7.5 -23.5s6.5 -18.5 10.5 -28.5l4 -12c1.33301 -4 3 -8 5 -12c0.666992 -2 1.5 -4 2.5 -6s1.83301 -4 2.5 -6v1z" />
    <glyph glyph-name="n" unicode="n" horiz-adv-x="935" 
d="M769 -2l-99.498 110.504l-31.5 34.5l-14 14l-27 28l-42 44l-43 45c-2.66699 3.33301 -5.66699 6.5 -9 9.5s-6.33301 6.16699 -9 9.5l-186 190.5l-126 125.5v-432v-9.5v-11.5c-0.666992 -4 -1 -8.5 -1 -13.5v-15.5v-12v-12
c0.666992 -10.667 1.83398 -21.334 3.50098 -32.001s4.16699 -19.334 7.5 -26.001s9.83301 -12.334 19.5 -17.001s19.834 -9 30.501 -13l9 -3.5c2.66699 -1 5.33398 -1.83301 8.00098 -2.5l28 -9h-261l17 8c3.33301 0.666992 6.5 1.66699 9.5 3s6.16699 2.66602 9.5 3.99902
c11.333 4.66699 22.166 9.66699 32.499 15s17.5 11.666 21.5 18.999c3.33301 6 5.5 16.5 6.5 31.5s1.83301 31.167 2.5 48.5v24v22v565h58l26 -33.5c10 -13 23.333 -28.167 40 -45.5l92.5 -95l102.5 -106l198.5 -207c61.667 -64 99.5 -102.333 113.5 -115v426v15.5v17.5
v17.5v16.5c0 13.333 -0.333008 25.5 -1 36.5s-2.33398 18.833 -5.00098 23.5c-3.33301 6.66699 -9.83301 12.334 -19.5 17.001s-19.834 9 -30.501 13l-3 1.5c-0.666992 0.333008 -1.33398 0.5 -2.00098 0.5l-10 4l-10 4l-17 9h261l-28 -12
c-2 -1.33301 -3.83301 -2.33301 -5.5 -3s-3.5 -1.33398 -5.5 -2.00098c-10.667 -4.66699 -20.167 -9.16699 -28.5 -13.5s-15.833 -9.83301 -22.5 -16.5c-3.33301 -3.33301 -5.83301 -11.166 -7.5 -23.499s-2.83398 -25.5 -3.50098 -39.5c-0.666992 -8 -1 -15.833 -1 -23.5
v-20.5v-15.5v-5.5v-567h-48v0z" />
    <glyph glyph-name="o" unicode="o" horiz-adv-x="845" 
d="M405 754c1.33301 -0.666992 2.83105 -1 4.49805 -1h5.5h4.5h4.5c104.667 0 195.334 -34.333 272.001 -103s116.334 -161 119.001 -277c1.33301 -116.667 -39 -210.167 -121 -280.5s-178.667 -104.833 -290 -103.5c-104.667 0.666992 -193.5 38.167 -266.5 112.5
s-109.5 164.833 -109.5 271.5c0 104 37 192.333 111 265s162.667 111 266 115v1zM403.998 698c-90.667 -3.33301 -162.5 -36.833 -215.5 -100.5s-79.167 -137.834 -78.5 -222.501c1.33301 -81.333 30 -155.666 86 -222.999s127.333 -103.666 214 -108.999h5.5h4.5
c1.33301 -0.666992 2.83301 -1 4.5 -1h5.5c81.333 0 152 29.167 212 87.5s90 133.5 90 225.5c0 90 -30.5 169.667 -91.5 239s-136.167 103.666 -225.5 102.999h-2.5h-2.5h-3h-3v1z" />
    <glyph glyph-name="p" unicode="p" horiz-adv-x="641" 
d="M611 513l-0.000976562 -2.50098v-0.5v-1.5v-1.5c0 -56 -24.833 -104.667 -74.5 -146s-104.167 -64 -163.5 -68c-3.33301 -0.666992 -6.5 -1 -9.5 -1h-9.5c-8.66699 0 -17.167 0.5 -25.5 1.5s-16.833 2.5 -25.5 4.5l-36 9v-210c0 -11.333 0.5 -21.166 1.5 -29.499
s4.83301 -16.5 11.5 -24.5c4 -5.33301 11 -9.66602 21 -12.999s20.667 -6.66602 32 -9.99902c2 -0.666992 4 -1.16699 6 -1.5s4 -0.833008 6 -1.5c5.33301 -1.33301 10.333 -2.83301 15 -4.5l13 -4.5l22 -8h-339l23 7c5.33301 0.666992 11.5 2 18.5 4l21.5 6
c6.66699 2.66699 13.334 5.16699 20.001 7.5s12.667 4.83301 18 7.5c3.33301 1.33301 6.33301 3 9 5s4.66699 3.66699 6 5l5.5 9.5c1.66699 3 2.83398 6.16699 3.50098 9.5s1.16699 6.66602 1.5 9.99902s0.5 6.33301 0.5 9v5.5v4.5c-0.666992 2 -1 3.83301 -1 5.5v4.5v542
c0 8.66699 -0.5 16.667 -1.5 24s-4.16699 14.333 -9.5 21c-4.66699 5.33301 -12.167 10.5 -22.5 15.5s-21.166 9.83301 -32.499 14.5l-19.5 7.5l-17.5 6.5l-22 9h182c10 -0.666992 19.667 -0.833984 29 -0.500977s18.333 0.5 27 0.5h5h4c7.33301 0.666992 14.833 1 22.5 1
h23.5h21c7.33301 0 14.666 -0.333008 21.999 -1c7.33301 0 15 -0.666992 23 -2s16 -3 24 -5c41.333 -10 79.666 -33 114.999 -69s54 -86.667 56 -152v1zM364.999 684.999c-2 -0.666992 -4.00098 -1.00195 -6.00098 -1.00195h-7h-9.5h-9.5
c-11.333 -0.666992 -22.166 -1.66699 -32.499 -3s-17.5 -3.33301 -21.5 -6c-6 -4 -9.5 -9.33301 -10.5 -16s-1.5 -13.667 -1.5 -21v-1.5v-1.5v-279l30 -4c8 -2 15.833 -3.33301 23.5 -4s15.167 -1 22.5 -1c51.333 0 95 14.667 131 44s54 70.333 54 123v5.5v4.5
c-2 44.667 -14.667 78.834 -38 102.501s-48.333 39.834 -75 48.501c-8.66699 2.66699 -17.167 4.66699 -25.5 6s-16.5 2.33301 -24.5 3v1z" />
    <glyph glyph-name="q" unicode="q" horiz-adv-x="859" 
d="M511 -8l-24 -5.99902l9 -17c2 -3.33301 6 -7.5 12 -12.5s13.333 -10.167 22 -15.5c7.33301 -4 15 -7.83301 23 -11.5l24 -10.5c17.333 -7.33301 33.5 -13.666 48.5 -18.999s29.833 -9.66602 44.5 -12.999c19.333 -5.33301 39.166 -9.5 59.499 -12.5
s42.833 -5.5 67.5 -7.5c2.66699 0 5.33398 -0.166992 8.00098 -0.5s5 -0.5 7 -0.5h3h3c3.33301 0 7 -0.166992 11 -0.5s8.33301 -0.833008 13 -1.5l37 -4l-30 -13c-2 -0.666992 -3.83301 -1.33398 -5.5 -2.00098s-3.5 -1 -5.5 -1c-6.66699 -2 -13.667 -3.16699 -21 -3.5
s-15.333 -0.5 -24 -0.5h-4h-4h-4h-4h-13.5h-13.5c-66 0 -128.333 7.83301 -187 23.5s-106.334 35.167 -143.001 58.5c-4.66699 2.66699 -9 5.5 -13 8.5s-8 5.83301 -12 8.5c-5.33301 4 -10.333 8 -15 12l-14 12c-4.66699 4 -9.16699 8.33301 -13.5 13l-14.5 15l-20 4
c-8.66699 2 -17.5 4.16699 -26.5 6.5s-18.167 5.5 -27.5 9.5c-58.667 24 -112.667 65.5 -162 124.5s-74 135.167 -74 228.5c0 105.333 37.333 194 112 266s164.334 111.667 269.001 119c2 0 4.16699 0.166992 6.5 0.5s4.5 0.5 6.5 0.5h6.5h6.5h8.5h8.5
c93.333 -4.66699 178.833 -40.5 256.5 -107.5s116.167 -155.167 115.5 -264.5v-3v-3v-3.5v-3.5c-4 -102.667 -34.167 -185.334 -90.5 -248.001s-130.5 -104.334 -222.5 -125.001v0zM408 693.001c-90.667 -3.33301 -162.666 -36.166 -215.999 -98.499
s-80 -135.833 -80 -220.5v-2v-2v-2v-2c1.33301 -92.667 30.666 -169.334 87.999 -230.001s128.333 -94.667 213 -102c2 0 4 -0.166992 6 -0.5s4 -0.5 6 -0.5h5h6c76.667 0.666992 146.334 30.167 209.001 88.5s94 133.5 94 225.5
c0.666992 91.333 -29.833 171.833 -91.5 241.5s-137.834 104.167 -228.501 103.5h-2.5h-2.5h-3h-3v1z" />
    <glyph glyph-name="r" unicode="r" horiz-adv-x="764" 
d="M380 344l-19.9961 -3.99902l111 -123l33.5 -38.5l30.5 -34.5c2.66699 -3.33301 5.5 -6.5 8.5 -9.5s5.83301 -6.16699 8.5 -9.5c8 -8.66699 16.5 -17.334 25.5 -26.001l28.5 -28c6 -5.33301 11.167 -10.166 15.5 -14.499s8.83301 -8.5 13.5 -12.5
c2.66699 -2 5.16699 -4 7.5 -6s5.16602 -4 8.49902 -6c6 -4 12.833 -8.16699 20.5 -12.5s17.5 -9.5 29.5 -15.5l27 -12l-33 -8c-1.33301 -0.666992 -3 -1 -5 -1h-7c-10.667 0 -23.834 1.83301 -39.501 5.5s-31.834 8.16699 -48.501 13.5
c-18.667 7.33301 -41.167 24.333 -67.5 51l-81.5 86c-0.666992 0.666992 -1.33398 1.16699 -2.00098 1.5s-1 0.833008 -1 1.5c-6 6 -11.667 12 -17 18l-16 18l-146 156h-27v-237c0 -11.333 0.5 -21.166 1.5 -29.499s4.83301 -16.5 11.5 -24.5
c4 -5.33301 11.167 -9.83301 21.5 -13.5s21.166 -6.83398 32.499 -9.50098c2 -0.666992 3.83301 -1.33398 5.5 -2.00098s3.5 -1 5.5 -1c5.33301 -1.33301 10.333 -2.83301 15 -4.5l13 -4.5l22 -8h-339l23 7c5.33301 0.666992 11.5 2 18.5 4l21.5 6l21 7.5
c6.66699 2.33301 12.334 4.83301 17.001 7.5c4 1.33301 7.16699 3 9.5 5s4.16602 3.66699 5.49902 5c3.33301 4 5.66602 8.5 6.99902 13.5s2.33301 10.167 3 15.5v11.5v11.5v3v3v542c0 8.66699 -0.5 16.667 -1.5 24s-4.16699 14.333 -9.5 21
c-4.66699 5.33301 -12.167 10.5 -22.5 15.5s-21.166 9.83301 -32.499 14.5l-19.5 7.5l-17.5 6.5l-22 9h182c10 -0.666992 19.333 -0.833984 28 -0.500977s17.334 0.833008 26.001 1.5h4h4c7.33301 0 14.666 0.166992 21.999 0.5s15 0.5 23 0.5
c7.33301 0 14.833 -0.166992 22.5 -0.5s15.834 -0.833008 24.501 -1.5l15.5 -2l15.5 -2c40 -8.66699 77 -29.667 111 -63s51 -79.666 51 -138.999c0 -45.333 -11.167 -81 -33.5 -107s-46.833 -45.667 -73.5 -59c-12 -6 -24 -11 -36 -15s-23 -7.33301 -33 -10v1z
M334.004 695.001c-2 -0.666992 -3.83105 -1.00098 -5.49805 -1.00098s-3.16699 0.333008 -4.5 1h-5.5h-5.5h-2h-2c-12.667 0 -24.834 -0.833008 -36.501 -2.5s-19.5 -3.83398 -23.5 -6.50098c-6 -4 -9.5 -9.33301 -10.5 -16s-1.5 -13.667 -1.5 -21v-1.5v-1.5v-270l47 1
c52.667 0 98 14.5 136 43.5s56.667 67.167 56 114.5v6v6c-3.33301 40.667 -17.833 73.834 -43.5 99.501s-53.834 40.834 -84.501 45.501c-2 0.666992 -4.16699 1.16699 -6.5 1.5s-4.83301 0.5 -7.5 0.5v1z" />
    <glyph glyph-name="s" unicode="s" horiz-adv-x="490" 
d="M260 755c24 -0.666992 47.166 -2.50195 69.499 -5.50195s40.833 -6.5 55.5 -10.5c1.33301 0 2.83301 -0.166992 4.5 -0.5s3.16699 -0.833008 4.5 -1.5l20 -5l2 -193l-42 102c-9.33301 23.333 -23.666 38.833 -42.999 46.5s-44.333 12.167 -75 13.5h-2h-2h-2h-2
c-40.667 0 -74.834 -13.833 -102.501 -41.5s-41.5 -60.834 -41.5 -99.501c0 -25.333 8.16699 -47.166 24.5 -65.499s34.166 -33.833 53.499 -46.5c10.667 -6.66699 20.834 -12.5 30.501 -17.5s18.167 -9.16699 25.5 -12.5l15.5 -8l15.5 -8
c48.667 -24.667 91.834 -51.667 129.501 -81s57.167 -71.666 58.5 -126.999c1.33301 -66.667 -20.334 -117.667 -65.001 -153s-101.667 -53.333 -171 -54h-10c-3.33301 0 -6.66602 0.333008 -9.99902 1c-11.333 0.666992 -22.666 1.83398 -33.999 3.50098
s-21.666 3.5 -30.999 5.5c-8 2 -15.333 3.66699 -22 5s-12 2.33301 -16 3l-43 12l-5 190l34 -88c9.33301 -25.333 24.166 -43.333 44.499 -54s41.833 -17.667 64.5 -21c4 -0.666992 7.83301 -1.16699 11.5 -1.5s7.16699 -0.833008 10.5 -1.5c2 0 3.83301 -0.166992 5.5 -0.5
s3.16699 -0.5 4.5 -0.5h4.5h5.5c39.333 0 74.166 12 104.499 36s45.166 54.667 44.499 92v2v2v1v2c-2 35.333 -13.833 62.5 -35.5 81.5s-47.5 36.167 -77.5 51.5l-26.5 14l-27.5 15l-34.5 19l-32.5 18c-33.333 19.333 -60.666 41 -81.999 65s-33.333 59.333 -36 106v2.5v2.5
v2.5v2.5c0 62 23.5 110.5 70.5 145.5s99.5 52.833 157.5 53.5v1z" />
    <glyph glyph-name="t" unicode="t" horiz-adv-x="623" 
d="M26 756l41.9951 -16h472l52 19l-2 -224l-16 53c-0.666992 0.666992 -1.16699 1.5 -1.5 2.5s-0.5 1.83301 -0.5 2.5c-1.33301 4 -2.5 8 -3.5 12s-2.16699 8 -3.5 12c-4.66699 13.333 -9.66699 25.833 -15 37.5s-12.666 19.167 -21.999 22.5
c-3.33301 1.33301 -6.66602 2.33301 -9.99902 3s-6.66602 1 -9.99902 1c-3.33301 0.666992 -6.66602 1 -9.99902 1h-11h-3.5h-3.5l-132 1v-586c0 -11.333 0.5 -21.166 1.5 -29.499s4.83301 -16.5 11.5 -24.5c4 -5.33301 11.167 -9.83301 21.5 -13.5
s21.166 -6.83398 32.499 -9.50098c2 -0.666992 3.83301 -1.33398 5.5 -2.00098s3.5 -1 5.5 -1c5.33301 -1.33301 10.333 -2.83301 15 -4.5l13 -4.5l22 -8h-339l23 7c5.33301 0.666992 11.5 2 18.5 4l21.5 6c6.66699 2.66699 13.334 5.16699 20.001 7.5
s12.667 4.83301 18 7.5c3.33301 1.33301 6.33301 3 9 5s4.66699 3.66699 6 5l5.5 9.5c1.66699 3 2.83398 6.16699 3.50098 9.5s1.16699 6.66602 1.5 9.99902s0.5 6.33301 0.5 9v5.5v4.5c-0.666992 2 -1 3.83301 -1 5.5v4.5v583h-155c-3.33301 -0.666992 -6.5 -1 -9.5 -1
s-5.83301 -0.333008 -8.5 -1c-1.33301 -0.666992 -2.83301 -1.33398 -4.5 -2.00098s-3.16699 -1.33398 -4.5 -2.00098c-8 -5.33301 -14.333 -14.666 -19 -27.999s-8.66699 -27.666 -12 -42.999c-0.666992 -2 -1.16699 -4.16699 -1.5 -6.5s-0.833008 -4.5 -1.5 -6.5
c-0.666992 -3.33301 -1.5 -6.66602 -2.5 -9.99902s-1.83301 -6.66602 -2.5 -9.99902l-11 -34l-5 217v0z" />
    <glyph glyph-name="u" unicode="u" horiz-adv-x="882" 
d="M726 603l-0.00195312 -313.001c0 -115.333 -29.667 -195.166 -89 -239.499s-127 -66.166 -203 -65.499c-72.667 0.666992 -137.834 23.667 -195.501 69s-86.5 119.666 -86.5 222.999v362v3.5c0 1.66699 0.333008 3.5 1 5.5v5v6c0 2.66699 -0.166992 5.16699 -0.5 7.5
s-0.833008 4.83301 -1.5 7.5c-0.666992 4 -1.66699 7.83301 -3 11.5s-3.33301 7.16699 -6 10.5c-1.33301 1.33301 -3.33301 3 -6 5s-5.66699 3.66699 -9 5c-5.33301 2.66699 -11.333 5.16699 -18 7.5s-13.334 4.83301 -20.001 7.5l-21.5 6c-7 2 -13.167 3.66699 -18.5 5
l-23 8h339l-22 -9c-4 -2.66699 -8.66699 -4.66699 -14 -6s-11 -2.66602 -17 -3.99902c-1.33301 -0.666992 -2.66602 -1.16699 -3.99902 -1.5s-2.66602 -0.833008 -3.99902 -1.5c-11.333 -2.66699 -22.166 -5.83398 -32.499 -9.50098s-17.5 -7.83398 -21.5 -12.501
c-0.666992 -1.33301 -1.5 -2.5 -2.5 -3.5s-1.83301 -2.16699 -2.5 -3.5c-4 -7.33301 -6.33301 -14.833 -7 -22.5s-1 -16.167 -1 -25.5v-367c0 -80 18.167 -137.333 54.5 -172s82.833 -56.334 139.5 -65.001c5.33301 -0.666992 10.333 -1.16699 15 -1.5
s9.33398 -0.5 14.001 -0.5c55.333 0 104 20.5 146 61.5s63 95.833 63 164.5v374v0.5v1.5v14.5c0 5 -0.666992 10.167 -2 15.5c-0.666992 4 -1.83398 8 -3.50098 12s-3.83398 8 -6.50098 12c-1.33301 1.33301 -3.33301 2.83301 -6 4.5s-6 3.5 -10 5.5
c-4.66699 2 -10.167 4.16699 -16.5 6.5l-19.5 7.5c-8 2 -15.5 4.33301 -22.5 7l-18.5 7l-23 11h312l-20 -11c-5.33301 -3.33301 -11.5 -6 -18.5 -8s-14.167 -4.33301 -21.5 -7c-11.333 -3.33301 -22.166 -6.83301 -32.499 -10.5s-17.166 -7.83398 -20.499 -12.501
c-2.66699 -3.33301 -4.83398 -9.16602 -6.50098 -17.499s-3.16699 -17.166 -4.5 -26.499c-1.33301 -10 -2.16602 -19.167 -2.49902 -27.5s-0.5 -14.166 -0.5 -17.499v1z" />
    <glyph glyph-name="v" unicode="v" horiz-adv-x="855" 
d="M247 629l198.998 -502.004l185 503c1.33301 2 2.5 4.5 3.5 7.5s1.83301 6.16699 2.5 9.5c2 6.66699 3.5 13.167 4.5 19.5s1.5 11.5 1.5 15.5v3c0 0.666992 -0.333008 1.33398 -1 2.00098c-2 6.66699 -7.66699 12.667 -17 18s-19.333 10 -30 14
c-4 2 -7.66699 3.66699 -11 5l-10 4l-27 12h279l-22 -8c-1.33301 -1.33301 -2.83301 -2.16602 -4.5 -2.49902s-3.16699 -0.833008 -4.5 -1.5l-13 -4.5l-13 -4.5c-12 -3.33301 -23 -7.33301 -33 -12s-16.667 -10 -20 -16l-6 -10l-6 -10l-6.5 -13
c-2.33301 -4.66699 -4.5 -9.66699 -6.5 -15c-6 -12.667 -19 -45.834 -39 -99.501l-64 -175.5c-0.666992 -2.66699 -1.5 -5.16699 -2.5 -7.5s-1.83301 -4.5 -2.5 -6.5l-64 -181.5c-19.333 -56.333 -31.333 -91.833 -36 -106.5l-5.5 -19c-1.66699 -6 -3.5 -12 -5.5 -18v-0.5
v-0.5c-1.33301 -6 -3 -12.167 -5 -18.5l-6 -19.5h-51c-2.66699 6 -5.16699 11.333 -7.5 16s-4.5 9.66699 -6.5 15l-6 14.5c-2 5 -4 10.5 -6 16.5c-9.33301 28.667 -23.666 68 -42.999 118l-62 157c-0.666992 2.66699 -1.66699 5.5 -3 8.5s-2.66602 6.16699 -3.99902 9.5
l-74.5 183l-44.5 108c-2 4 -3.66699 7.83301 -5 11.5l-4 10.5c-0.666992 0.666992 -1 1.5 -1 2.5s-0.333008 1.83301 -1 2.5c-1.33301 3.33301 -2.83301 6.83301 -4.5 10.5s-3.5 7.5 -5.5 11.5c-3.33301 6 -9.16602 11.167 -17.499 15.5s-17.833 8.5 -28.5 12.5
c-0.666992 0 -1.5 0.333008 -2.5 1s-2.16699 1 -3.5 1l-14.5 6c-5 2 -9.83301 4.33301 -14.5 7l-20 12h295l-25 -11c-4 -2 -8.33301 -3.83301 -13 -5.5l-15 -5.5c-9.33301 -3.33301 -17.833 -7.16602 -25.5 -11.499s-12.5 -9.83301 -14.5 -16.5v-1.5v-0.5
c-0.666992 -0.666992 -1 -1.16699 -1 -1.5v-1.5c0 -4 0.666992 -8.5 2 -13.5s2.66602 -10.5 3.99902 -16.5c0.666992 -1.33301 1.16699 -2.66602 1.5 -3.99902s0.833008 -2.66602 1.5 -3.99902l3.5 -10.5c1 -3 1.83301 -5.83301 2.5 -8.5v1z" />
    <glyph glyph-name="w" unicode="w" horiz-adv-x="1284" 
d="M703 617l5.49609 -13.002c1.66699 -4 3.16699 -8 4.5 -12l102.5 -244c32.333 -78 59.833 -139.667 82.5 -185l165 468c1.33301 2 2.5 4.66699 3.5 8s1.83301 6.33301 2.5 9c2 7.33301 3.66699 14.333 5 21s2 12 2 16v1.5v1.5c-0.666992 0.666992 -1 1.16699 -1 1.5v0.5
c-2 6 -7.66699 11.5 -17 16.5s-19.666 9.5 -30.999 13.5c-3.33301 1.33301 -6.5 2.66602 -9.5 3.99902s-6.16699 2.66602 -9.5 3.99902l-27 12h278l-22 -8c-1.33301 -1.33301 -2.83301 -2.16602 -4.5 -2.49902s-3.16699 -0.833008 -4.5 -1.5l-13 -4.5l-13 -4.5
c-12 -3.33301 -23 -7.33301 -33 -12s-16.667 -10 -20 -16l-6 -10c-2 -3.33301 -3.66699 -6.66602 -5 -9.99902c-2.66699 -4 -5 -8.33301 -7 -13s-4 -9.66699 -6 -15c-6 -12.667 -18.5 -45.667 -37.5 -99l-60.5 -174c-0.666992 -2 -1.33398 -4.16699 -2.00098 -6.5
s-1.66699 -4.5 -3 -6.5l-60 -179.5l-35 -105.5c-2 -7.33301 -3.66699 -14.166 -5 -20.499s-2.33301 -12.5 -3 -18.5c0 -3.33301 -0.166992 -6.5 -0.5 -9.5s-0.5 -6.16699 -0.5 -9.5c0 -4 -0.166992 -7.83301 -0.5 -11.5s-0.833008 -7.83398 -1.5 -12.501h-49l-5.5 16
l-5.5 15c-0.666992 1.33301 -1.16699 2.83301 -1.5 4.5s-0.833008 3.16699 -1.5 4.5c-1.33301 3.33301 -2.5 6.83301 -3.5 10.5s-2.16699 7.5 -3.5 11.5c-8 24.667 -18 53.167 -30 85.5l-38 98.5c-2 4.66699 -3.83301 9.33398 -5.5 14.001s-3.5 9 -5.5 13l-57 142
c-18 43.333 -30 71.333 -36 84l-33 73l-35 -85c-4 -10 -12.833 -34.667 -26.5 -74l-43.5 -127c0 -1.33301 -0.166992 -2.5 -0.5 -3.5s-0.833008 -1.83301 -1.5 -2.5l-41 -122.5l-26 -78.5l-5.5 -20c-1.66699 -6 -3.16699 -12 -4.5 -18
c0 -1.33301 -0.166992 -2.83301 -0.5 -4.5s-0.833008 -3.16699 -1.5 -4.5c-0.666992 -5.33301 -1.66699 -10.5 -3 -15.5s-2.66602 -10.5 -3.99902 -16.5h-49l-5.5 16c-1.66699 4.66699 -3.16699 9.66699 -4.5 15c-1.33301 4.66699 -2.83301 9.5 -4.5 14.5l-5.5 16.5
c-9.33301 28.667 -23.666 68 -42.999 118l-62 157c-0.666992 2.66699 -1.66699 5.5 -3 8.5s-2.66602 6.16699 -3.99902 9.5l-74.5 183l-44.5 108l-3.5 9c-1 2.66699 -2.16699 5.33398 -3.5 8.00098c-0.666992 2 -1.16699 3.66699 -1.5 5s-1.16602 3 -2.49902 5
c-1.33301 3.33301 -2.83301 6.83301 -4.5 10.5s-3.5 7.5 -5.5 11.5c-3.33301 6 -9.16602 11.167 -17.499 15.5s-17.833 8.5 -28.5 12.5c-0.666992 0 -1.5 0.333008 -2.5 1s-2.16699 1 -3.5 1l-14.5 6c-5 2 -9.83301 4.33301 -14.5 7l-20 12h304l-26 -11c-4 -2 -9 -4 -15 -6
s-12.333 -4 -19 -6c-9.33301 -3.33301 -18.166 -7.33301 -26.499 -12s-13.5 -10.334 -15.5 -17.001c-0.666992 -1.33301 -1 -2.83301 -1 -4.5v-6.5c0 -3.33301 0.166992 -7 0.5 -11s0.833008 -8.33301 1.5 -13l4 -16c1.33301 -5.33301 2.66602 -10 3.99902 -14l198 -471
l51.5 141.5l77.5 213.5l19.5 55.5l19.5 54.5l13 37c4 11.333 7.66699 22.333 11 33l1 1v1l12 33.5l13 38.5l9.5 -30.5l8.5 -27.5c0.666992 -3.33301 1.66699 -6.66602 3 -9.99902s2.33301 -6.66602 3 -9.99902c3.33301 -10.667 7.16602 -21.334 11.499 -32.001l14.5 -35v1z
" />
    <glyph glyph-name="x" unicode="x" horiz-adv-x="745" 
d="M382 440l103.001 187.001c1.33301 1.33301 2.66602 3.16602 3.99902 5.49902s2.66602 4.83301 3.99902 7.5c5.33301 10.667 9.83301 21 13.5 31s5.16699 16.333 4.5 19c-2.66699 6.66699 -8.83398 12.5 -18.501 17.5s-19.834 9.83301 -30.501 14.5
c-2.66699 0.666992 -5.33398 1.5 -8.00098 2.5s-5.33398 2.16699 -8.00098 3.5l-27 12h284l-22 -8c-3.33301 -2 -6.66602 -3.5 -9.99902 -4.5s-6.66602 -2.16699 -9.99902 -3.5c-6.66699 -2 -13.5 -4.16699 -20.5 -6.5s-14.167 -5.16602 -21.5 -8.49902l-15 -9
c-5.33301 -3.33301 -10.666 -7.33301 -15.999 -12c-7.33301 -6.66699 -14.5 -14.667 -21.5 -24s-13.833 -19.666 -20.5 -30.999l-138 -242l172 -283c6.66699 -11.333 13.167 -21.833 19.5 -31.5s11.833 -18.834 16.5 -27.501c3.33301 -6.66699 10.666 -12.667 21.999 -18
s23 -10.333 35 -15l10 -4c3.33301 -1.33301 6.33301 -2.66602 9 -3.99902l21 -8h-279l25 10c0.666992 -0.666992 1.33398 -0.833984 2.00098 -0.500977l3 1.5l4 2c1.33301 0.666992 2.66602 1 3.99902 1c8.66699 4 16.834 8.33301 24.501 13s12.834 11.334 15.501 20.001v2
v2c0 3.33301 -0.833008 7.66602 -2.5 12.999s-3.83398 11 -6.50098 17c-0.666992 2 -1.66699 4.16699 -3 6.5s-2.33301 4.83301 -3 7.5c-1.33301 2.66699 -2.66602 5.16699 -3.99902 7.5s-2.66602 4.5 -3.99902 6.5l-124 208l-118 -208l-6 -11.5
c-2 -3.66699 -4.33301 -7.5 -7 -11.5c0 -0.666992 -0.166992 -1 -0.5 -1s-0.5 -0.333008 -0.5 -1c-4.66699 -8 -8.83398 -15.667 -12.501 -23s-5.16699 -12 -4.5 -14c2.66699 -6.66699 8 -12.334 16 -17.001s17 -9.33398 27 -14.001c2 -0.666992 4.33301 -1.5 7 -2.5
s5.33398 -2.16699 8.00098 -3.5l27 -10h-273l22 8c3.33301 0.666992 6.83301 1.5 10.5 2.5s7.16699 2.16699 10.5 3.5l20 6c6.66699 2 13.667 4.66699 21 8c4.66699 2.66699 9.66699 5.83398 15 9.50098s10.666 7.83398 15.999 12.501c7.33301 7.33301 14.333 15.5 21 24.5
s13.334 19.167 20.001 30.5l152 259l-166 271c-3.33301 5.33301 -7 10.5 -11 15.5l-12 14.5l-13 11.5l-11 10.5c-3.33301 3.33301 -7.83301 6.66602 -13.5 9.99902l-18.5 11c-4 1.33301 -8.16699 3 -12.5 5l-12.5 6c-3.33301 1.33301 -6.5 2.83301 -9.5 4.5
s-5.83301 3.16699 -8.5 4.5l-22 12h302l-26 -11l-8 -4c-2.66699 -1.33301 -5.66699 -2.66602 -9 -3.99902c-8.66699 -4 -16.667 -9 -24 -15s-12 -13 -14 -21c-0.666992 -0.666992 -1 -1.66699 -1 -3v-4c0 -3.33301 0.333008 -6.83301 1 -10.5s1.66699 -7.5 3 -11.5l4 -10
c1.33301 -3.33301 3 -6.66602 5 -9.99902c0 -0.666992 0.166992 -1.33398 0.5 -2.00098s0.833008 -1.33398 1.5 -2.00098l121 -192v0z" />
    <glyph glyph-name="y" unicode="y" horiz-adv-x="762" 
d="M350 350l-65.0059 122.999l-15.5 28.5c-5.66699 10.333 -11.834 20.5 -18.501 30.5c-3.33301 6 -6.83301 11.833 -10.5 17.5l-10.5 16.5l-25.5 38l-22.5 32c-10 14 -21 26.333 -33 37s-24.333 19.667 -37 27c-7.33301 4.66699 -14.666 8.83398 -21.999 12.501
s-14.333 6.83398 -21 9.50098l-39 19l36 8c2 0 4.5 0.166992 7.5 0.5s5.83301 0.166016 8.5 -0.500977c9.33301 0 20.333 -1.16699 33 -3.5s25.667 -5.83301 39 -10.5c12.667 -4.66699 25 -10.167 37 -16.5s22.667 -13.833 32 -22.5
c13.333 -12.667 26.166 -26.667 38.499 -42s23.833 -30.666 34.5 -45.999c9.33301 -13.333 17.833 -26.666 25.5 -39.999l21.5 -37l59 -106l116 202c1.33301 1.33301 2.5 2.83301 3.5 4.5s1.83301 3.5 2.5 5.5c6 10.667 10.833 20.667 14.5 30s5.16699 16 4.5 20v1.5v1.5
c-1.33301 3.33301 -3.16602 6.33301 -5.49902 9s-5.5 5.33398 -9.5 8.00098c-6 3.33301 -13.667 6.83301 -23 10.5l-36 14.5l-17 8h283l-21 -8c-3.33301 -2 -6.66602 -3.5 -9.99902 -4.5s-6.66602 -2.16699 -9.99902 -3.5c-6.66699 -2 -13.5 -4.16699 -20.5 -6.5
s-14.167 -5.16602 -21.5 -8.49902l-15 -9c-5.33301 -3.33301 -10.666 -7.33301 -15.999 -12c-4 -3.33301 -7.66699 -7.5 -11 -12.5l-10 -15.5l-8 -14.5c-2.66699 -5 -5.66699 -10.167 -9 -15.5l-148 -251l-1 -282c0 -10 0.5 -18.833 1.5 -26.5s3.83301 -14.834 8.5 -21.501
c0.666992 -1.33301 1.33398 -2.33301 2.00098 -3s1.33398 -1.66699 2.00098 -3c4 -5.33301 11.167 -9.83301 21.5 -13.5s21.166 -6.83398 32.499 -9.50098c2 -0.666992 3.83301 -1.33398 5.5 -2.00098s3.5 -1 5.5 -1c4.66699 -1.33301 9.5 -2.83301 14.5 -4.5l13.5 -4.5
l22 -8h-339l23 7c5.33301 0.666992 11.5 2 18.5 4l21.5 6c6.66699 2.66699 13.334 5.16699 20.001 7.5s12.667 4.83301 18 7.5c3.33301 1.33301 6.33301 3 9 5s4.66699 3.66699 6 5l5.5 9.5c1.66699 3 2.83398 6.16699 3.50098 9.5s1.16699 6.66602 1.5 9.99902
s0.5 6.33301 0.5 9v5.5v4.5c-0.666992 2 -1 3.83301 -1 5.5v4.5v250v0z" />
    <glyph glyph-name="z" unicode="z" horiz-adv-x="689" 
d="M660 741l-29.5 -41.498l-26.5 -35.5c-9.33301 -11.333 -18.5 -23.166 -27.5 -35.499l-29.5 -40.5l-101.5 -137.5l-87.5 -123.5c-2.66699 -2.66699 -5 -5.5 -7 -8.5s-4 -6.16699 -6 -9.5l-85.5 -122.5l-97.5 -138.5l331 1c5.33301 -0.666992 10 -0.833984 14 -0.500977
s8.33301 0.833008 13 1.5c4 1.33301 8.16699 2.5 12.5 3.5s8.83301 2.5 13.5 4.5c11.333 4.66699 21 10.834 29 18.501s15 15.5 21 23.5s11 15.667 15 23s8 13.333 12 18l28 36l-66 -191l-27 14h-532l491 689h-347c-4 -0.666992 -9.5 -1.33398 -16.5 -2.00098
s-14.167 -1.66699 -21.5 -3c-9.33301 -1.33301 -18 -2.83301 -26 -4.5s-13.333 -3.5 -16 -5.5c-4.66699 -2.66699 -9 -8.83398 -13 -18.501s-7.66699 -19.834 -11 -30.501c-2 -6.66699 -3.83301 -13.5 -5.5 -20.5s-3.16699 -12.833 -4.5 -17.5l-14 -46l-3 210l39 -10h582v0z
" />
    <glyph glyph-name="braceleft" unicode="{" horiz-adv-x="274" 
d="M112 325l-14.0049 -4.99902l16 -8c0.666992 -0.666992 1.5 -1.16699 2.5 -1.5s1.83301 -0.833008 2.5 -1.5c7.33301 -3.33301 13.833 -6.83301 19.5 -10.5s10.834 -9.16699 15.501 -16.5l5.5 -7.5c1.66699 -2.33301 3.16699 -4.83301 4.5 -7.5
c2 -4 3.66699 -8.33301 5 -13s2 -10 2 -16v-248c0 -15.333 1.33301 -29 4 -41s9 -23.333 19 -34c1.33301 -2 2.83301 -3.83301 4.5 -5.5l4.5 -4.5c4 -4 8.33301 -7.5 13 -10.5s10.334 -5.5 17.001 -7.5l19 -5h-31c-6.66699 0 -13.167 0.333008 -19.5 1
s-13.166 1.66699 -20.499 3c-10.667 2.66699 -21.167 6.66699 -31.5 12s-20.166 12.333 -29.499 21c-8 8 -13.833 19.333 -17.5 34s-5.83398 30 -6.50098 46c-0.666992 8.66699 -1 17.834 -1 27.501v26.5v8v8v167v14c0 6 -0.833008 11.667 -2.5 17
s-4.16699 10.666 -7.5 15.999c-1.33301 1.33301 -2.66602 2.83301 -3.99902 4.5s-2.66602 3.5 -3.99902 5.5c-3.33301 4 -7 7 -11 9l-12 6c-2 0.666992 -4.16699 1.5 -6.5 2.5s-4.83301 2.16699 -7.5 3.5l-13 7l12 5c2.66699 0.666992 5.16699 1.5 7.5 2.5
s4.5 2.16699 6.5 3.5c5.33301 2 10.166 4.5 14.499 7.5s8.5 6.5 12.5 10.5c0.666992 0.666992 1.33398 1.5 2.00098 2.5s1.33398 1.83301 2.00098 2.5l4.5 6.5c1.66699 2.33301 2.83398 4.5 3.50098 6.5c2.66699 4.66699 4.66699 9.66699 6 15s2.33301 11.333 3 18l2 12
l5 231c0 4 0.333008 8.5 1 13.5s1.66699 9.83301 3 14.5c2 8 4.83301 16 8.5 24s8.83398 15.667 15.501 23c12.667 13.333 26 22.166 40 26.499s30 6.5 48 6.5l37 1l-19 -7c-8 -4 -14.667 -8 -20 -12s-10.333 -9.33301 -15 -16
c-0.666992 -0.666992 -1.33398 -1.5 -2.00098 -2.5s-1.33398 -1.83301 -2.00098 -2.5c-2.66699 -4 -5.16699 -8.16699 -7.5 -12.5s-4.16602 -8.83301 -5.49902 -13.5c-2 -8 -3.5 -15.5 -4.5 -22.5s-1.5 -12.833 -1.5 -17.5l-5 -208v-16
c0 -3.33301 -0.666992 -8.83301 -2 -16.5s-3.33301 -15.834 -6 -24.501c-2 -5.33301 -4.16699 -10.333 -6.5 -15s-5.16602 -9 -8.49902 -13c-0.666992 -1.33301 -1.5 -2.5 -2.5 -3.5l-2.5 -2.5c-4.66699 -5.33301 -9.83398 -9.66602 -15.501 -12.999
s-11.834 -6.33301 -18.501 -9l-3 -1.5c-0.666992 -0.333008 -1.33398 -0.5 -2.00098 -0.5v1z" />
    <glyph glyph-name="bar" unicode="|" horiz-adv-x="138" 
d="M102 752l1 -867h-77v867h76v0z" />
    <glyph glyph-name="braceright" unicode="}" horiz-adv-x="293" 
d="M190 319l-13.998 5.00391c-8 2 -14.833 4.66699 -20.5 8s-11.167 7.66602 -16.5 12.999c-1.33301 1.33301 -2.5 2.66602 -3.5 3.99902s-2.16699 2.66602 -3.5 3.99902c-3.33301 4 -6.16602 8.33301 -8.49902 13s-4.5 9.66699 -6.5 15
c-2.66699 8.66699 -4.66699 16.834 -6 24.501s-2 12.834 -2 15.501v17l-5 209c0 4 -0.5 9.5 -1.5 16.5s-2.5 14.5 -4.5 22.5c-1.33301 4.66699 -3 9.33398 -5 14.001s-4.66699 9 -8 13c-0.666992 0.666992 -1.33398 1.5 -2.00098 2.5s-1.33398 1.83301 -2.00098 2.5
c-4.66699 6 -9.66699 11 -15 15s-12 7.66699 -20 11l-20 8h39c18 -0.666992 33.833 -3 47.5 -7s26.834 -12.667 39.501 -26c7.33301 -8 13 -16.667 17 -26s7 -18.666 9 -27.999c0.666992 -4 1.16699 -7.83301 1.5 -11.5s0.5 -7.5 0.5 -11.5l5 -229l1 -12
c1.33301 -7.33301 2.66602 -13.666 3.99902 -18.999s3.33301 -10.333 6 -15c0.666992 -2 1.83398 -4.16699 3.50098 -6.5l4.5 -6.5c5.33301 -6 10.666 -10.833 15.999 -14.5s11.333 -6.83398 18 -9.50098l5 -2.5c2 -1 4 -1.83301 6 -2.5l12 -5l-13 -5
c-2 -2 -4.16699 -3.33301 -6.5 -4s-4.5 -1.66699 -6.5 -3c-2 -0.666992 -4.33301 -1.66699 -7 -3s-5 -3 -7 -5c-1.33301 -0.666992 -2.83301 -1.66699 -4.5 -3s-3.5 -3 -5.5 -5c-6.66699 -6.66699 -11.334 -13.334 -14.001 -20.001s-4 -14.667 -4 -24v-12v-167v-9v-8v-26
c0 -9.33301 -0.333008 -18.666 -1 -27.999c-0.666992 -15.333 -2.83398 -30.333 -6.50098 -45s-9.5 -26 -17.5 -34c-9.33301 -8.66699 -19.166 -15.667 -29.499 -21s-20.833 -9.33301 -31.5 -12c-7.33301 -2 -14.166 -3.33301 -20.499 -4s-12.833 -1 -19.5 -1h-30l18 6
c7.33301 2 13.5 4.5 18.5 7.5s9.83301 6.83301 14.5 11.5c1.33301 1.33301 2.5 2.66602 3.5 3.99902s2.16699 2.66602 3.5 3.99902s2.33301 2.66602 3 3.99902s1.66699 2.66602 3 3.99902c6.66699 10 11 20.333 13 31s3 22.667 3 36v249c0 6 0.666992 11.333 2 16
s3.33301 9.33398 6 14.001l4.5 6.5c1.66699 2.33301 3.16699 4.83301 4.5 7.5c5.33301 7.33301 11.166 13.166 17.499 17.499s13.833 8.16602 22.5 11.499l16 8v0z" />
    <glyph glyph-name="asciitilde" unicode="~" horiz-adv-x="396" 
d="M349 691c-7.33301 -13.333 -16.3281 -24.665 -26.9951 -33.998s-22 -16.666 -34 -21.999c-5.33301 -2 -10.5 -3.5 -15.5 -4.5s-9.83301 -1.5 -14.5 -1.5c-12.667 0 -23.834 2.83301 -33.501 8.5s-18.834 11.834 -27.501 18.501s-17.834 12.834 -27.501 18.501
s-20.834 8.5 -33.501 8.5h-0.5h-1.5c-12.667 -0.666992 -22.834 -2.33398 -30.501 -5.00098s-14.834 -6 -21.501 -10c-4 -2 -8.33301 -4.5 -13 -7.5s-9.66699 -5.83301 -15 -8.5l-32 -16l18 33c8 14 19.333 27 34 39s30 20 46 24c2.66699 1.33301 5.5 2.16602 8.5 2.49902
s5.83301 0.5 8.5 0.5h0.5h1.5h1.5h0.5c12 0 22.167 -2.83301 30.5 -8.5s16.5 -11.834 24.5 -18.501s16.167 -12.834 24.5 -18.501s18.5 -8.5 30.5 -8.5h1.5h1.5c14.667 1.33301 26.334 3.16602 35.001 5.49902s17 5.5 25 9.5c4.66699 2 9.5 4.33301 14.5 7l17.5 9l24 12
l-21 -33v0z" />
    <glyph glyph-name="endash" unicode="&#xa1;" horiz-adv-x="225" 
d="M62 -235l14 526l51 -25l29 -525l-94 24v0zM82 337l-47 151l151 -43l-104 -108v0z" />
    <glyph glyph-name="cent" unicode="&#xa2;" horiz-adv-x="468" 
d="M286 655l12.5049 -0.00878906h10.5c3.33301 0 6.66602 -0.166992 9.99902 -0.5s6.33301 -0.5 9 -0.5l13.5 -2l13.5 -2c5.33301 -0.666992 10.333 -1.5 15 -2.5s9 -2.16699 13 -3.5c4 -0.666992 8 -1.66699 12 -3s8.33301 -2.66602 13 -3.99902l-3 -120l-21 40
c-0.666992 0.666992 -1.33398 1.5 -2.00098 2.5s-1.33398 1.83301 -2.00098 2.5c-4.66699 8 -9.5 13.833 -14.5 17.5s-10.833 7.16699 -17.5 10.5c-2 0.666992 -3.83301 1.33398 -5.5 2.00098s-3.5 1.33398 -5.5 2.00098c-4 2 -8 3.66699 -12 5s-7.66699 2.33301 -11 3
c-2.66699 0 -5.33398 0.166992 -8.00098 0.5s-5.66699 0.5 -9 0.5h-2h-2h-2h-2v-361c10.667 -0.666992 20.167 -0.166992 28.5 1.5s16.5 4.16699 24.5 7.5c5.33301 2 10.5 4.33301 15.5 7s10.167 5.66699 15.5 9c1.33301 0.666992 2.5 1.33398 3.5 2.00098
s1.83301 1.33398 2.5 2.00098c6 4.66699 11.167 9.33398 15.5 14.001s8.5 9.66699 12.5 15c2 2.66699 3.83301 5.33398 5.5 8.00098s3.5 5.33398 5.5 8.00098l19 30l-21 -126c-6 -3.33301 -11.667 -6 -17 -8s-10.666 -3.66699 -15.999 -5
c-6.66699 -2 -13.334 -3.83301 -20.001 -5.5s-14 -3.16699 -22 -4.5c-4.66699 -0.666992 -8.83398 -1.16699 -12.501 -1.5s-7.5 -0.833008 -11.5 -1.5c-4 0 -7.83301 -0.166992 -11.5 -0.5s-7.83398 -0.5 -12.501 -0.5v-75h-53v72l-34 10c-52 13.333 -94.333 40 -127 80
s-49 87.333 -49 142c0.666992 55.333 18.334 102.833 53.001 142.5s75.667 65.834 123 78.501l28 9v71h52v-68v0zM237.005 596.991l-24.001 -7c-28.667 -8 -53.167 -27.333 -73.5 -58s-30.166 -65.334 -29.499 -104.001v-3v-3v-3.5v-3.5
c2.66699 -37.333 13.667 -71.166 33 -101.499s40.333 -49.833 63 -58.5c1.33301 -0.666992 2.83301 -1.16699 4.5 -1.5s3.16699 -0.833008 4.5 -1.5l22 -5v350v0z" />
    <glyph glyph-name="sterling" unicode="&#xa3;" horiz-adv-x="565" 
d="M286 734c1.33301 -0.666992 2.66797 -1.00098 4.00098 -1.00098h4h4h4c26.667 0 52 -3.16699 76 -9.5s44.333 -13.166 61 -20.499c2.66699 -1.33301 5.16699 -2.5 7.5 -3.5s4.5 -2.16699 6.5 -3.5l37 -19l-11 -161l-19 71c-8.66699 32.667 -27.167 56 -55.5 70
s-59.166 21 -92.499 21h-8c-2.66699 0 -5.33398 -0.333008 -8.00098 -1c-2.66699 0 -5.33398 -0.166992 -8.00098 -0.5s-5.33398 -0.5 -8.00098 -0.5c-29.333 -4 -56.666 -15.5 -81.999 -34.5s-44.333 -39.5 -57 -61.5c-4 -8 -7.33301 -15.833 -10 -23.5
s-4 -15.167 -4 -22.5c0 -19.333 1.33301 -37 4 -53s7 -31 13 -45l49 -111h139v-52h-120c1.33301 -10 2.5 -19.333 3.5 -28s1.5 -17.334 1.5 -26.001c0 -7.33301 -0.333008 -15 -1 -23s-2 -16.667 -4 -26c0 -1.33301 -0.166992 -2.83301 -0.5 -4.5
s-0.833008 -3.16699 -1.5 -4.5c-2 -10 -4.66699 -19.667 -8 -29s-6.66602 -18 -9.99902 -26c-2.66699 -7.33301 -5.5 -14.166 -8.5 -20.499l-7.5 -15.5l258 1c3.33301 -0.666992 6.16602 -0.833984 8.49902 -0.500977s4.83301 0.833008 7.5 1.5
c2.66699 0 5.33398 0.5 8.00098 1.5s5.33398 1.83301 8.00098 2.5c3.33301 0.666992 7.16602 3.83398 11.499 9.50098s8.5 12.834 12.5 21.501c2.66699 3.33301 5 7.16602 7 11.499l6 12.5c4 8.66699 7.66699 17.167 11 25.5s6.33301 15.166 9 20.499l12 28l-14 -205h-503
l30 29c6 4.66699 11.833 9.66699 17.5 15s10.834 10.666 15.501 15.999c20 20 36.5 40.667 49.5 62s19.833 46 20.5 74c0 10.667 -0.666992 19.834 -2 27.501s-3.33301 15.167 -6 22.5c-1.33301 4 -2.83301 8.16699 -4.5 12.5s-3.83398 8.83301 -6.50098 13.5l-107 1v52h81
l-21 41c-0.666992 0.666992 -1.33398 1.66699 -2.00098 3s-1.33398 3 -2.00098 5c-0.666992 1.33301 -1.5 2.66602 -2.5 3.99902s-1.83301 3 -2.5 5c-9.33301 18.667 -17.833 37.834 -25.5 57.501s-11.5 41.5 -11.5 65.5v10.5c0 3.66699 0.333008 7.16699 1 10.5
c6.66699 61.333 33.834 110.333 81.501 147s102.5 56.334 164.5 59.001v1z" />
    <glyph glyph-name="Idieresis" unicode="&#xa4;" horiz-adv-x="336" 
d="M40 176l34.9961 36.001c-6.66699 8.66699 -11.5 18.5 -14.5 29.5s-4.5 22.167 -4.5 33.5c0 12.667 1.83301 24.834 5.5 36.501s8.83398 22.5 15.501 32.5l-6 6.5l-13 13.5c-5.33301 4.66699 -10 9 -14 13l-6 6l25 27c0 -0.666992 2 -3 6 -7l14 -14l13 -13l6 -6
c8.66699 5.33301 18.334 9.66602 29.001 12.999s22.334 5 35.001 5h1.5h1.5h0.5h1.5c12.667 -0.666992 24.167 -2.83398 34.5 -6.50098s19.5 -8.16699 27.5 -13.5l6.5 6.5c4.33301 4.33301 8.83301 9.16602 13.5 14.499c5.33301 4.66699 10 9.16699 14 13.5l6 6.5l27 -26
c0 -0.666992 -2.16699 -3.16699 -6.5 -7.5s-8.83301 -9.16602 -13.5 -14.499c-5.33301 -4.66699 -10.166 -9.33398 -14.499 -14.001l-6.5 -7c6 -8.66699 10.5 -18.5 13.5 -29.5s4.5 -22.167 4.5 -33.5c0 -10.667 -1.5 -21.334 -4.5 -32.001s-7.5 -20.667 -13.5 -30l6.5 -7
c4.33301 -4.66699 9.5 -9.66699 15.5 -15l14.5 -14.5l6.5 -6.5l-26 -25l-42 42c-8.66699 -7.33301 -18.667 -13 -30 -17s-23.666 -6 -36.999 -6h-1.5h-0.5h-1.5h-1.5c-12 0.666992 -23 2.83398 -33 6.50098s-19 7.83398 -27 12.501l-5.5 -5.5l-12.5 -12.5
c-4.66699 -4 -8.83398 -8 -12.501 -12l-5.5 -6l-26 27v0zM161.996 200.001c0 -0.666992 0.166992 -1 0.5 -1h1.5h1.5h0.5c24.667 0 43.667 8 57 24s20 33.333 20 52v1.5v1.5c0 19.333 -6.33301 37 -19 53s-31.667 24.333 -57 25h-1.5h-1.5c-26 0 -45.5 -8.33301 -58.5 -25
s-19.5 -35 -19.5 -55c0 -18.667 6.33301 -36 19 -52s31.667 -24.333 57 -25v1z" />
    <glyph glyph-name="ae" unicode="&#xa5;" horiz-adv-x="775" 
d="M622 371l-192 1.00293v-43h190v-53h-190l1 -179c0 -11.333 0.5 -21.166 1.5 -29.499s4.83301 -16.5 11.5 -24.5c4 -5.33301 11.167 -9.83301 21.5 -13.5s21.166 -6.83398 32.499 -9.50098c2 -0.666992 3.83301 -1.33398 5.5 -2.00098s3.5 -1 5.5 -1
c5.33301 -1.33301 10.333 -2.83301 15 -4.5l13 -4.5l21 -8h-338l23 7c5.33301 0.666992 11.5 2 18.5 4l21.5 6c6.66699 2.66699 13.334 5.16699 20.001 7.5s12.667 4.83301 18 7.5c3.33301 1.33301 6.33301 3 9 5s4.66699 3.66699 6 5l5.5 9.5
c1.66699 3 2.83398 6.16699 3.50098 9.5s1.16699 6.66602 1.5 9.99902s0.5 6.33301 0.5 9v5.5v4.5c-0.666992 2 -1 3.83301 -1 5.5v4.5l-1 176h-186v53h186l1 21l-10 22l-175 -1v54l146 -1l-25 49l-16 28.5c-6 10.333 -12.333 20.5 -19 30.5
c-2.66699 4.66699 -5.66699 9.5 -9 14.5s-6.33301 9.83301 -9 14.5l-27 40.5c-8.66699 13 -16.667 24.5 -24 34.5c-9.33301 13.333 -19.833 25.166 -31.5 35.499s-23.167 19.166 -34.5 26.499c-8 4.66699 -15.833 9 -23.5 13s-15.167 7.66699 -22.5 11l-40 19l35 8
c2 0 4.5 0.166992 7.5 0.5s5.83301 0.166016 8.5 -0.500977c9.33301 0 20.333 -1.16699 33 -3.5s26 -5.83301 40 -10.5c12.667 -4.66699 25 -10.167 37 -16.5s22.667 -13.833 32 -22.5c13.333 -12.667 26.166 -26.667 38.499 -42s23.833 -30.666 34.5 -45.999
c9.33301 -13.333 18 -26.666 26 -39.999s15 -25.666 21 -36.999l58 -106l117 202c1.33301 1.33301 2.66602 3.16602 3.99902 5.49902s2.66602 4.83301 3.99902 7.5c5.33301 10.667 9.83301 21 13.5 31s5.16699 16.333 4.5 19c-2.66699 6 -8.83398 11.5 -18.501 16.5
s-19.834 9.83301 -30.501 14.5c-2.66699 1.33301 -5.5 2.5 -8.5 3.5s-5.83301 2.16699 -8.5 3.5l-27 12h284l-22 -8c-3.33301 -2 -6.66602 -3.5 -9.99902 -4.5s-6.66602 -2.16699 -9.99902 -3.5c-7.33301 -2 -14.833 -4.33301 -22.5 -7s-15.167 -6 -22.5 -10
c-4.66699 -2.66699 -9.16699 -5.5 -13.5 -8.5s-8.83301 -6.5 -13.5 -10.5s-8.66699 -8.5 -12 -13.5s-6.66602 -10.5 -9.99902 -16.5c-2.66699 -4 -5.16699 -8.5 -7.5 -13.5s-5.16602 -9.83301 -8.49902 -14.5l-121 -206l164 1v-54v0z" />
    <glyph glyph-name="brokenbar" unicode="&#xa6;" 
 />
    <glyph glyph-name="section" unicode="&#xa7;" horiz-adv-x="513" 
d="M97 421l11.0049 10.0029l-10 7c-12 8 -22 19.833 -30 35.5s-12.667 32.167 -14 49.5v2.5v2.5v2v2v2v2v7.5c0 2.33301 0.333008 4.5 1 6.5c3.33301 48.667 23.333 93.5 60 134.5s85.667 62.833 147 65.5h4.5h4.5c12 0 23.5 -0.5 34.5 -1.5s20.167 -2.16699 27.5 -3.5
c3.33301 -0.666992 6.16602 -1.16699 8.49902 -1.5s4.16602 -0.833008 5.49902 -1.5c2 -0.666992 5.83301 -1.83398 11.5 -3.50098l18.5 -5.5c7.33301 -2.66699 13.833 -4.83398 19.5 -6.50098s9.5 -2.83398 11.5 -3.50098l11 -3l-1 -6c0 -2 -0.5 -7.16699 -1.5 -15.5
s-1.83301 -17.833 -2.5 -28.5v-3.5v-3.5c-0.666992 -4 -1.16699 -8 -1.5 -12s-0.5 -7.66699 -0.5 -11c0 -2.66699 -0.166992 -5.66699 -0.5 -9s-0.833008 -6.66602 -1.5 -9.99902v0v-1c-0.666992 -9.33301 -1.33398 -18 -2.00098 -26s-1 -13 -1 -15l1 -10l-31 1l-7 83l-4 4
c-6 6.66699 -13.833 12.834 -23.5 18.501s-19.834 9.83398 -30.501 12.501c-12 4 -24 7.16699 -36 9.5s-23.667 3.5 -35 3.5c-31.333 0 -59.333 -8.33301 -84 -25s-40.334 -43.334 -47.001 -80.001c-0.666992 -2 -1 -4 -1 -6v-6c0 -21.333 7.83301 -39.333 23.5 -54
s33.167 -26.667 52.5 -36c14.667 -7.33301 28.5 -13 41.5 -17s22.5 -7 28.5 -9l16 -3l15 -6c10.667 -4.66699 24 -9.16699 40 -13.5s32.333 -9.83301 49 -16.5c1.33301 -0.666992 2.5 -1.16699 3.5 -1.5s2.16699 -0.833008 3.5 -1.5c32.667 -14 55.667 -31.667 69 -53
s20.333 -43.333 21 -66v-3.5v-3.5v-6v-6c-0.666992 -17.333 -4.5 -33 -11.5 -47s-14.5 -26 -22.5 -36l-11.5 -13c-3.66699 -4 -7.16699 -7.33301 -10.5 -10l-21 -18l5 -3c18 -12 32.333 -26.5 43 -43.5s16 -37.833 16 -62.5v-2v-3c0 -3.33301 -0.333008 -6.83301 -1 -10.5
l-2 -11.5c-8.66699 -44 -34.5 -85.167 -77.5 -123.5s-89.5 -61.833 -139.5 -70.5l-12 -2c-4 -0.666992 -8 -1 -12 -1h-2.5h-2.5h-2.5h-2.5c-22.667 0 -44.834 3 -66.501 9s-40.167 12.667 -55.5 20c-5.33301 2 -10.166 4.16699 -14.499 6.5s-8.16602 4.5 -11.499 6.5l-8 4
l13 154h30v-53c0 -16.667 6.66699 -31.834 20 -45.501s28 -24.5 44 -32.5c6.66699 -3.33301 13.5 -6 20.5 -8s13.167 -3.33301 18.5 -4c7.33301 -1.33301 14.5 -2 21.5 -2h20.5c45.333 0 82.666 9.66699 111.999 29s44 52.333 44 99v1.5v1.5
c0 17.333 -5.83301 32.166 -17.5 44.499s-29.167 23.833 -52.5 34.5c-16 8 -35.333 16 -58 24l-77 27l-38 14c-24 8 -43.667 16.667 -59 26s-27 18.666 -35 27.999c-12 12.667 -19.333 25.167 -22 37.5s-4.66699 23.5 -6 33.5v1.5v0.5v4.5v4.5c0 20 4.83301 38.333 14.5 55
s20.167 31.334 31.5 44.001c4 4.66699 8 9 12 13l11 11v1zM380.005 189.003c2.66699 3.33301 4.99805 6.66504 6.99805 9.99805s4 7 6 11c2.66699 4.66699 4.83398 9.83398 6.50098 15.501s2.83398 11.5 3.50098 17.5c0.666992 3.33301 1.16699 6.5 1.5 9.5
s0.5 6.16699 0.5 9.5c0 5.33301 -0.5 10.833 -1.5 16.5s-2.83301 11.167 -5.5 16.5c-4.66699 12 -13 23.5 -25 34.5s-29.333 20.167 -52 27.5l-184 60l-16 -17c-10 -11.333 -16.667 -23 -20 -35s-5 -25.333 -5 -40v-3.5v-4.5c1.33301 -25.333 20.5 -46.666 57.5 -63.999
s77.833 -33 122.5 -47l31.5 -10l30.5 -10c2 -0.666992 3.83301 -1.16699 5.5 -1.5s3.16699 -0.833008 4.5 -1.5l23 -7l9 13v0z" />
    <glyph glyph-name="dieresis" unicode="&#xa8;" horiz-adv-x="378" 
d="M127 740l45 -147l-144 46l99 101v0zM301 740l45 -147l-143 46l98 101v0z" />
    <glyph glyph-name="copyright" unicode="&#xa9;" horiz-adv-x="793" 
d="M390 732c122 -0.666992 213.5 -39.167 274.5 -115.5s91.5 -160.5 91.5 -252.5v-1.5v-1.5c-0.666992 -90.667 -31.5 -173.5 -92.5 -248.5s-152.167 -112.5 -273.5 -112.5c-122 0 -213.333 38 -274 114s-91 160 -91 252v1.5v1.5c0.666992 90.667 31.5 173.667 92.5 249
s151.833 113 272.5 113v1zM390 39c108.667 -0.666992 190.166 32.833 244.499 100.5s81.833 141.834 82.5 222.501v1.5v1.5c0 81.333 -27.167 156 -81.5 224s-136.166 102 -245.499 102c-108.667 0 -190.167 -33.833 -244.5 -101.5s-81.5 -141.834 -81.5 -222.501v-1.5v-1.5
c0 -81.333 27.167 -156 81.5 -224s135.833 -102 244.5 -102v1zM512.999 496l-0.00195312 6.00195v1c0 0.666992 -0.333008 1.33398 -1 2.00098c-2 5.33301 -7.33301 10.833 -16 16.5s-18 10.5 -28 14.5l-12.5 4c-4.33301 1.33301 -8.5 2.33301 -12.5 3
c-0.666992 0 -2.33398 0.333008 -5.00098 1s-5.66699 1 -9 1c-4.66699 0.666992 -10.167 1.33398 -16.5 2.00098s-12.833 1 -19.5 1c-5.33301 0 -10.5 -0.166992 -15.5 -0.5s-10.167 -1.16602 -15.5 -2.49902c-45.333 -10 -77.5 -31.167 -96.5 -63.5
s-28.5 -68.166 -28.5 -107.499v-8c0 -2.66699 0.333008 -5.33398 1 -8.00098c0 -2.66699 0.166992 -5.33398 0.5 -8.00098s0.5 -5.33398 0.5 -8.00098c5.33301 -44.667 24 -81.834 56 -111.501s69 -45.5 111 -47.5h7.5h7.5c26 0 47.167 3 63.5 9s30.833 12.333 43.5 19l13 8
l4 -6l-10 -25l-13 -7c-3.33301 -2 -7.16602 -3.83301 -11.499 -5.5l-14.5 -5.5c-9.33301 -3.33301 -19.666 -6.33301 -30.999 -9s-23 -5 -35 -7c-4 0 -8 -0.166992 -12 -0.5s-8 -0.5 -12 -0.5h-1.5h-1.5c-62.667 2 -114.334 19 -155.001 51s-64 75.667 -70 131
c-0.666992 5.33301 -1.16699 10.666 -1.5 15.999s-0.5 10.333 -0.5 15c0.666992 56 15.834 99.833 45.501 131.5s62.5 53.167 98.5 64.5c4 1.33301 8.16699 2.5 12.5 3.5s8.83301 1.83301 13.5 2.5l12.5 2c4.33301 0.666992 8.5 1 12.5 1c4 0.666992 8.16699 1 12.5 1h12.5
c10.667 0 20.5 -0.333008 29.5 -1s16.5 -1.33398 22.5 -2.00098c2.66699 -0.666992 4.83398 -1.16699 6.50098 -1.5s3.16699 -0.5 4.5 -0.5l10 -2c3.33301 -0.666992 7 -1.66699 11 -3c2 0 4 -0.333008 6 -1l6 -2c10 -2 18.833 -4.16699 26.5 -6.5
s13.167 -3.83301 16.5 -4.5l7 -1l-12 -86h-17v35v0z" />
    <glyph glyph-name="ellipsis" unicode="&#xaa;" horiz-adv-x="466" 
d="M27 336v18h400v-18h-400v0zM248 747c0.666992 -3.33301 1.16211 -6.00098 1.49512 -8.00098s0.833008 -4 1.5 -6c0.666992 -2.66699 1.33398 -5 2.00098 -7s1.33398 -4.33301 2.00098 -7c4.66699 -14.667 11.5 -34.667 20.5 -60s18.833 -51.666 29.5 -78.999
c0.666992 -1.33301 1.16699 -2.83301 1.5 -4.5s0.833008 -3.16699 1.5 -4.5l35.5 -92.5c11 -28.333 18.167 -46.5 21.5 -54.5c0.666992 -1.33301 1.33398 -2.83301 2.00098 -4.5s1.33398 -3.16699 2.00098 -4.5c0 -0.666992 0.166992 -1.33398 0.5 -2.00098
s0.833008 -1 1.5 -1c0.666992 -2 1.5 -4 2.5 -6l3.5 -7c1.33301 -3.33301 4.5 -6.33301 9.5 -9s10.833 -5 17.5 -7c0 -0.666992 0.333008 -1 1 -1h2c1.33301 -1.33301 3 -2.33301 5 -3l6 -2l10 -3h-149l13 5c2 0 4.33301 0.5 7 1.5s5.33398 1.83301 8.00098 2.5
c4 2 8 4.16699 12 6.5s6.33301 5.16602 7 8.49902v1.5v1.5c0 2 -0.166992 4.16699 -0.5 6.5s-0.833008 4.83301 -1.5 7.5c-0.666992 1.33301 -1.16699 2.83301 -1.5 4.5s-0.833008 3.16699 -1.5 4.5c-0.666992 0.666992 -1.16699 1.5 -1.5 2.5s-0.5 1.83301 -0.5 2.5l-34 95
h-125l-35 -95c0 -1.33301 -0.166992 -2.33301 -0.5 -3s-0.833008 -1.33398 -1.5 -2.00098c0 -1.33301 -0.166992 -2.66602 -0.5 -3.99902s-0.833008 -3 -1.5 -5c-1.33301 -4 -2.33301 -8 -3 -12s-0.666992 -6.66699 0 -8c1.33301 -3.33301 4.33301 -6 9 -8s9.66699 -4 15 -6
h0.5h0.5c1.33301 -0.666992 2.66602 -1.16699 3.99902 -1.5s2.66602 -0.833008 3.99902 -1.5l14 -4h-138l11 4c2.66699 0 5.33398 0.5 8.00098 1.5l9 3.5c5.33301 2 10.5 4.33301 15.5 7s8.5 5.33398 10.5 8.00098c0.666992 2 1.33398 3.83301 2.00098 5.5
s1.33398 3.16699 2.00098 4.5c0.666992 0.666992 1 1.16699 1 1.5v0.5c0.666992 2 1.5 4 2.5 6s1.83301 4.33301 2.5 7l12.5 29c4.33301 10 8.5 20.333 12.5 31c2.66699 5.33301 5.16699 10.833 7.5 16.5s4.5 11.5 6.5 17.5c18 43.333 34.167 84 48.5 122
s23.166 62.333 26.499 73c1.33301 3.33301 2.33301 6.33301 3 9l2 8c0 2.66699 0.5 5.33398 1.5 8.00098s1.83301 5.66699 2.5 9l34 1v0zM272.995 549.999l-51 132l-51 -132h102v0z" />
    <glyph glyph-name="ydieresis" unicode="&#xab;" horiz-adv-x="536" 
d="M26 341l213 158v-103l-151 -109l148 -105v-110l-210 164v105v0zM294 341l213 158v-103l-152 -109l149 -105v-110l-210 164v105v0z" />
    <glyph glyph-name="emdash" unicode="&#xac;" 
 />
    <glyph glyph-name="uni00AD" unicode="&#xad;" 
d="M0 344h279v-126h-279v126v0z" />
    <glyph glyph-name="registered" unicode="&#xae;" horiz-adv-x="803" 
d="M400 732c122 -0.666992 213.5 -39.167 274.5 -115.5s91.5 -160.5 91.5 -252.5v-1.5v-1.5c-0.666992 -90.667 -31.5 -173.5 -92.5 -248.5s-152.167 -112.5 -273.5 -112.5c-122 0 -213.333 38 -274 114s-91 160 -91 252v1.5v1.5c0.666992 90.667 31.5 173.667 92.5 249
s151.833 113 272.5 113v1zM400 39c108.667 -0.666992 190.166 32.833 244.499 100.5s81.833 141.834 82.5 222.501v1.5v1.5c0 81.333 -27.167 156 -81.5 224s-136.166 102 -245.499 102c-108.667 0 -190.167 -33.833 -244.5 -101.5s-81.5 -141.834 -81.5 -222.501v-1.5v-1.5
c0 -81.333 27.167 -156 81.5 -224s135.833 -102 244.5 -102v1zM358.999 371l2.99609 10.0039l20 -1c1.33301 -0.666992 2.5 -1 3.5 -1h2.5h2.5h3.5c24 1.33301 46 9.66602 66 24.999s30 34.666 30 57.999v1.5v1.5v0.5v1.5c-2 19.333 -7.83301 35.833 -17.5 49.5
s-25.834 21.834 -48.501 24.501c-4 0.666992 -8.16699 1.16699 -12.5 1.5s-8.83301 0.5 -13.5 0.5c-6 0 -12 -0.333008 -18 -1s-11.333 -1.33398 -16 -2.00098c-3.33301 0 -6.33301 -0.333008 -9 -1s-4.66699 -1 -6 -1l-9 -2v-321c0 -5.33301 0.666992 -9.83301 2 -13.5
s3.33301 -7.16699 6 -10.5c2 -2 4.33301 -3.66699 7 -5s5.33398 -2 8.00098 -2c2.66699 -0.666992 5 -1 7 -1s4 -0.333008 6 -1h2h2h14v-17h-10c-2 -0.666992 -5.5 -0.833984 -10.5 -0.500977s-10.833 0.833008 -17.5 1.5c-3.33301 0 -7.16602 0.166992 -11.499 0.5
s-8.5 0.833008 -12.5 1.5h-9.5h-9.5h-8h-8c-4.66699 -0.666992 -9.16699 -1.16699 -13.5 -1.5s-8.5 -0.5 -12.5 -0.5c-6.66699 -0.666992 -12.667 -1.16699 -18 -1.5s-9.33301 -0.5 -12 -0.5l-10 1v18l17 1c2 -0.666992 4.16699 -1 6.5 -1s4.83301 0.333008 7.5 1
s5.16699 1.5 7.5 2.5s4.5 2.5 6.5 4.5c3.33301 3.33301 5.66602 6.83301 6.99902 10.5s2 7.83398 2 12.501v302c0 4.66699 -0.333008 8.16699 -1 10.5s-1.33398 4.83301 -2.00098 7.5l-2.5 2.5c-1 1 -1.83301 2.16699 -2.5 3.5c-1.33301 2 -3.83301 3.5 -7.5 4.5
s-7.5 1.83301 -11.5 2.5c-4.66699 0.666992 -8.83398 1 -12.501 1h-7.5l-7 1v17h10c1.33301 -0.666992 4.5 -1.16699 9.5 -1.5s11.167 -0.5 18.5 -0.5c4 0 8.16699 -0.166992 12.5 -0.5s8.5 -0.5 12.5 -0.5h10h10h16.5h17.5c5.33301 0 10.833 0.166992 16.5 0.5
s11.167 0.5 16.5 0.5c10 0 18.667 0.166992 26 0.5s11.666 0.5 12.999 0.5l10 2c0.666992 -0.666992 1.33398 -1 2.00098 -1h2h2h2c4 0 8.33301 -0.166992 13 -0.5s9.33398 -0.833008 14.001 -1.5c16 -2.66699 31.167 -8.33398 45.5 -17.001s24.5 -21.334 30.5 -38.001
c2 -6 3.5 -11.833 4.5 -17.5s1.5 -11.167 1.5 -16.5c0 -16.667 -4.66699 -32.5 -14 -47.5s-22.333 -28.167 -39 -39.5c-2.66699 -2 -5.66699 -3.83301 -9 -5.5s-6.66602 -3.16699 -9.99902 -4.5c-7.33301 -3.33301 -14.333 -5.83301 -21 -7.5l-14 -3.5h-5l129 -170
c0 -0.666992 0.833008 -1.66699 2.5 -3s3.16699 -2.66602 4.5 -3.99902c0.666992 -0.666992 1.33398 -1.16699 2.00098 -1.5s1.33398 -0.833008 2.00098 -1.5c0.666992 0 1.33398 -0.166992 2.00098 -0.5s1.33398 -0.833008 2.00098 -1.5
c0.666992 0 1.16699 -0.166992 1.5 -0.5l1.5 -1.5c0.666992 0 1.33398 -0.166992 2.00098 -0.5s1.33398 -0.5 2.00098 -0.5c2 -0.666992 3.66699 -1.16699 5 -1.5s2.33301 -0.5 3 -0.5l4 1v-16h-5c-3.33301 -0.666992 -6.33301 -0.833984 -9 -0.500977
s-5.33398 0.5 -8.00098 0.5s-5.33398 0.166992 -8.00098 0.5s-5.66699 0.5 -9 0.5h-7.5c-2.33301 0 -4.5 -0.333008 -6.5 -1c-2.66699 0 -5.5 -0.166992 -8.5 -0.5s-6.16699 -0.5 -9.5 -0.5h-7l-161 207v0z" />
    <glyph glyph-name="glyph263" unicode="&#xaf;" 
 />
    <glyph glyph-name="glyph264" unicode="&#xb0;" 
 />
    <glyph glyph-name="mu" unicode="&#xb1;" horiz-adv-x="476" 
d="M28 -1v38h408v-38h-408v0zM214 351v179h48v-180h178v-50h-180v-179h-46v179h-178v51h178v0z" />
    <glyph glyph-name="uni00B2" unicode="&#xb2;" 
 />
    <glyph glyph-name="uni00B3" unicode="&#xb3;" 
 />
    <glyph glyph-name="acute" unicode="&#xb4;" horiz-adv-x="229" 
d="M196 693l-163 -174l91 221l72 -47v0z" />
    <glyph glyph-name="oslash" unicode="&#xb5;" horiz-adv-x="612" 
d="M26 533l89.9941 -0.00683594v-367c0 -29.333 9 -56 27 -80s41.333 -36 70 -36c6.66699 0 13.667 0.833008 21 2.5s15 4.16699 23 7.5c22 8.66699 42.333 22.334 61 41.001s28 39.334 28 62.001v370h88v-415c0 -4 0.166992 -7.66699 0.5 -11
s0.833008 -6.66602 1.5 -9.99902c2.66699 -17.333 8.83398 -33 18.501 -47s22.167 -21 37.5 -21h3.5c1 0 2.16699 0.333008 3.5 1c12.667 2.66699 22.834 8 30.501 16s13.167 18.333 16.5 31l8 29h19l-7 -33c-4 -20 -13.5 -37.167 -28.5 -51.5
s-30.833 -25.166 -47.5 -32.499c-8 -3.33301 -15.667 -5.83301 -23 -7.5s-14.333 -2.5 -21 -2.5h-2h-2c-0.666992 0.666992 -1.33398 1 -2.00098 1h-2c-0.666992 0 -1.5 0.166992 -2.5 0.5s-2.16699 0.5 -3.5 0.5c-21.333 4.66699 -41.166 16.667 -59.499 36
s-27.833 42 -28.5 68l-27 -26c-8.66699 -9.33301 -17.834 -17.833 -27.501 -25.5s-19.167 -14.834 -28.5 -21.501c-14 -8 -27.833 -14.667 -41.5 -20s-26.167 -8 -37.5 -8v0v0h-1v0c-8 0 -17.5 1.33301 -28.5 4s-22.167 6.33398 -33.5 11.001s-22.166 10.834 -32.499 18.501
s-19.5 16.834 -27.5 27.501v-37c0 -15.333 1.5 -28.833 4.5 -40.5s6.5 -23.167 10.5 -34.5c0.666992 -1.33301 1.33398 -2.83301 2.00098 -4.5s1.33398 -3.5 2.00098 -5.5c4.66699 -12 8.83398 -25 12.501 -39s5.83398 -30.667 6.50098 -50v-1.5v-1.5
c-0.666992 -16.667 -5.66699 -31.834 -15 -45.501s-22 -20.5 -38 -20.5v0v0h-1v0c-16 0 -28.333 6.5 -37 19.5s-13 27.167 -13 42.5v2v1v2v2c0 17.333 1.5 31.833 4.5 43.5s6.5 22.834 10.5 33.501c0.666992 0 1 0.166992 1 0.5v1.5c3.33301 8 6.33301 16.5 9 25.5
s4.66699 19.167 6 30.5c0 3.33301 0.166992 6.33301 0.5 9s0.5 5.33398 0.5 8.00098c0.666992 2 1 4 1 6v7v534v0z" />
    <glyph glyph-name="paragraph" unicode="&#xb6;" horiz-adv-x="633" 
d="M528 712c-8 -3.33301 -14.665 -9.16016 -19.998 -17.4932s-8 -21.833 -8 -40.5v-8v-678v-14c0 -6.66699 1.33301 -12.334 4 -17.001s6.33398 -8.33398 11.001 -11.001c3.33301 -2 7 -3.66699 11 -5l12 -4c7.33301 -1.33301 14.333 -2.33301 21 -3s12.334 -1 17.001 -1
l20 -1v-28h-18c-2 0 -9.33301 0.166992 -22 0.5s-28.334 0.5 -47.001 0.5c-8.66699 0.666992 -17.834 1 -27.501 1h-28.5c-10.667 0.666992 -21.167 1 -31.5 1h-29.5h-30h-32c-10 -0.666992 -20.167 -1 -30.5 -1s-20.166 -0.333008 -29.499 -1
c-19.333 0 -35.833 -0.166992 -49.5 -0.5s-22.167 -0.5 -25.5 -0.5h-16v29l24 2h3.5h4.5c3.33301 0 7.16602 0.166992 11.499 0.5s8.5 0.833008 12.5 1.5c5.33301 0.666992 10.666 2.16699 15.999 4.5s9.66602 5.5 12.999 9.5c5.33301 6 9.16602 12.167 11.499 18.5
s3.5 13.833 3.5 22.5l-1 420h-11c-6.66699 0 -23.667 3.16699 -51 9.5s-57 17.833 -89 34.5c-26.667 14.667 -49.5 37 -68.5 67s-28.5 62 -28.5 96c0 9.33301 0.833008 18.5 2.5 27.5s4.16699 17.833 7.5 26.5c15.333 40 41.166 67.167 77.499 81.5
s75.833 21.166 118.5 20.499h16c2.66699 -0.666992 10.167 -1.33398 22.5 -2.00098s27.5 -1.33398 45.5 -2.00098c8.66699 -0.666992 17.667 -1.16699 27 -1.5s19 -0.833008 29 -1.5c9.33301 0 18.833 -0.166992 28.5 -0.5s18.834 -0.5 27.501 -0.5h23h25
c12 0.666992 23.667 1.16699 35 1.5s22 0.5 32 0.5c10.667 0.666992 19.834 1.16699 27.501 1.5s12.5 0.5 14.5 0.5l13 1v-31h-12c-2.66699 -0.666992 -7.16699 -1.33398 -13.5 -2.00098s-13.5 -1.33398 -21.5 -2.00098c-4.66699 -0.666992 -9.5 -1.5 -14.5 -2.5
s-9.16699 -2.16699 -12.5 -3.5v1zM424.002 713.006l-67 -1l1 -787h65l1 788v0zM279.002 432.006v281.002l-17 1c-0.666992 -0.666992 -1.16699 -1 -1.5 -1h-2.5c-5.33301 0 -12.833 -1.16699 -22.5 -3.5s-19.5 -6.5 -29.5 -12.5c-14 -8.66699 -27 -21.834 -39 -39.501
s-19 -41.834 -21 -72.501v-4v-4c0 -34.667 11.5 -65.667 34.5 -93s52.833 -44.333 89.5 -51l9 -1v0z" />
    <glyph glyph-name="glyph265" unicode="&#xb7;" 
 />
    <glyph glyph-name="bullet" unicode="&#xb8;" horiz-adv-x="254" 
d="M57 -3l24.0039 -1.00098l-3 -70l12 4c3.33301 0.666992 6.5 1.5 9.5 2.5s5.83301 1.5 8.5 1.5c2 0.666992 4.16699 1.16699 6.5 1.5s4.83301 0.5 7.5 0.5c25.333 0 47 -8.66699 65 -26s27.333 -37.666 28 -60.999c0 -31.333 -9.5 -56.666 -28.5 -75.999
s-43.167 -29 -72.5 -29c-11.333 0 -21.833 1 -31.5 3s-18.167 5.66699 -25.5 11l-16 11l15 20l14 -11c6 -4.66699 12.667 -8 20 -10s14.666 -3 21.999 -3c19.333 0 35.833 7.66699 49.5 23s20.5 32.666 20.5 51.999v0v0v1v0c-0.666992 18.667 -7.5 34.5 -20.5 47.5
s-28.833 20.167 -47.5 21.5h-1.5h-1.5c-2.66699 0 -5.33398 -0.166992 -8.00098 -0.5s-5.33398 -0.833008 -8.00098 -1.5c-2.66699 0 -5.33398 -0.333008 -8.00098 -1l-8 -2c-2 -0.666992 -4 -1.16699 -6 -1.5s-3.66699 -0.833008 -5 -1.5l-16 -6l5 101v0z" />
    <glyph glyph-name="uni00B9" unicode="&#xb9;" 
 />
    <glyph glyph-name="Agrave" unicode="&#xba;" horiz-adv-x="454" 
d="M27 332v19h397v-19h-397v0zM215 752c1.33301 -0.666992 2.33203 -1.00098 2.99902 -1.00098h3h2.5h2.5c52 0 97.167 -17.167 135.5 -51.5s57.833 -80.5 58.5 -138.5c1.33301 -58 -18.667 -104.667 -60 -140s-89.666 -52.666 -144.999 -51.999
c-52.667 0.666992 -97.167 19.5 -133.5 56.5s-54.5 82.167 -54.5 135.5c0 52 18.5 96.167 55.5 132.5s81.167 55.5 132.5 57.5v1zM214.999 723.999c-45.333 -2 -81.334 -18.9961 -108.001 -50.9961s-39.667 -69 -39 -111c0.666992 -40.667 15 -77.834 43 -111.501
s63.667 -51.834 107 -54.501h3h3h2.5h2.5c40 0 74.833 14.667 104.5 44s44.834 66.666 45.501 111.999c0 45.333 -15.167 85.166 -45.5 119.499s-67.833 51.5 -112.5 51.5h-2.5h-3.5v1z" />
    <glyph glyph-name="Ydieresis" unicode="&#xbb;" horiz-adv-x="546" 
d="M31 499l213 -158v-105l-210 -164v110l149 105l-152 109v103v0zM299 499l213 -158v-105l-210 -164v110l148 105l-151 109v103v0z" />
    <glyph glyph-name="onequarter" unicode="&#xbc;" 
 />
    <glyph glyph-name="glyph243" unicode="&#xbd;" horiz-adv-x="500" 
 />
    <glyph glyph-name="threequarters" unicode="&#xbe;" 
 />
    <glyph glyph-name="oe" unicode="&#xbf;" horiz-adv-x="514" 
d="M235 276l-27.9971 -41.998l-25.5 -41c-5 -8 -9.16699 -15 -12.5 -21c-2 -3.33301 -3.83301 -6.66602 -5.5 -9.99902s-3.83398 -7 -6.50098 -11c-4 -6.66699 -7 -12.334 -9 -17.001s-3.66699 -9 -5 -13c-0.666992 -0.666992 -1 -1.33398 -1 -2.00098
s-0.333008 -1.33398 -1 -2.00098c-0.666992 -2 -1.33398 -4.16699 -2.00098 -6.5s-1.33398 -4.83301 -2.00098 -7.5l36 17c1.33301 0 2.5 0.166992 3.5 0.5s1.83301 0.833008 2.5 1.5c3.33301 2 6.5 4.16699 9.5 6.5s6.5 4.5 10.5 6.5c8 5.33301 18.5 10 31.5 14
s31.167 6.33301 54.5 7h4.5h4.5c8.66699 0 17.5 -0.666992 26.5 -2s18.167 -3.33301 27.5 -6c33.333 -10 64 -29.833 92 -59.5s42 -69.5 42 -119.5c0 -65.333 -21.5 -118.5 -64.5 -159.5s-99.167 -63.833 -168.5 -68.5h-3h-3h-3.5h-3.5c-54.667 0 -103 18.667 -145 56
s-63.333 84.333 -64 141c0 33.333 5.5 69 16.5 107s37.167 87.333 78.5 148l78 114l35 -31v0zM242.003 94.002c-35.333 -5.33301 -66.335 -21.166 -93.002 -47.499s-41.667 -54.5 -45 -84.5c-0.666992 -2 -1 -4 -1 -6v-6v-2v-2v-1v-2c2.66699 -42 18.834 -77 48.501 -105
s64.834 -42.667 105.501 -44h3h2c44 0 81.5 15.5 112.5 46.5s46.5 70.5 46.5 118.5v4v3c-0.666992 1.33301 -1 2.66602 -1 3.99902v4c-2.66699 38.667 -20 68.5 -52 89.5s-66.667 31.167 -104 30.5h-5.5h-5.5c-2 0 -3.83301 -0.166992 -5.5 -0.5s-3.5 -0.5 -5.5 -0.5v1z
M243.001 325.002l-47 163l157 -51l-110 -112v0z" />
    <glyph glyph-name="currency" unicode="&#xc0;" horiz-adv-x="840" 
d="M460 740c1.33301 -5.33301 2.66797 -10.167 4.00098 -14.5l4 -12.5c0.666992 -4.66699 1.66699 -9 3 -13s2.66602 -8.66699 3.99902 -14c9.33301 -28.667 23 -68.167 41 -118.5l57 -156.5l4 -10l4 -10l68.5 -182.5c21.667 -55.667 36.167 -91.5 43.5 -107.5
c2 -5.33301 4 -10 6 -14s4 -8.33301 6 -13c1.33301 -3.33301 3 -6.83301 5 -10.5l6 -11.5c3.33301 -6.66699 10.166 -12.667 20.499 -18s21.5 -10.333 33.5 -15c2.66699 -0.666992 5.33398 -1.66699 8.00098 -3s5.33398 -2.33301 8.00098 -3
c2 -0.666992 3.83301 -1.5 5.5 -2.5s3.5 -1.83301 5.5 -2.5l21 -8h-296l26 10c4 0.666992 8.33301 2 13 4s9.66699 4 15 6c9.33301 3.33301 17.833 7.33301 25.5 12s12.5 10.334 14.5 17.001v0.5c0 0.333008 0.333008 0.833008 1 1.5v1.5v1.5
c0 3.33301 -0.666992 7.66602 -2 12.999s-3 10.333 -5 15c-0.666992 2.66699 -1.33398 5 -2.00098 7l-2 6c-0.666992 2.66699 -1.5 5.16699 -2.5 7.5s-1.83301 4.5 -2.5 6.5l-67 188h-247l-70 -187l-1.5 -4.5c-0.333008 -1 -0.5 -2.16699 -0.5 -3.5
c-1.33301 -2.66699 -2.5 -5.66699 -3.5 -9s-1.83301 -6.66602 -2.5 -9.99902c-2 -7.33301 -3.66699 -14.333 -5 -21s-2 -11.667 -2 -15v-1.5v-1.5c2.66699 -6 7.83398 -10.833 15.501 -14.5s16.167 -7.16699 25.5 -10.5c1.33301 0 2.66602 -0.166992 3.99902 -0.5
s2.33301 -0.833008 3 -1.5c3.33301 -1.33301 6.66602 -2.5 9.99902 -3.5s6.33301 -2.16699 9 -3.5l27 -10h-273l22 8c4.66699 1.33301 9.83398 3 15.501 5l16.5 6c11.333 4 22 8.66699 32 14s16.667 11 20 17c2 3.33301 3.66699 6.66602 5 9.99902
s2.66602 6.33301 3.99902 9c1.33301 2 2.33301 4 3 6s1.33398 4.33301 2.00098 7c1.33301 2.66699 2.5 5.33398 3.5 8.00098l3.5 9c8.66699 18.667 17.167 38.167 25.5 58.5l25.5 62.5l14 32.5l14 33.5l94 241.5c28 75 45.333 122.833 52 143.5l5.5 18
c1.66699 5.33301 3.16699 10.666 4.5 15.999c0 2 0.333008 3.83301 1 5.5s1 3.5 1 5.5c1.33301 3.33301 2.5 7 3.5 11s1.83301 8 2.5 12l67 1v0zM511.002 348.999l-101 262l-102 -262h203v0zM518.002 788.999l-163 174l73 47l90 -221v0z" />
    <glyph glyph-name="breve" unicode="&#xc1;" horiz-adv-x="833" 
d="M460 740c1.33301 -5.33301 2.66797 -10.167 4.00098 -14.5l4 -12.5c0.666992 -4.66699 1.66699 -9 3 -13s2.66602 -8.66699 3.99902 -14c9.33301 -28.667 23 -68.167 41 -118.5l57 -156.5l4 -10l4 -10l68.5 -182.5c21.667 -55.667 36.167 -91.5 43.5 -107.5
c2 -5.33301 4 -10 6 -14s4 -8.33301 6 -13c1.33301 -3.33301 3 -6.83301 5 -10.5l6 -11.5c3.33301 -6.66699 10.166 -12.667 20.499 -18s21.5 -10.333 33.5 -15c2.66699 -0.666992 5.33398 -1.66699 8.00098 -3s5.33398 -2.33301 8.00098 -3
c2 -0.666992 3.83301 -1.5 5.5 -2.5s3.5 -1.83301 5.5 -2.5l21 -8h-296l26 10c4 0.666992 8.33301 2 13 4s9.66699 4 15 6c9.33301 3.33301 17.833 7.33301 25.5 12s12.5 10.334 14.5 17.001v0.5c0 0.333008 0.333008 0.833008 1 1.5v1.5v1.5
c0 3.33301 -0.666992 7.66602 -2 12.999s-3 10.333 -5 15c-0.666992 2.66699 -1.33398 5 -2.00098 7l-2 6c-0.666992 2.66699 -1.5 5.16699 -2.5 7.5s-1.83301 4.5 -2.5 6.5l-67 188h-247l-70 -187l-1.5 -4.5c-0.333008 -1 -0.5 -2.16699 -0.5 -3.5
c-1.33301 -2.66699 -2.5 -5.66699 -3.5 -9s-1.83301 -6.66602 -2.5 -9.99902c-2 -7.33301 -3.66699 -14.333 -5 -21s-2 -11.667 -2 -15v-1.5v-1.5c2.66699 -6 7.83398 -10.833 15.501 -14.5s16.167 -7.16699 25.5 -10.5c1.33301 0 2.66602 -0.166992 3.99902 -0.5
s2.33301 -0.833008 3 -1.5c3.33301 -1.33301 6.66602 -2.5 9.99902 -3.5s6.33301 -2.16699 9 -3.5l27 -10h-273l22 8c4.66699 1.33301 9.83398 3 15.501 5l16.5 6c11.333 4 22 8.66699 32 14s16.667 11 20 17c2 3.33301 3.66699 6.66602 5 9.99902
s2.66602 6.33301 3.99902 9c1.33301 2 2.33301 4 3 6s1.33398 4.33301 2.00098 7c1.33301 2.66699 2.5 5.33398 3.5 8.00098l3.5 9c8.66699 18.667 17.167 38.167 25.5 58.5l25.5 62.5l14 32.5l14 33.5l94 241.5c28 75 45.333 122.833 52 143.5l5.5 18
c1.66699 5.33301 3.16699 10.666 4.5 15.999c0 2 0.333008 3.83301 1 5.5s1 3.5 1 5.5c1.33301 3.33301 2.5 7 3.5 11s1.83301 8 2.5 12l67 1v0zM511.002 348.999l-101 262l-102 -262h203v0zM514.002 962.999l-162 -174l90 221l72 -47v0z" />
    <glyph glyph-name="tilde" unicode="&#xc2;" horiz-adv-x="840" 
d="M460 740c1.33301 -5.33301 2.66797 -10.167 4.00098 -14.5l4 -12.5c0.666992 -4.66699 1.66699 -9 3 -13s2.66602 -8.66699 3.99902 -14c9.33301 -28.667 23 -68.167 41 -118.5l57 -156.5l4 -10l4 -10l68.5 -182.5c21.667 -55.667 36.167 -91.5 43.5 -107.5
c2 -5.33301 4 -10 6 -14s4 -8.33301 6 -13c1.33301 -3.33301 3 -6.83301 5 -10.5l6 -11.5c3.33301 -6.66699 10.166 -12.667 20.499 -18s21.5 -10.333 33.5 -15c2.66699 -0.666992 5.33398 -1.66699 8.00098 -3s5.33398 -2.33301 8.00098 -3
c2 -0.666992 3.83301 -1.5 5.5 -2.5s3.5 -1.83301 5.5 -2.5l21 -8h-296l26 10c4 0.666992 8.33301 2 13 4s9.66699 4 15 6c9.33301 3.33301 17.833 7.33301 25.5 12s12.5 10.334 14.5 17.001v0.5c0 0.333008 0.333008 0.833008 1 1.5v1.5v1.5
c0 3.33301 -0.666992 7.66602 -2 12.999s-3 10.333 -5 15c-0.666992 2.66699 -1.33398 5 -2.00098 7l-2 6c-0.666992 2.66699 -1.5 5.16699 -2.5 7.5s-1.83301 4.5 -2.5 6.5l-67 188h-247l-70 -187l-1.5 -4.5c-0.333008 -1 -0.5 -2.16699 -0.5 -3.5
c-1.33301 -2.66699 -2.5 -5.66699 -3.5 -9s-1.83301 -6.66602 -2.5 -9.99902c-2 -7.33301 -3.66699 -14.333 -5 -21s-2 -11.667 -2 -15v-1.5v-1.5c2.66699 -6 7.83398 -10.833 15.501 -14.5s16.167 -7.16699 25.5 -10.5c1.33301 0 2.66602 -0.166992 3.99902 -0.5
s2.33301 -0.833008 3 -1.5c3.33301 -1.33301 6.66602 -2.5 9.99902 -3.5s6.33301 -2.16699 9 -3.5l27 -10h-273l22 8c4.66699 1.33301 9.83398 3 15.501 5l16.5 6c11.333 4 22 8.66699 32 14s16.667 11 20 17c2 3.33301 3.66699 6.66602 5 9.99902
s2.66602 6.33301 3.99902 9c1.33301 2 2.33301 4 3 6s1.33398 4.33301 2.00098 7c1.33301 2.66699 2.5 5.33398 3.5 8.00098l3.5 9c8.66699 18.667 17.167 38.167 25.5 58.5l25.5 62.5l14 32.5l14 33.5l94 241.5c28 75 45.333 122.833 52 143.5l5.5 18
c1.66699 5.33301 3.16699 10.666 4.5 15.999c0 2 0.333008 3.83301 1 5.5s1 3.5 1 5.5c1.33301 3.33301 2.5 7 3.5 11s1.83301 8 2.5 12l67 1v0zM511.002 348.999l-101 262l-102 -262h203v0zM426.002 844.999l-132 -52l132 145l133 -140l-133 47v0z" />
    <glyph glyph-name="guilsinglleft" unicode="&#xc3;" horiz-adv-x="850" 
d="M460 740c1.33301 -5.33301 2.66797 -10.167 4.00098 -14.5l4 -12.5c0.666992 -4.66699 1.66699 -9 3 -13s2.66602 -8.66699 3.99902 -14c9.33301 -28.667 23 -68.167 41 -118.5l57 -156.5l4 -10l4 -10l68.5 -182.5c21.667 -55.667 36.167 -91.5 43.5 -107.5
c2 -5.33301 4 -10 6 -14s4 -8.33301 6 -13c1.33301 -3.33301 3 -6.83301 5 -10.5l6 -11.5c3.33301 -6.66699 10.166 -12.667 20.499 -18s21.5 -10.333 33.5 -15c2.66699 -0.666992 5.33398 -1.66699 8.00098 -3s5.33398 -2.33301 8.00098 -3
c2 -0.666992 3.83301 -1.5 5.5 -2.5s3.5 -1.83301 5.5 -2.5l21 -8h-296l26 10c4 0.666992 8.33301 2 13 4s9.66699 4 15 6c9.33301 3.33301 17.833 7.33301 25.5 12s12.5 10.334 14.5 17.001v0.5c0 0.333008 0.333008 0.833008 1 1.5v1.5v1.5
c0 3.33301 -0.666992 7.66602 -2 12.999s-3 10.333 -5 15c-0.666992 2.66699 -1.33398 5 -2.00098 7l-2 6c-0.666992 2.66699 -1.5 5.16699 -2.5 7.5s-1.83301 4.5 -2.5 6.5l-67 188h-247l-70 -187l-1.5 -4.5c-0.333008 -1 -0.5 -2.16699 -0.5 -3.5
c-1.33301 -2.66699 -2.5 -5.66699 -3.5 -9s-1.83301 -6.66602 -2.5 -9.99902c-2 -7.33301 -3.66699 -14.333 -5 -21s-2 -11.667 -2 -15v-1.5v-1.5c2.66699 -6 7.83398 -10.833 15.501 -14.5s16.167 -7.16699 25.5 -10.5c1.33301 0 2.66602 -0.166992 3.99902 -0.5
s2.33301 -0.833008 3 -1.5c3.33301 -1.33301 6.66602 -2.5 9.99902 -3.5s6.33301 -2.16699 9 -3.5l27 -10h-273l22 8c4.66699 1.33301 9.83398 3 15.501 5l16.5 6c11.333 4 22 8.66699 32 14s16.667 11 20 17c2 3.33301 3.66699 6.66602 5 9.99902
s2.66602 6.33301 3.99902 9c1.33301 2 2.33301 4 3 6s1.33398 4.33301 2.00098 7c1.33301 2.66699 2.5 5.33398 3.5 8.00098l3.5 9c8.66699 18.667 17.167 38.167 25.5 58.5l25.5 62.5l14 32.5l14 33.5l94 241.5c28 75 45.333 122.833 52 143.5l5.5 18
c1.66699 5.33301 3.16699 10.666 4.5 15.999c0 2 0.333008 3.83301 1 5.5s1 3.5 1 5.5c1.33301 3.33301 2.5 7 3.5 11s1.83301 8 2.5 12l67 1v0zM511.002 348.999l-101 262l-102 -262h203v0zM599.002 852.999c-7.33301 -13.333 -16.3311 -24.6699 -26.998 -34.0029
s-22 -16.333 -34 -21c-5.33301 -2 -10.666 -3.66699 -15.999 -5s-10.333 -2 -15 -2c-12.667 0 -23.834 2.83301 -33.501 8.5s-18.834 11.834 -27.501 18.501c-9.33301 6.66699 -18.666 12.834 -27.999 18.501s-20.666 8.5 -33.999 8.5v0v0h-1v0
c-12.667 -0.666992 -22.834 -2.33398 -30.501 -5.00098s-14.834 -6 -21.501 -10c-4 -2 -8.33301 -4.5 -13 -7.5s-9.66699 -5.83301 -15 -8.5l-31 -16l18 33c8 14.667 19.667 28.167 35 40.5s31.666 20.166 48.999 23.499c2 0.666992 4.16699 1.16699 6.5 1.5
s4.5 0.5 6.5 0.5h1.5h1.5c12 0 22.167 -2.83301 30.5 -8.5s16.5 -12.167 24.5 -19.5c8 -6.66699 16 -12.667 24 -18s17.667 -8 29 -8h1.5h1.5h0.5h1.5c15.333 0.666992 27.5 2.33398 36.5 5.00098s17.5 6 25.5 10c4 2.66699 8.5 5.33398 13.5 8.00098
s10.5 5.33398 16.5 8.00098l24 12l-20 -33v0z" />
    <glyph glyph-name="Adieresis" unicode="&#xc4;" horiz-adv-x="806" 
d="M460 740c1.33301 -5.33301 2.66797 -10.167 4.00098 -14.5l4 -12.5c0.666992 -4.66699 1.66699 -9 3 -13s2.66602 -8.66699 3.99902 -14c9.33301 -28.667 23 -68.167 41 -118.5l57 -156.5l4 -10l4 -10l68.5 -182.5c21.667 -55.667 36.167 -91.5 43.5 -107.5
c2 -5.33301 4 -10 6 -14s4 -8.33301 6 -13c1.33301 -3.33301 3 -6.83301 5 -10.5l6 -11.5c3.33301 -6.66699 10.166 -12.667 20.499 -18s21.5 -10.333 33.5 -15c2.66699 -0.666992 5.33398 -1.66699 8.00098 -3s5.33398 -2.33301 8.00098 -3
c2 -0.666992 3.83301 -1.5 5.5 -2.5s3.5 -1.83301 5.5 -2.5l21 -8h-296l26 10c4 0.666992 8.33301 2 13 4s9.66699 4 15 6c9.33301 3.33301 17.833 7.33301 25.5 12s12.5 10.334 14.5 17.001v0.5c0 0.333008 0.333008 0.833008 1 1.5v1.5v1.5
c0 3.33301 -0.666992 7.66602 -2 12.999s-3 10.333 -5 15c-0.666992 2.66699 -1.33398 5 -2.00098 7l-2 6c-0.666992 2.66699 -1.5 5.16699 -2.5 7.5s-1.83301 4.5 -2.5 6.5l-67 188h-247l-70 -187l-1.5 -4.5c-0.333008 -1 -0.5 -2.16699 -0.5 -3.5
c-1.33301 -2.66699 -2.5 -5.66699 -3.5 -9s-1.83301 -6.66602 -2.5 -9.99902c-2 -7.33301 -3.66699 -14.333 -5 -21s-2 -11.667 -2 -15v-1.5v-1.5c2.66699 -6 7.83398 -10.833 15.501 -14.5s16.167 -7.16699 25.5 -10.5c1.33301 0 2.66602 -0.166992 3.99902 -0.5
s2.33301 -0.833008 3 -1.5c3.33301 -1.33301 6.66602 -2.5 9.99902 -3.5s6.33301 -2.16699 9 -3.5l27 -10h-273l22 8c4.66699 1.33301 9.83398 3 15.501 5l16.5 6c11.333 4 22 8.66699 32 14s16.667 11 20 17c2 3.33301 3.66699 6.66602 5 9.99902
s2.66602 6.33301 3.99902 9c1.33301 2 2.33301 4 3 6s1.33398 4.33301 2.00098 7c1.33301 2.66699 2.5 5.33398 3.5 8.00098l3.5 9c8.66699 18.667 17.167 38.167 25.5 58.5l25.5 62.5l14 32.5l14 33.5l94 241.5c28 75 45.333 122.833 52 143.5l5.5 18
c1.66699 5.33301 3.16699 10.666 4.5 15.999c0 2 0.333008 3.83301 1 5.5s1 3.5 1 5.5c1.33301 3.33301 2.5 7 3.5 11s1.83301 8 2.5 12l67 1v0zM511.002 348.999l-101 262l-102 -262h203v0zM376.002 936.999l45 -147l-143 45l98 102v0zM551.002 936.999l44 -147l-143 45
l99 102v0z" />
    <glyph glyph-name="Aring" unicode="&#xc5;" horiz-adv-x="832" 
d="M460 740c1.33301 -5.33301 2.66797 -10.167 4.00098 -14.5l4 -12.5c0.666992 -4.66699 1.66699 -9 3 -13s2.66602 -8.66699 3.99902 -14c9.33301 -28.667 23 -68.167 41 -118.5l57 -156.5l4 -10l4 -10l68.5 -182.5c21.667 -55.667 36.167 -91.5 43.5 -107.5
c2 -5.33301 4 -10 6 -14s4 -8.33301 6 -13c1.33301 -3.33301 3 -6.83301 5 -10.5l6 -11.5c3.33301 -6.66699 10.166 -12.667 20.499 -18s21.5 -10.333 33.5 -15c2.66699 -0.666992 5.33398 -1.66699 8.00098 -3s5.33398 -2.33301 8.00098 -3
c2 -0.666992 3.83301 -1.5 5.5 -2.5s3.5 -1.83301 5.5 -2.5l21 -8h-296l26 10c4 0.666992 8.33301 2 13 4s9.66699 4 15 6c9.33301 3.33301 17.833 7.33301 25.5 12s12.5 10.334 14.5 17.001v0.5c0 0.333008 0.333008 0.833008 1 1.5v1.5v1.5
c0 3.33301 -0.666992 7.66602 -2 12.999s-3 10.333 -5 15c-0.666992 2.66699 -1.33398 5 -2.00098 7l-2 6c-0.666992 2.66699 -1.5 5.16699 -2.5 7.5s-1.83301 4.5 -2.5 6.5l-67 188h-247l-70 -187l-1.5 -4.5c-0.333008 -1 -0.5 -2.16699 -0.5 -3.5
c-1.33301 -2.66699 -2.5 -5.66699 -3.5 -9s-1.83301 -6.66602 -2.5 -9.99902c-2 -7.33301 -3.66699 -14.333 -5 -21s-2 -11.667 -2 -15v-1.5v-1.5c2.66699 -6 7.83398 -10.833 15.501 -14.5s16.167 -7.16699 25.5 -10.5c1.33301 0 2.66602 -0.166992 3.99902 -0.5
s2.33301 -0.833008 3 -1.5c3.33301 -1.33301 6.66602 -2.5 9.99902 -3.5s6.33301 -2.16699 9 -3.5l27 -10h-273l22 8c4.66699 1.33301 9.83398 3 15.501 5l16.5 6c11.333 4 22 8.66699 32 14s16.667 11 20 17c2 3.33301 3.66699 6.66602 5 9.99902
s2.66602 6.33301 3.99902 9c1.33301 2 2.33301 4 3 6s1.33398 4.33301 2.00098 7c1.33301 2.66699 2.5 5.33398 3.5 8.00098l3.5 9c8.66699 18.667 17.167 38.167 25.5 58.5l25.5 62.5l14 32.5l14 33.5l94 241.5c28 75 45.333 122.833 52 143.5l5.5 18
c1.66699 5.33301 3.16699 10.666 4.5 15.999c0 2 0.333008 3.83301 1 5.5s1 3.5 1 5.5c1.33301 3.33301 2.5 7 3.5 11s1.83301 8 2.5 12l67 1v0zM511.002 348.999l-101 262l-102 -262h203v0zM426.002 961.999c24 -0.666992 45 -8.83203 63 -24.499s27 -36.167 27 -61.5v0v0
v-1v0c-0.666992 -24 -9.5 -44.667 -26.5 -62s-37.833 -26 -62.5 -26c-22.667 0 -42.5 8 -59.5 24s-26.167 35.667 -27.5 59v0.5v1.5v1.5v0.5c0 23.333 8.5 43.666 25.5 60.999s37.167 26 60.5 26v1zM484.002 875.001c0 15.333 -5.83301 28.333 -17.5 39s-25.167 16 -40.5 16
s-28.5 -5.83301 -39.5 -17.5s-16.5 -25.167 -16.5 -40.5v0v0v-1v0c0.666992 -15.333 6.5 -28.166 17.5 -38.499s23.833 -15.5 38.5 -15.5c16 0 29.667 5.66699 41 17s17 24.666 17 39.999v1z" />
    <glyph glyph-name="Oslash" unicode="&#xc6;" horiz-adv-x="1056" 
d="M533 740l452.001 0.00488281l2 -168l-14 40c-1.33301 2.66699 -2.5 5.5 -3.5 8.5s-2.16699 6.16699 -3.5 9.5c-3.33301 8.66699 -7 16.667 -11 24s-9.66699 13.666 -17 18.999c-6.66699 4 -13.667 7 -21 9s-15 3.33301 -23 4h-8.5h-9.5l-122 1
c-1.33301 -0.666992 -2.66602 -1 -3.99902 -1h-5c-8 0 -15.833 -0.333008 -23.5 -1s-13.5 -3 -17.5 -7c-2.66699 -2.66699 -4.33398 -6.83398 -5.00098 -12.501s-1 -11.5 -1 -17.5v-2.5v-2.5v-2.5v-2.5v-239h142c2.66699 -0.666992 5.16699 -1 7.5 -1h6.5
c2.66699 -0.666992 5.16699 -1 7.5 -1h6.5c7.33301 0 14.166 0.666992 20.499 2s12.166 4 17.499 8c1.33301 0.666992 2.33301 1.5 3 2.5s1.33398 1.83301 2.00098 2.5c2.66699 2 4.66699 4.16699 6 6.5s3 4.5 5 6.5l2 4l2 4l20 43v-235l-8 23
c-1.33301 2.66699 -2.66602 5.83398 -3.99902 9.50098l-4 11.5v0.5v0.5c-4 11.333 -8.16699 21.833 -12.5 31.5s-10.166 16.167 -17.499 19.5c-3.33301 2 -6.83301 3.66699 -10.5 5s-6.83398 2.33301 -9.50098 3c-4.66699 1.33301 -9.5 2 -14.5 2h-15.5h-2.5h-2.5l-147 1
v-246c0 -3.33301 0.166992 -7 0.5 -11s0.833008 -7.66699 1.5 -11c0.666992 -7.33301 2.16699 -13.833 4.5 -19.5s5.83301 -9.5 10.5 -11.5c5.33301 -2.66699 10.166 -4.33398 14.499 -5.00098s8.83301 -1 13.5 -1h5.5c1.66699 0 3.5 0.333008 5.5 1h5h6l164 1
c2 -0.666992 3.83301 -1 5.5 -1h5.5c0.666992 -0.666992 1.16699 -1 1.5 -1h1.5h3.5h3.5c3.33301 0 6.83301 0.333008 10.5 1s7.5 2 11.5 4c5.33301 2.66699 9.83301 7.83398 13.5 15.501s7.16699 16.5 10.5 26.5c0.666992 2 1.33398 4.16699 2.00098 6.5s1.66699 4.5 3 6.5
c0.666992 4 1.83398 8 3.50098 12l4.5 11l13 32l-4 -158h-502l25 10c3.33301 0.666992 6.66602 1.66699 9.99902 3s7 3 11 5c8 3.33301 15.833 7.5 23.5 12.5s12.5 11.167 14.5 18.5c1.33301 3.33301 2.33301 7.66602 3 12.999s1 11 1 17v4v4
c-0.666992 1.33301 -1 2.83301 -1 4.5v4.5l-3 201h-264l-122 -191c-2.66699 -4 -5 -8.33301 -7 -13s-3.66699 -9.33398 -5 -14.001c-2.66699 -6 -4.5 -11.833 -5.5 -17.5s-1.5 -10.167 -1.5 -13.5v-0.5c0 -0.333008 0.333008 -0.833008 1 -1.5v-1.5v-0.5
c2 -6 6.83301 -10.833 14.5 -14.5s16.167 -7.16699 25.5 -10.5c1.33301 0 2.66602 -0.333008 3.99902 -1s2.66602 -1 3.99902 -1c3.33301 -1.33301 6.5 -2.5 9.5 -3.5s5.83301 -2.16699 8.5 -3.5l27 -10h-273l22 8c4.66699 1.33301 9.83398 3 15.501 5l16.5 6
c11.333 4 22 8.66699 32 14s16.667 11 20 17c2 3.33301 4 6.5 6 9.5s4 5.83301 6 8.5l10 14.5l11 16.5l64.5 96l70.5 106c2 2.66699 4 5.5 6 8.5s4 6.16699 6 9.5l143 220.5c43.333 68.333 68 112.166 74 131.499c2 6.66699 3.66699 12.667 5 18l4 16
c0.666992 2.66699 1.16699 5.16699 1.5 7.5s0.5 4.83301 0.5 7.5c0.666992 2.66699 1.16699 5.66699 1.5 9s0.833008 6.66602 1.5 9.99902v1zM597.001 349.005l-1 342l-221 -342h222v0z" />
    <glyph glyph-name="Ccedilla" unicode="&#xc7;" horiz-adv-x="764" 
d="M407 -21l-39.9932 9.99609c-93.333 20.667 -172.333 59 -237 115s-98.667 138.333 -102 247v6v7c0 111.333 40.833 202.666 122.5 273.999s176.834 109.666 285.501 114.999c11.333 0.666992 22.166 1.16699 32.499 1.5s20.5 0.5 30.5 0.5c12.667 0 25 -0.333008 37 -1
s24 -2 36 -4c13.333 -1.33301 26.666 -3.5 39.999 -6.5s27.333 -6.83301 42 -11.5l28 -8l1 -199l-24 61c-1.33301 2.66699 -2.5 5.5 -3.5 8.5s-2.16699 5.83301 -3.5 8.5c-4.66699 14.667 -10 28 -16 40s-14 21.333 -24 28c-2 1.33301 -4.5 2.66602 -7.5 3.99902
s-6.16699 2.66602 -9.5 3.99902c-12.667 4 -29.5 7.83301 -50.5 11.5s-42.5 6.16699 -64.5 7.5c-5.33301 0.666992 -10.5 1 -15.5 1h-14.5h-5.5h-4.5c-1.33301 -0.666992 -2.83301 -1 -4.5 -1h-5.5c-88.667 -4.66699 -163.5 -37.667 -224.5 -99
s-91.167 -139.666 -90.5 -234.999c0.666992 -90.667 33 -168.5 97 -233.5s143.667 -96.833 239 -95.5c4 0 8 0.166992 12 0.5s8 0.5 12 0.5c38 2.66699 74 10.334 108 23.001s58.333 27 73 43c5.33301 6 10.333 13 15 21s9 16 13 24c4.66699 8.66699 9 17.167 13 25.5
s7.66699 15.5 11 21.5l25 48l-42 -212l-36 -13c-22 -8.66699 -37.667 -14.167 -47 -16.5s-17 -4.16602 -23 -5.49902c-1.33301 0 -2.33301 -0.166992 -3 -0.5s-1.66699 -0.5 -3 -0.5c-3.33301 -0.666992 -6.83301 -1.16699 -10.5 -1.5s-8.5 -1.16602 -14.5 -2.49902
c-7.33301 -1.33301 -14.166 -2.16602 -20.499 -2.49902s-12.5 -0.5 -18.5 -0.5c-1.33301 -0.666992 -3 -1 -5 -1h-6c-6.66699 0 -13.834 -0.166992 -21.501 -0.5s-15.834 -1.16602 -24.501 -2.49902l-27 -5l-3 -52l12 4c3.33301 0.666992 6.5 1.5 9.5 2.5
s5.83301 1.5 8.5 1.5c2 0.666992 4.16699 1.16699 6.5 1.5s4.83301 0.5 7.5 0.5c25.333 0 47 -8.66699 65 -26s27.333 -37.666 28 -60.999c0 -31.333 -9.5 -56.666 -28.5 -75.999s-43.167 -29 -72.5 -29c-11.333 0 -21.833 1 -31.5 3s-18.167 5.66699 -25.5 11l-16 11l15 20
l14 -11c6 -4.66699 12.667 -8 20 -10s14.666 -3 21.999 -3c19.333 0 35.666 7.33301 48.999 22s20 31.667 20 51v1.5v1.5c-0.666992 18.667 -7.33398 34.5 -20.001 47.5s-28.334 20.167 -47.001 21.5h-1.5h-2.5c-2 0 -4.33301 -0.166992 -7 -0.5
s-5.33398 -0.5 -8.00098 -0.5l-8 -2l-8 -2c-2 -0.666992 -4 -1.16699 -6 -1.5s-3.66699 -0.833008 -5 -1.5l-16 -6l5 83v0z" />
    <glyph glyph-name="ring" unicode="&#xc8;" horiz-adv-x="592" 
d="M26 740l501.003 -0.00390625l-1 -164l-14 40c-1.33301 2.66699 -2.5 5.66699 -3.5 9s-2.16699 6.33301 -3.5 9c-3.33301 9.33301 -6.83301 17.5 -10.5 24.5s-9.5 13.167 -17.5 18.5c-5.33301 3.33301 -11.333 6 -18 8s-13.334 3.33301 -20.001 4
c-4 0 -7.83301 0.166992 -11.5 0.5s-7.5 0.5 -11.5 0.5l-123 1c-1.33301 -0.666992 -2.66602 -1 -3.99902 -1h-5c-8 0 -15.833 -0.333008 -23.5 -1s-13.5 -3 -17.5 -7c-2.66699 -2.66699 -4.33398 -7.16699 -5.00098 -13.5s-1 -13.166 -1 -20.499v-0.5v-1.5v-2.5v-2.5v-239
h142c4 -0.666992 8 -1 12 -1h12c8 0 15.5 0.5 22.5 1.5s13.5 3.83301 19.5 8.5c1.33301 1.33301 2.66602 2.5 3.99902 3.5s2.33301 2.16699 3 3.5c3.33301 2.66699 5.83301 5.33398 7.5 8.00098s3.5 6 5.5 10l21 44v-235l-9 23c-0.666992 2 -1.5 4.33301 -2.5 7
s-1.83301 5.33398 -2.5 8.00098c-0.666992 1.33301 -1.16699 2.5 -1.5 3.5s-0.833008 2.16699 -1.5 3.5c-3.33301 10.667 -7.16602 20.834 -11.499 30.501s-10.166 16.5 -17.499 20.5c-4 2.66699 -8 4.66699 -12 6s-8 2.33301 -12 3s-8.16699 1 -12.5 1h-14.5h-2.5h-2.5
l-147 1v-246c0 -3.33301 0.166992 -7 0.5 -11s0.833008 -7.66699 1.5 -11c1.33301 -7.33301 3.16602 -13.833 5.49902 -19.5s5.5 -9.5 9.5 -11.5c5.33301 -2.66699 10.166 -4.33398 14.499 -5.00098s8.83301 -1 13.5 -1h5.5c1.66699 0 3.5 0.333008 5.5 1h5h6l164 1
c2 -0.666992 4 -1 6 -1h6c1.33301 -0.666992 3 -1 5 -1h6c3.33301 0 6.66602 0.333008 9.99902 1s6.66602 1.66699 9.99902 3c5.33301 2.66699 9.83301 8 13.5 16s7.16699 17 10.5 27c0.666992 2 1.33398 4.16699 2.00098 6.5s1.33398 4.5 2.00098 6.5
c1.33301 4 2.83301 8 4.5 12l4.5 11l13 32l-5 -162h-530l23 7c5.33301 0.666992 11.5 2 18.5 4l21.5 6c6.66699 2.66699 13.334 5.16699 20.001 7.5s12.667 4.83301 18 7.5c3.33301 1.33301 6.33301 3 9 5s4.66699 3.66699 6 5c3.33301 4 5.66602 8.5 6.99902 13.5
s2.33301 10.167 3 15.5v6v6v9v8v542v9.5v9.5c0 6.66699 -0.5 12.834 -1.5 18.501s-3.83301 11.167 -8.5 16.5c-1.33301 1.33301 -3.33301 3 -6 5s-5.66699 3.66699 -9 5c-5.33301 2.66699 -11.333 5.16699 -18 7.5s-13.334 4.83301 -20.001 7.5l-21.5 6
c-7 2 -13.167 3.66699 -18.5 5l-23 8v0zM403.003 790.996l-163 174l73 46l90 -220v0z" />
    <glyph glyph-name="Eacute" unicode="&#xc9;" horiz-adv-x="595" 
d="M26 740l501.003 -0.00390625l-1 -164l-14 40c-1.33301 2.66699 -2.5 5.66699 -3.5 9s-2.16699 6.33301 -3.5 9c-3.33301 9.33301 -6.83301 17.5 -10.5 24.5s-9.5 13.167 -17.5 18.5c-5.33301 3.33301 -11.333 6 -18 8s-13.334 3.33301 -20.001 4
c-4 0 -7.83301 0.166992 -11.5 0.5s-7.5 0.5 -11.5 0.5l-123 1c-1.33301 -0.666992 -2.66602 -1 -3.99902 -1h-5c-8 0 -15.833 -0.333008 -23.5 -1s-13.5 -3 -17.5 -7c-2.66699 -2.66699 -4.33398 -7.16699 -5.00098 -13.5s-1 -13.166 -1 -20.499v-0.5v-1.5v-2.5v-2.5v-239
h142c4 -0.666992 8 -1 12 -1h12c8 0 15.5 0.5 22.5 1.5s13.5 3.83301 19.5 8.5c1.33301 1.33301 2.66602 2.5 3.99902 3.5s2.33301 2.16699 3 3.5c3.33301 2.66699 5.83301 5.33398 7.5 8.00098s3.5 6 5.5 10l21 44v-235l-9 23c-0.666992 2 -1.5 4.33301 -2.5 7
s-1.83301 5.33398 -2.5 8.00098c-0.666992 1.33301 -1.16699 2.5 -1.5 3.5s-0.833008 2.16699 -1.5 3.5c-3.33301 10.667 -7.16602 20.834 -11.499 30.501s-10.166 16.5 -17.499 20.5c-4 2.66699 -8 4.66699 -12 6s-8 2.33301 -12 3s-8.16699 1 -12.5 1h-14.5h-2.5h-2.5
l-147 1v-246c0 -3.33301 0.166992 -7 0.5 -11s0.833008 -7.66699 1.5 -11c1.33301 -7.33301 3.16602 -13.833 5.49902 -19.5s5.5 -9.5 9.5 -11.5c5.33301 -2.66699 10.166 -4.33398 14.499 -5.00098s8.83301 -1 13.5 -1h5.5c1.66699 0 3.5 0.333008 5.5 1h5h6l164 1
c2 -0.666992 4 -1 6 -1h6c1.33301 -0.666992 3 -1 5 -1h6c3.33301 0 6.66602 0.333008 9.99902 1s6.66602 1.66699 9.99902 3c5.33301 2.66699 9.83301 8 13.5 16s7.16699 17 10.5 27c0.666992 2 1.33398 4.16699 2.00098 6.5s1.33398 4.5 2.00098 6.5
c1.33301 4 2.83301 8 4.5 12l4.5 11l13 32l-5 -162h-530l23 7c5.33301 0.666992 11.5 2 18.5 4l21.5 6c6.66699 2.66699 13.334 5.16699 20.001 7.5s12.667 4.83301 18 7.5c3.33301 1.33301 6.33301 3 9 5s4.66699 3.66699 6 5c3.33301 4 5.66602 8.5 6.99902 13.5
s2.33301 10.167 3 15.5v6v6v9v8v542v9.5v9.5c0 6.66699 -0.5 12.834 -1.5 18.501s-3.83301 11.167 -8.5 16.5c-1.33301 1.33301 -3.33301 3 -6 5s-5.66699 3.66699 -9 5c-5.33301 2.66699 -11.333 5.16699 -18 7.5s-13.334 4.83301 -20.001 7.5l-21.5 6
c-7 2 -13.167 3.66699 -18.5 5l-23 8v0zM410.003 965.996l-163 -175l90 221l73 -46v0z" />
    <glyph glyph-name="macron" unicode="&#xca;" horiz-adv-x="598" 
d="M26 740l501.003 -0.00390625l-1 -164l-14 40c-1.33301 2.66699 -2.5 5.66699 -3.5 9s-2.16699 6.33301 -3.5 9c-3.33301 9.33301 -6.83301 17.5 -10.5 24.5s-9.5 13.167 -17.5 18.5c-5.33301 3.33301 -11.333 6 -18 8s-13.334 3.33301 -20.001 4
c-4 0 -7.83301 0.166992 -11.5 0.5s-7.5 0.5 -11.5 0.5l-123 1c-1.33301 -0.666992 -2.66602 -1 -3.99902 -1h-5c-8 0 -15.833 -0.333008 -23.5 -1s-13.5 -3 -17.5 -7c-2.66699 -2.66699 -4.33398 -7.16699 -5.00098 -13.5s-1 -13.166 -1 -20.499v-0.5v-1.5v-2.5v-2.5v-239
h142c4 -0.666992 8 -1 12 -1h12c8 0 15.5 0.5 22.5 1.5s13.5 3.83301 19.5 8.5c1.33301 1.33301 2.66602 2.5 3.99902 3.5s2.33301 2.16699 3 3.5c3.33301 2.66699 5.83301 5.33398 7.5 8.00098s3.5 6 5.5 10l21 44v-235l-9 23c-0.666992 2 -1.5 4.33301 -2.5 7
s-1.83301 5.33398 -2.5 8.00098c-0.666992 1.33301 -1.16699 2.5 -1.5 3.5s-0.833008 2.16699 -1.5 3.5c-3.33301 10.667 -7.16602 20.834 -11.499 30.501s-10.166 16.5 -17.499 20.5c-4 2.66699 -8 4.66699 -12 6s-8 2.33301 -12 3s-8.16699 1 -12.5 1h-14.5h-2.5h-2.5
l-147 1v-246c0 -3.33301 0.166992 -7 0.5 -11s0.833008 -7.66699 1.5 -11c1.33301 -7.33301 3.16602 -13.833 5.49902 -19.5s5.5 -9.5 9.5 -11.5c5.33301 -2.66699 10.166 -4.33398 14.499 -5.00098s8.83301 -1 13.5 -1h5.5c1.66699 0 3.5 0.333008 5.5 1h5h6l164 1
c2 -0.666992 4 -1 6 -1h6c1.33301 -0.666992 3 -1 5 -1h6c3.33301 0 6.66602 0.333008 9.99902 1s6.66602 1.66699 9.99902 3c5.33301 2.66699 9.83301 8 13.5 16s7.16699 17 10.5 27c0.666992 2 1.33398 4.16699 2.00098 6.5s1.33398 4.5 2.00098 6.5
c1.33301 4 2.83301 8 4.5 12l4.5 11l13 32l-5 -162h-530l23 7c5.33301 0.666992 11.5 2 18.5 4l21.5 6c6.66699 2.66699 13.334 5.16699 20.001 7.5s12.667 4.83301 18 7.5c3.33301 1.33301 6.33301 3 9 5s4.66699 3.66699 6 5c3.33301 4 5.66602 8.5 6.99902 13.5
s2.33301 10.167 3 15.5v6v6v9v8v542v9.5v9.5c0 6.66699 -0.5 12.834 -1.5 18.501s-3.83301 11.167 -8.5 16.5c-1.33301 1.33301 -3.33301 3 -6 5s-5.66699 3.66699 -9 5c-5.33301 2.66699 -11.333 5.16699 -18 7.5s-13.334 4.83301 -20.001 7.5l-21.5 6
c-7 2 -13.167 3.66699 -18.5 5l-23 8v0zM306.003 842.996l-132 -51l132 144l134 -140l-134 47v0z" />
    <glyph glyph-name="dotaccent" unicode="&#xcb;" horiz-adv-x="595" 
d="M26 740l501.003 -0.00390625l-1 -164l-14 40c-1.33301 2.66699 -2.5 5.66699 -3.5 9s-2.16699 6.33301 -3.5 9c-3.33301 9.33301 -6.83301 17.5 -10.5 24.5s-9.5 13.167 -17.5 18.5c-5.33301 3.33301 -11.333 6 -18 8s-13.334 3.33301 -20.001 4
c-4 0 -7.83301 0.166992 -11.5 0.5s-7.5 0.5 -11.5 0.5l-123 1c-1.33301 -0.666992 -2.66602 -1 -3.99902 -1h-5c-8 0 -15.833 -0.333008 -23.5 -1s-13.5 -3 -17.5 -7c-2.66699 -2.66699 -4.33398 -7.16699 -5.00098 -13.5s-1 -13.166 -1 -20.499v-0.5v-1.5v-2.5v-2.5v-239
h142c4 -0.666992 8 -1 12 -1h12c8 0 15.5 0.5 22.5 1.5s13.5 3.83301 19.5 8.5c1.33301 1.33301 2.66602 2.5 3.99902 3.5s2.33301 2.16699 3 3.5c3.33301 2.66699 5.83301 5.33398 7.5 8.00098s3.5 6 5.5 10l21 44v-235l-9 23c-0.666992 2 -1.5 4.33301 -2.5 7
s-1.83301 5.33398 -2.5 8.00098c-0.666992 1.33301 -1.16699 2.5 -1.5 3.5s-0.833008 2.16699 -1.5 3.5c-3.33301 10.667 -7.16602 20.834 -11.499 30.501s-10.166 16.5 -17.499 20.5c-4 2.66699 -8 4.66699 -12 6s-8 2.33301 -12 3s-8.16699 1 -12.5 1h-14.5h-2.5h-2.5
l-147 1v-246c0 -3.33301 0.166992 -7 0.5 -11s0.833008 -7.66699 1.5 -11c1.33301 -7.33301 3.16602 -13.833 5.49902 -19.5s5.5 -9.5 9.5 -11.5c5.33301 -2.66699 10.166 -4.33398 14.499 -5.00098s8.83301 -1 13.5 -1h5.5c1.66699 0 3.5 0.333008 5.5 1h5h6l164 1
c2 -0.666992 4 -1 6 -1h6c1.33301 -0.666992 3 -1 5 -1h6c3.33301 0 6.66602 0.333008 9.99902 1s6.66602 1.66699 9.99902 3c5.33301 2.66699 9.83301 8 13.5 16s7.16699 17 10.5 27c0.666992 2 1.33398 4.16699 2.00098 6.5s1.33398 4.5 2.00098 6.5
c1.33301 4 2.83301 8 4.5 12l4.5 11l13 32l-5 -162h-530l23 7c5.33301 0.666992 11.5 2 18.5 4l21.5 6c6.66699 2.66699 13.334 5.16699 20.001 7.5s12.667 4.83301 18 7.5c3.33301 1.33301 6.33301 3 9 5s4.66699 3.66699 6 5c3.33301 4 5.66602 8.5 6.99902 13.5
s2.33301 10.167 3 15.5v6v6v9v8v542v9.5v9.5c0 6.66699 -0.5 12.834 -1.5 18.501s-3.83301 11.167 -8.5 16.5c-1.33301 1.33301 -3.33301 3 -6 5s-5.66699 3.66699 -9 5c-5.33301 2.66699 -11.333 5.16699 -18 7.5s-13.334 4.83301 -20.001 7.5l-21.5 6
c-7 2 -13.167 3.66699 -18.5 5l-23 8v0zM263.003 937.996l45 -146l-143 45l98 101v0zM437.003 937.996l45 -146l-143 45l98 101v0z" />
    <glyph glyph-name="caron" unicode="&#xcc;" horiz-adv-x="390" 
d="M237 642l-0.00292969 -544.997c0 -11.333 0.5 -21.166 1.5 -29.499s4.83301 -16.5 11.5 -24.5c4 -5.33301 11.167 -9.83301 21.5 -13.5s21.166 -6.83398 32.499 -9.50098c2 -0.666992 3.83301 -1.33398 5.5 -2.00098s3.5 -1 5.5 -1
c5.33301 -1.33301 10.333 -2.83301 15 -4.5l13 -4.5l22 -8h-339l23 7c5.33301 0.666992 11.5 2 18.5 4l21.5 6c6.66699 2.66699 13.334 5.16699 20.001 7.5s12.667 4.83301 18 7.5c3.33301 1.33301 6.33301 3 9 5s4.66699 3.66699 6 5l5.5 9.5
c1.66699 3 2.83398 6.16699 3.50098 9.5s1.16699 6.66602 1.5 9.99902s0.5 6.33301 0.5 9v5.5v4.5c-0.666992 2 -1 3.83301 -1 5.5v4.5v539v3.5c0 1.66699 0.333008 3.5 1 5.5v5v6c0 2.66699 -0.166992 5.16699 -0.5 7.5s-0.833008 4.83301 -1.5 7.5
c-0.666992 4 -1.66699 7.83301 -3 11.5s-3.33301 7.16699 -6 10.5c-1.33301 1.33301 -3.33301 3 -6 5s-5.66699 3.66699 -9 5c-5.33301 2.66699 -11.333 5.16699 -18 7.5s-13.334 4.83301 -20.001 7.5l-21.5 6c-7 2 -13.167 3.66699 -18.5 5l-23 8h339l-22 -9
c-4 -2.66699 -8.66699 -4.66699 -14 -6s-11 -2.66602 -17 -3.99902c-1.33301 -0.666992 -2.66602 -1.16699 -3.99902 -1.5s-2.66602 -0.833008 -3.99902 -1.5c-11.333 -2.66699 -22.166 -5.83398 -32.499 -9.50098s-17.5 -7.83398 -21.5 -12.501
c-0.666992 -1.33301 -1.5 -2.5 -2.5 -3.5s-1.83301 -2.16699 -2.5 -3.5c-4 -7.33301 -6.33301 -14.833 -7 -22.5s-1 -16.167 -1 -25.5v1zM281.997 789.003l-163 174l72 47l91 -221v0z" />
    <glyph glyph-name="cedilla" unicode="&#xcd;" horiz-adv-x="390" 
d="M237 642l-0.00292969 -544.997c0 -11.333 0.5 -21.166 1.5 -29.499s4.83301 -16.5 11.5 -24.5c4 -5.33301 11.167 -9.83301 21.5 -13.5s21.166 -6.83398 32.499 -9.50098c2 -0.666992 3.83301 -1.33398 5.5 -2.00098s3.5 -1 5.5 -1
c5.33301 -1.33301 10.333 -2.83301 15 -4.5l13 -4.5l22 -8h-339l23 7c5.33301 0.666992 11.5 2 18.5 4l21.5 6c6.66699 2.66699 13.334 5.16699 20.001 7.5s12.667 4.83301 18 7.5c3.33301 1.33301 6.33301 3 9 5s4.66699 3.66699 6 5l5.5 9.5
c1.66699 3 2.83398 6.16699 3.50098 9.5s1.16699 6.66602 1.5 9.99902s0.5 6.33301 0.5 9v5.5v4.5c-0.666992 2 -1 3.83301 -1 5.5v4.5v539v3.5c0 1.66699 0.333008 3.5 1 5.5v5v6c0 2.66699 -0.166992 5.16699 -0.5 7.5s-0.833008 4.83301 -1.5 7.5
c-0.666992 4 -1.66699 7.83301 -3 11.5s-3.33301 7.16699 -6 10.5c-1.33301 1.33301 -3.33301 3 -6 5s-5.66699 3.66699 -9 5c-5.33301 2.66699 -11.333 5.16699 -18 7.5s-13.334 4.83301 -20.001 7.5l-21.5 6c-7 2 -13.167 3.66699 -18.5 5l-23 8h339l-22 -9
c-4 -2.66699 -8.66699 -4.66699 -14 -6s-11 -2.66602 -17 -3.99902c-1.33301 -0.666992 -2.66602 -1.16699 -3.99902 -1.5s-2.66602 -0.833008 -3.99902 -1.5c-11.333 -2.66699 -22.166 -5.83398 -32.499 -9.50098s-17.5 -7.83398 -21.5 -12.501
c-0.666992 -1.33301 -1.5 -2.5 -2.5 -3.5s-1.83301 -2.16699 -2.5 -3.5c-4 -7.33301 -6.33301 -14.833 -7 -22.5s-1 -16.167 -1 -25.5v1zM273.997 964.003l-163 -174l90 221l73 -47v0z" />
    <glyph glyph-name="hungarumlaut" unicode="&#xce;" horiz-adv-x="390" 
d="M237 642l-0.00292969 -544.997c0 -11.333 0.5 -21.166 1.5 -29.499s4.83301 -16.5 11.5 -24.5c4 -5.33301 11.167 -9.83301 21.5 -13.5s21.166 -6.83398 32.499 -9.50098c2 -0.666992 3.83301 -1.33398 5.5 -2.00098s3.5 -1 5.5 -1
c5.33301 -1.33301 10.333 -2.83301 15 -4.5l13 -4.5l22 -8h-339l23 7c5.33301 0.666992 11.5 2 18.5 4l21.5 6c6.66699 2.66699 13.334 5.16699 20.001 7.5s12.667 4.83301 18 7.5c3.33301 1.33301 6.33301 3 9 5s4.66699 3.66699 6 5l5.5 9.5
c1.66699 3 2.83398 6.16699 3.50098 9.5s1.16699 6.66602 1.5 9.99902s0.5 6.33301 0.5 9v5.5v4.5c-0.666992 2 -1 3.83301 -1 5.5v4.5v539v3.5c0 1.66699 0.333008 3.5 1 5.5v5v6c0 2.66699 -0.166992 5.16699 -0.5 7.5s-0.833008 4.83301 -1.5 7.5
c-0.666992 4 -1.66699 7.83301 -3 11.5s-3.33301 7.16699 -6 10.5c-1.33301 1.33301 -3.33301 3 -6 5s-5.66699 3.66699 -9 5c-5.33301 2.66699 -11.333 5.16699 -18 7.5s-13.334 4.83301 -20.001 7.5l-21.5 6c-7 2 -13.167 3.66699 -18.5 5l-23 8h339l-22 -9
c-4 -2.66699 -8.66699 -4.66699 -14 -6s-11 -2.66602 -17 -3.99902c-1.33301 -0.666992 -2.66602 -1.16699 -3.99902 -1.5s-2.66602 -0.833008 -3.99902 -1.5c-11.333 -2.66699 -22.166 -5.83398 -32.499 -9.50098s-17.5 -7.83398 -21.5 -12.501
c-0.666992 -1.33301 -1.5 -2.5 -2.5 -3.5s-1.83301 -2.16699 -2.5 -3.5c-4 -7.33301 -6.33301 -14.833 -7 -22.5s-1 -16.167 -1 -25.5v1zM190.997 840.003l-132 -51l132 144l133 -140l-133 47v0z" />
    <glyph glyph-name="ogonek" unicode="&#xcf;" horiz-adv-x="390" 
d="M237 642l-0.00292969 -544.997c0 -11.333 0.5 -21.166 1.5 -29.499s4.83301 -16.5 11.5 -24.5c4 -5.33301 11.167 -9.83301 21.5 -13.5s21.166 -6.83398 32.499 -9.50098c2 -0.666992 3.83301 -1.33398 5.5 -2.00098s3.5 -1 5.5 -1
c5.33301 -1.33301 10.333 -2.83301 15 -4.5l13 -4.5l22 -8h-339l23 7c5.33301 0.666992 11.5 2 18.5 4l21.5 6c6.66699 2.66699 13.334 5.16699 20.001 7.5s12.667 4.83301 18 7.5c3.33301 1.33301 6.33301 3 9 5s4.66699 3.66699 6 5l5.5 9.5
c1.66699 3 2.83398 6.16699 3.50098 9.5s1.16699 6.66602 1.5 9.99902s0.5 6.33301 0.5 9v5.5v4.5c-0.666992 2 -1 3.83301 -1 5.5v4.5v539v3.5c0 1.66699 0.333008 3.5 1 5.5v5v6c0 2.66699 -0.166992 5.16699 -0.5 7.5s-0.833008 4.83301 -1.5 7.5
c-0.666992 4 -1.66699 7.83301 -3 11.5s-3.33301 7.16699 -6 10.5c-1.33301 1.33301 -3.33301 3 -6 5s-5.66699 3.66699 -9 5c-5.33301 2.66699 -11.333 5.16699 -18 7.5s-13.334 4.83301 -20.001 7.5l-21.5 6c-7 2 -13.167 3.66699 -18.5 5l-23 8h339l-22 -9
c-4 -2.66699 -8.66699 -4.66699 -14 -6s-11 -2.66602 -17 -3.99902c-1.33301 -0.666992 -2.66602 -1.16699 -3.99902 -1.5s-2.66602 -0.833008 -3.99902 -1.5c-11.333 -2.66699 -22.166 -5.83398 -32.499 -9.50098s-17.5 -7.83398 -21.5 -12.501
c-0.666992 -1.33301 -1.5 -2.5 -2.5 -3.5s-1.83301 -2.16699 -2.5 -3.5c-4 -7.33301 -6.33301 -14.833 -7 -22.5s-1 -16.167 -1 -25.5v1zM134.997 936.003l45 -146l-143 45l98 101v0zM308.997 936.003l45 -146l-143 45l98 101v0z" />
    <glyph glyph-name="glyph232" unicode="&#xd0;" horiz-adv-x="500" 
 />
    <glyph glyph-name="Ntilde" unicode="&#xd1;" horiz-adv-x="937" 
d="M769 -2l-99.498 110.504l-31.5 34.5l-14 14l-27 28l-42 44l-43 45c-2.66699 3.33301 -5.66699 6.5 -9 9.5s-6.33301 6.16699 -9 9.5l-186 190.5l-126 125.5v-432v-9.5v-11.5c-0.666992 -4 -1 -8.5 -1 -13.5v-15.5v-12v-12
c0.666992 -10.667 1.83398 -21.334 3.50098 -32.001s4.16699 -19.334 7.5 -26.001s9.83301 -12.334 19.5 -17.001s19.834 -9 30.501 -13l9 -3.5c2.66699 -1 5.33398 -1.83301 8.00098 -2.5l28 -9h-261l17 8c3.33301 0.666992 6.5 1.66699 9.5 3s6.16699 2.66602 9.5 3.99902
c11.333 4.66699 22.166 9.66699 32.499 15s17.5 11.666 21.5 18.999c3.33301 6 5.5 16.5 6.5 31.5s1.83301 31.167 2.5 48.5v24v22v565h58l26 -33.5c10 -13 23.333 -28.167 40 -45.5l92.5 -95l102.5 -106l198.5 -207c61.667 -64 99.5 -102.333 113.5 -115v426v15.5v17.5
v17.5v16.5c0 13.333 -0.333008 25.5 -1 36.5s-2.33398 18.833 -5.00098 23.5c-3.33301 6.66699 -9.83301 12.334 -19.5 17.001s-19.834 9 -30.501 13l-3 1.5c-0.666992 0.333008 -1.33398 0.5 -2.00098 0.5l-10 4l-10 4l-17 9h261l-28 -12
c-2 -1.33301 -3.83301 -2.33301 -5.5 -3s-3.5 -1.33398 -5.5 -2.00098c-10.667 -4.66699 -20.167 -9.16699 -28.5 -13.5s-15.833 -9.83301 -22.5 -16.5c-3.33301 -3.33301 -5.83301 -11.166 -7.5 -23.499s-2.83398 -25.5 -3.50098 -39.5c-0.666992 -8 -1 -15.833 -1 -23.5
v-20.5v-15.5v-5.5v-567h-48v0zM648.002 851.004c-6.66699 -12.667 -15.1641 -23.498 -25.4971 -32.498s-21.166 -16.167 -32.499 -21.5c-5.33301 -2.66699 -10.833 -4.66699 -16.5 -6s-11.167 -2 -16.5 -2c-13.333 0 -25 2.83301 -35 8.5s-19.333 12.167 -28 19.5
c-8.66699 6.66699 -17.834 12.667 -27.501 18s-20.834 8 -33.501 8v0v0h-1v0c-12 -0.666992 -21.833 -2.33398 -29.5 -5.00098s-14.834 -6 -21.501 -10l-14 -8l-15 -9l-31 -15l18 32c8.66699 15.333 21 29.333 37 42s32.667 20.667 50 24c2 0 3.83301 0.166992 5.5 0.5
s3.16699 0.5 4.5 0.5h1.5h1.5c12 0 22.333 -3 31 -9s17 -12.333 25 -19s16.167 -12.834 24.5 -18.501s18.166 -8.5 29.499 -8.5h1.5h1.5c15.333 1.33301 27.5 3.33301 36.5 6s17.167 6 24.5 10c4.66699 2 9.5 4.33301 14.5 7l17.5 9l23 12l-20 -33v0z" />
    <glyph glyph-name="scaron" unicode="&#xd2;" horiz-adv-x="853" 
d="M405 754c1.33301 -0.666992 2.83105 -1 4.49805 -1h5.5h4.5h4.5c104.667 0 195.334 -34.333 272.001 -103s116.334 -161 119.001 -277c1.33301 -116.667 -39 -210.167 -121 -280.5s-178.667 -104.833 -290 -103.5c-104.667 0.666992 -193.5 38.167 -266.5 112.5
s-109.5 164.833 -109.5 271.5c0 104 37 192.333 111 265s162.667 111 266 115v1zM403.998 698c-90.667 -3.33301 -162.5 -36.833 -215.5 -100.5s-79.167 -137.834 -78.5 -222.501c1.33301 -81.333 30 -155.666 86 -222.999s127.333 -103.666 214 -108.999h5.5h4.5
c1.33301 -0.666992 2.83301 -1 4.5 -1h5.5c81.333 0 152 29.167 212 87.5s90 133.5 90 225.5c0 90 -30.5 169.667 -91.5 239s-136.167 103.666 -225.5 102.999h-2.5h-2.5h-3h-3v1zM509.998 791l-163 174l72 46l91 -220v0z" />
    <glyph glyph-name="Lslash" unicode="&#xd3;" horiz-adv-x="843" 
d="M405 754c1.33301 -0.666992 2.83105 -1 4.49805 -1h5.5h4.5h4.5c104.667 0 195.334 -34.333 272.001 -103s116.334 -161 119.001 -277c1.33301 -116.667 -39 -210.167 -121 -280.5s-178.667 -104.833 -290 -103.5c-104.667 0.666992 -193.5 38.167 -266.5 112.5
s-109.5 164.833 -109.5 271.5c0 104 37 192.333 111 265s162.667 111 266 115v1zM403.998 698c-90.667 -3.33301 -162.5 -36.833 -215.5 -100.5s-79.167 -137.834 -78.5 -222.501c1.33301 -81.333 30 -155.666 86 -222.999s127.333 -103.666 214 -108.999h5.5h4.5
c1.33301 -0.666992 2.83301 -1 4.5 -1h5.5c81.333 0 152 29.167 212 87.5s90 133.5 90 225.5c0 90 -30.5 169.667 -91.5 239s-136.167 103.666 -225.5 102.999h-2.5h-2.5h-3h-3v1zM515.998 963l-163 -174l90 221l73 -47v0z" />
    <glyph glyph-name="lslash" unicode="&#xd4;" horiz-adv-x="857" 
d="M405 754c1.33301 -0.666992 2.83105 -1 4.49805 -1h5.5h4.5h4.5c104.667 0 195.334 -34.333 272.001 -103s116.334 -161 119.001 -277c1.33301 -116.667 -39 -210.167 -121 -280.5s-178.667 -104.833 -290 -103.5c-104.667 0.666992 -193.5 38.167 -266.5 112.5
s-109.5 164.833 -109.5 271.5c0 104 37 192.333 111 265s162.667 111 266 115v1zM403.998 698c-90.667 -3.33301 -162.5 -36.833 -215.5 -100.5s-79.167 -137.834 -78.5 -222.501c1.33301 -81.333 30 -155.666 86 -222.999s127.333 -103.666 214 -108.999h5.5h4.5
c1.33301 -0.666992 2.83301 -1 4.5 -1h5.5c81.333 0 152 29.167 212 87.5s90 133.5 90 225.5c0 90 -30.5 169.667 -91.5 239s-136.167 103.666 -225.5 102.999h-2.5h-2.5h-3h-3v1zM430.998 842l-132 -51l132 144l133 -140l-133 47v0z" />
    <glyph glyph-name="guilsinglright" unicode="&#xd5;" horiz-adv-x="850" 
d="M405 754c1.33301 -0.666992 2.83105 -1 4.49805 -1h5.5h4.5h4.5c104.667 0 195.334 -34.333 272.001 -103s116.334 -161 119.001 -277c1.33301 -116.667 -39 -210.167 -121 -280.5s-178.667 -104.833 -290 -103.5c-104.667 0.666992 -193.5 38.167 -266.5 112.5
s-109.5 164.833 -109.5 271.5c0 104 37 192.333 111 265s162.667 111 266 115v1zM403.998 698c-90.667 -3.33301 -162.5 -36.833 -215.5 -100.5s-79.167 -137.834 -78.5 -222.501c1.33301 -81.333 30 -155.666 86 -222.999s127.333 -103.666 214 -108.999h5.5h4.5
c1.33301 -0.666992 2.83301 -1 4.5 -1h5.5c81.333 0 152 29.167 212 87.5s90 133.5 90 225.5c0 90 -30.5 169.667 -91.5 239s-136.167 103.666 -225.5 102.999h-2.5h-2.5h-3h-3v1zM581.998 851c-7.33301 -13.333 -16.332 -24.666 -26.999 -33.999s-22 -16.666 -34 -21.999
c-5.33301 -2 -10.5 -3.5 -15.5 -4.5s-9.83301 -1.5 -14.5 -1.5c-13.333 0 -24.833 2.83301 -34.5 8.5s-18.834 11.834 -27.501 18.501c-0.666992 0 -1 0.166992 -1 0.5s-0.333008 0.5 -1 0.5c-8.66699 6.66699 -17.5 12.667 -26.5 18s-19.833 8 -32.5 8v0v0h-1v0
c-12.667 -0.666992 -22.834 -2.33398 -30.501 -5.00098s-15.167 -6 -22.5 -10c-4 -2.66699 -8.33301 -5.33398 -13 -8.00098l-15 -9l-31 -15l18 32c8.66699 15.333 21 29.333 37 42s32.667 20.667 50 24c2 0 3.83301 0.166992 5.5 0.5s3.16699 0.5 4.5 0.5h1.5h1.5
c12 0 22.5 -3 31.5 -9s17.5 -12.333 25.5 -19c7.33301 -6.66699 15.333 -12.834 24 -18.501s18.667 -8.5 30 -8.5h1.5h1.5c14.667 1.33301 26.334 3.33301 35.001 6s17 5.66699 25 9l14.5 8l17.5 9l24 12l-21 -33v0z" />
    <glyph glyph-name="Odieresis" unicode="&#xd6;" horiz-adv-x="850" 
d="M405 754c1.33301 -0.666992 2.83105 -1 4.49805 -1h5.5h4.5h4.5c104.667 0 195.334 -34.333 272.001 -103s116.334 -161 119.001 -277c1.33301 -116.667 -39 -210.167 -121 -280.5s-178.667 -104.833 -290 -103.5c-104.667 0.666992 -193.5 38.167 -266.5 112.5
s-109.5 164.833 -109.5 271.5c0 104 37 192.333 111 265s162.667 111 266 115v1zM403.998 698c-90.667 -3.33301 -162.5 -36.833 -215.5 -100.5s-79.167 -137.834 -78.5 -222.501c1.33301 -81.333 30 -155.666 86 -222.999s127.333 -103.666 214 -108.999h5.5h4.5
c1.33301 -0.666992 2.83301 -1 4.5 -1h5.5c81.333 0 152 29.167 212 87.5s90 133.5 90 225.5c0 90 -30.5 169.667 -91.5 239s-136.167 103.666 -225.5 102.999h-2.5h-2.5h-3h-3v1zM365.998 935l45 -146l-143 45l98 101v0zM540.998 935l45 -146l-144 45l99 101v0z" />
    <glyph glyph-name="multiply" unicode="&#xd7;" 
 />
    <glyph glyph-name="plusminus" unicode="&#xd8;" horiz-adv-x="855" 
d="M405 754c1.33301 -0.666992 2.83301 -1.00098 4.5 -1.00098h5.5h4.5h4.5c33.333 0 65.5 -3.66699 96.5 -11s60.5 -18 88.5 -32l22 33h101l-55 -76c41.333 -33.333 74.333 -74.833 99 -124.5s37.667 -106.167 39 -169.5c1.33301 -116.667 -39 -210.167 -121 -280.5
s-178.667 -104.833 -290 -103.5c-32 0 -63 4 -93 12s-58.333 19.333 -85 34l-20 -29h-97l52 74c-40.667 34.667 -73 77.334 -97 128.001s-36 105.667 -36 165c0 104 37 192.333 111 265s162.667 111 266 115v1zM266 90.999c21.333 -13.333 44.001 -24.333 68.001 -33
s49.333 -13.667 76 -15h4.5h5.5c1.33301 -0.666992 2.83301 -1 4.5 -1h4.5c81.333 0 152.166 29.167 212.499 87.5s90.5 133.5 90.5 225.5c0 47.333 -8.83301 92.5 -26.5 135.5s-42.167 80.5 -73.5 112.5l-366 -512v0zM266.001 90.999l366 513l-366 -513v0zM569.001 653.999
c-22.667 13.333 -46.8311 23.835 -72.498 31.502s-52.834 11.5 -81.501 11.5h-2.5h-2.5h-3h-3c-90.667 -2.66699 -162.5 -35.834 -215.5 -99.501s-79.167 -137.834 -78.5 -222.501c0 -43.333 8.66699 -85.333 26 -126s40.666 -76.667 69.999 -108l363 513v0z
M569.004 654.001l-363 -512l363 512v0z" />
    <glyph glyph-name="Thorn" unicode="&#xd9;" horiz-adv-x="884" 
d="M726 603l-0.00195312 -313.001c0 -115.333 -29.667 -195.166 -89 -239.499s-127 -66.166 -203 -65.499c-72.667 0.666992 -137.834 23.667 -195.501 69s-86.5 119.666 -86.5 222.999v362v3.5c0 1.66699 0.333008 3.5 1 5.5v5v6c0 2.66699 -0.166992 5.16699 -0.5 7.5
s-0.833008 4.83301 -1.5 7.5c-0.666992 4 -1.66699 7.83301 -3 11.5s-3.33301 7.16699 -6 10.5c-1.33301 1.33301 -3.33301 3 -6 5s-5.66699 3.66699 -9 5c-5.33301 2.66699 -11.333 5.16699 -18 7.5s-13.334 4.83301 -20.001 7.5l-21.5 6c-7 2 -13.167 3.66699 -18.5 5
l-23 8h339l-22 -9c-4 -2.66699 -8.66699 -4.66699 -14 -6s-11 -2.66602 -17 -3.99902c-1.33301 -0.666992 -2.66602 -1.16699 -3.99902 -1.5s-2.66602 -0.833008 -3.99902 -1.5c-11.333 -2.66699 -22.166 -5.83398 -32.499 -9.50098s-17.5 -7.83398 -21.5 -12.501
c-0.666992 -1.33301 -1.5 -2.5 -2.5 -3.5s-1.83301 -2.16699 -2.5 -3.5c-4 -7.33301 -6.33301 -14.833 -7 -22.5s-1 -16.167 -1 -25.5v-367c0 -80 18.167 -137.333 54.5 -172s82.833 -56.334 139.5 -65.001c5.33301 -0.666992 10.333 -1.16699 15 -1.5
s9.33398 -0.5 14.001 -0.5c55.333 0 104 20.5 146 61.5s63 95.833 63 164.5v374v0.5v1.5v14.5c0 5 -0.666992 10.167 -2 15.5c-0.666992 4 -1.83398 8 -3.50098 12s-3.83398 8 -6.50098 12c-1.33301 1.33301 -3.33301 2.83301 -6 4.5s-6 3.5 -10 5.5
c-4.66699 2 -10.167 4.16699 -16.5 6.5l-19.5 7.5c-8 2 -15.5 4.33301 -22.5 7l-18.5 7l-23 11h312l-20 -11c-5.33301 -3.33301 -11.5 -6 -18.5 -8s-14.167 -4.33301 -21.5 -7c-11.333 -3.33301 -22.166 -6.83301 -32.499 -10.5s-17.166 -7.83398 -20.499 -12.501
c-2.66699 -3.33301 -4.83398 -9.16602 -6.50098 -17.499s-3.16699 -17.166 -4.5 -26.499c-1.33301 -10 -2.16602 -19.167 -2.49902 -27.5s-0.5 -14.166 -0.5 -17.499v1zM517.998 793.999l-163 175l73 46l90 -221v0z" />
    <glyph glyph-name="Eth" unicode="&#xda;" horiz-adv-x="893" 
d="M726 607l-0.000976562 -312c0 -115.333 -29.667 -195.166 -89 -239.499s-127 -66.166 -203 -65.499c-72.667 0.666992 -137.834 23.667 -195.501 69s-86.5 119.666 -86.5 222.999v362v3.5c0 1.66699 0.333008 3.5 1 5.5v5v6c0 2.66699 -0.166992 5.16699 -0.5 7.5
s-0.833008 4.83301 -1.5 7.5c-0.666992 4 -1.66699 7.83301 -3 11.5s-3.33301 7.16699 -6 10.5c-1.33301 1.33301 -3 2.83301 -5 4.5s-4.66699 3.16699 -8 4.5c-5.33301 2.66699 -11.5 5.33398 -18.5 8.00098s-14.167 5 -21.5 7c-7.33301 2.66699 -14.5 5 -21.5 7
s-13.167 3.66699 -18.5 5l-23 8h339l-22 -9c-4 -2 -8.33301 -3.83301 -13 -5.5s-9.66699 -3.16699 -15 -4.5c-2 0 -3.83301 -0.333008 -5.5 -1s-3.5 -1.33398 -5.5 -2.00098c-11.333 -2.66699 -22.166 -5.83398 -32.499 -9.50098s-17.5 -8.16699 -21.5 -13.5
c-6.66699 -8 -10.5 -16.167 -11.5 -24.5s-1.5 -18.166 -1.5 -29.499v-367c0 -80 18.167 -137.333 54.5 -172s82.833 -56.334 139.5 -65.001c5.33301 -0.666992 10.333 -1.16699 15 -1.5s9.33398 -0.5 14.001 -0.5c55.333 0 104 20.333 146 61s63 95.667 63 165v374v0.5v1.5
v14.5c0 5 -0.666992 10.167 -2 15.5c-0.666992 4 -1.83398 8 -3.50098 12s-3.83398 8 -6.50098 12c-1.33301 1.33301 -3.33301 2.83301 -6 4.5s-6 3.5 -10 5.5c-4.66699 2 -10.167 4.16699 -16.5 6.5l-19.5 7.5c-8 2 -15.5 4.33301 -22.5 7l-18.5 7l-23 11h312l-20 -11
c-5.33301 -3.33301 -11.5 -6 -18.5 -8s-14.167 -4.33301 -21.5 -7c-11.333 -3.33301 -22.166 -6.83301 -32.499 -10.5s-17.166 -7.83398 -20.499 -12.501c-2.66699 -3.33301 -4.83398 -9.16602 -6.50098 -17.499s-3.16699 -17.5 -4.5 -27.5
c-1.33301 -9.33301 -2.16602 -18.333 -2.49902 -27s-0.5 -14.667 -0.5 -18v1zM530.999 966l-163 -174l90 221l73 -47v0z" />
    <glyph glyph-name="eth" unicode="&#xdb;" horiz-adv-x="893" 
d="M726 603l-0.00195312 -313.001c0 -115.333 -29.667 -195.166 -89 -239.499s-127 -66.166 -203 -65.499c-72.667 0.666992 -137.834 23.667 -195.501 69s-86.5 119.666 -86.5 222.999v362v3.5c0 1.66699 0.333008 3.5 1 5.5v5v6c0 2.66699 -0.166992 5.16699 -0.5 7.5
s-0.833008 4.83301 -1.5 7.5c-0.666992 4 -1.66699 7.83301 -3 11.5s-3.33301 7.16699 -6 10.5c-1.33301 1.33301 -3.33301 3 -6 5s-5.66699 3.66699 -9 5c-5.33301 2.66699 -11.333 5.16699 -18 7.5s-13.334 4.83301 -20.001 7.5l-21.5 6c-7 2 -13.167 3.66699 -18.5 5
l-23 8h339l-22 -9c-4 -2.66699 -8.66699 -4.66699 -14 -6s-11 -2.66602 -17 -3.99902c-1.33301 -0.666992 -2.66602 -1.16699 -3.99902 -1.5s-2.66602 -0.833008 -3.99902 -1.5c-11.333 -2.66699 -22.166 -5.83398 -32.499 -9.50098s-17.5 -7.83398 -21.5 -12.501
c-0.666992 -1.33301 -1.5 -2.5 -2.5 -3.5s-1.83301 -2.16699 -2.5 -3.5c-4 -7.33301 -6.33301 -14.833 -7 -22.5s-1 -16.167 -1 -25.5v-367c0 -80 18.167 -137.333 54.5 -172s82.833 -56.334 139.5 -65.001c5.33301 -0.666992 10.333 -1.16699 15 -1.5
s9.33398 -0.5 14.001 -0.5c55.333 0 104 20.5 146 61.5s63 95.833 63 164.5v374v0.5v1.5v14.5c0 5 -0.666992 10.167 -2 15.5c-0.666992 4 -1.83398 8 -3.50098 12s-3.83398 8 -6.50098 12c-1.33301 1.33301 -3.33301 2.83301 -6 4.5s-6 3.5 -10 5.5
c-4.66699 2 -10.167 4.16699 -16.5 6.5l-19.5 7.5c-8 2 -15.5 4.33301 -22.5 7l-18.5 7l-23 11h312l-20 -11c-5.33301 -3.33301 -11.5 -6 -18.5 -8s-14.167 -4.33301 -21.5 -7c-11.333 -3.33301 -22.166 -6.83301 -32.499 -10.5s-17.166 -7.83398 -20.499 -12.501
c-2.66699 -3.33301 -4.83398 -9.16602 -6.50098 -17.499s-3.16699 -17.166 -4.5 -26.499c-1.33301 -10 -2.16602 -19.167 -2.49902 -27.5s-0.5 -14.166 -0.5 -17.499v1zM450.998 840.999l-133 -51l133 144l133 -140l-133 47v0z" />
    <glyph glyph-name="Udieresis" unicode="&#xdc;" horiz-adv-x="890" 
d="M726 603l-0.00195312 -313.001c0 -115.333 -29.667 -195.166 -89 -239.499s-127 -66.166 -203 -65.499c-72.667 0.666992 -137.834 23.667 -195.501 69s-86.5 119.666 -86.5 222.999v362v3.5c0 1.66699 0.333008 3.5 1 5.5v5v6c0 2.66699 -0.166992 5.16699 -0.5 7.5
s-0.833008 4.83301 -1.5 7.5c-0.666992 4 -1.66699 7.83301 -3 11.5s-3.33301 7.16699 -6 10.5c-1.33301 1.33301 -3.33301 3 -6 5s-5.66699 3.66699 -9 5c-5.33301 2.66699 -11.333 5.16699 -18 7.5s-13.334 4.83301 -20.001 7.5l-21.5 6c-7 2 -13.167 3.66699 -18.5 5
l-23 8h339l-22 -9c-4 -2.66699 -8.66699 -4.66699 -14 -6s-11 -2.66602 -17 -3.99902c-1.33301 -0.666992 -2.66602 -1.16699 -3.99902 -1.5s-2.66602 -0.833008 -3.99902 -1.5c-11.333 -2.66699 -22.166 -5.83398 -32.499 -9.50098s-17.5 -7.83398 -21.5 -12.501
c-0.666992 -1.33301 -1.5 -2.5 -2.5 -3.5s-1.83301 -2.16699 -2.5 -3.5c-4 -7.33301 -6.33301 -14.833 -7 -22.5s-1 -16.167 -1 -25.5v-367c0 -80 18.167 -137.333 54.5 -172s82.833 -56.334 139.5 -65.001c5.33301 -0.666992 10.333 -1.16699 15 -1.5
s9.33398 -0.5 14.001 -0.5c55.333 0 104 20.5 146 61.5s63 95.833 63 164.5v374v0.5v1.5v14.5c0 5 -0.666992 10.167 -2 15.5c-0.666992 4 -1.83398 8 -3.50098 12s-3.83398 8 -6.50098 12c-1.33301 1.33301 -3.33301 2.83301 -6 4.5s-6 3.5 -10 5.5
c-4.66699 2 -10.167 4.16699 -16.5 6.5l-19.5 7.5c-8 2 -15.5 4.33301 -22.5 7l-18.5 7l-23 11h312l-20 -11c-5.33301 -3.33301 -11.5 -6 -18.5 -8s-14.167 -4.33301 -21.5 -7c-11.333 -3.33301 -22.166 -6.83301 -32.499 -10.5s-17.166 -7.83398 -20.499 -12.501
c-2.66699 -3.33301 -4.83398 -9.16602 -6.50098 -17.499s-3.16699 -17.166 -4.5 -26.499c-1.33301 -10 -2.16602 -19.167 -2.49902 -27.5s-0.5 -14.166 -0.5 -17.499v1zM388.998 934.999l45 -146l-143 45l98 101v0zM563.998 934.999l45 -146l-144 45l99 101v0z" />
    <glyph glyph-name="Yacute" unicode="&#xdd;" 
 />
    <glyph glyph-name="glyph236" unicode="&#xde;" horiz-adv-x="500" 
 />
    <glyph glyph-name="germandbls" unicode="&#xdf;" horiz-adv-x="630" 
d="M237 97l0.000976562 -1.99609v-3c0 -2.66699 0.166992 -7 0.5 -13s0.833008 -12 1.5 -18c0.666992 -4 1.5 -8 2.5 -12s2.16699 -7.66699 3.5 -11c1.33301 -2 2.33301 -4 3 -6s1.66699 -4 3 -6c2.66699 -5.33301 6 -9.5 10 -12.5s9.66699 -5.83301 17 -8.5l18 -5h-270
l23 7c5.33301 0.666992 11.5 2 18.5 4l21.5 6c6.66699 2.66699 13.334 5.16699 20.001 7.5s12.667 4.83301 18 7.5c3.33301 1.33301 6.33301 3 9 5s4.66699 3.66699 6 5c1.33301 2 2.5 4 3.5 6s2.16699 4 3.5 6c1.33301 4 2.16602 8 2.49902 12s0.5 8 0.5 12v8.5v9.5v546
c0 8.66699 -0.5 16.667 -1.5 24s-4.16699 14.333 -9.5 21c-4 5.33301 -11.167 10.166 -21.5 14.499s-21.5 8.5 -33.5 12.5l-21.5 7.5c-7 2.33301 -13.167 4.83301 -18.5 7.5l-20 11h182c8.66699 -0.666992 17.167 -1 25.5 -1h24.5c1.33301 0 2.66602 0.166992 3.99902 0.5
s2.66602 0.5 3.99902 0.5h45c15.333 0 32.333 -0.333008 51 -1c48 -2 90.5 -17 127.5 -45s56.833 -67.667 59.5 -119v-2.5v-2.5v-2.5v-2.5c0 -36 -9.83301 -67 -29.5 -93s-45.834 -47.667 -78.501 -65l-31 -16l58 -19c39.333 -13.333 70.833 -33.833 94.5 -61.5
s37.167 -62.167 40.5 -103.5v-4.5c0 -1.66699 0.333008 -3.16699 1 -4.5v-4.5v-4.5c-0.666992 -45.333 -14.167 -86.333 -40.5 -123s-65.833 -56 -118.5 -58h-1.5h-1.5h-2.5h-2.5c-8.66699 0.666992 -16.667 2.66699 -24 6s-13.333 7.33301 -18 12l-16 17l43 6
c3.33301 -0.666992 6 -0.833984 8 -0.500977s3.66699 0.5 5 0.5s2.66602 0.166992 3.99902 0.5s2.33301 0.5 3 0.5c2.66699 0 5.33398 0.5 8.00098 1.5s6.33398 2.5 11.001 4.5c19.333 8 34 24 44 48s15 49.667 15 77c0 7.33301 -0.333008 14.166 -1 20.499
s-1.66699 12.833 -3 19.5c-8 42 -28 72 -60 90s-68 33.667 -108 47c-2.66699 0.666992 -5.5 1.5 -8.5 2.5s-6.16699 2.16699 -9.5 3.5l-23 19l18 17c2 0.666992 4.16699 1.66699 6.5 3s4.5 2.66602 6.5 3.99902l22 11.5l22 11.5c25.333 13.333 47 28.333 65 45
s27 40.667 27 72v8.5c0 3 -0.333008 5.83301 -1 8.5c-4.66699 49.333 -20.667 82.333 -48 99s-57.333 25.667 -90 27h-6h-7h-9.5h-9.5c-11.333 -0.666992 -22.166 -1.66699 -32.499 -3s-17.5 -3 -21.5 -5c-6 -4 -9.5 -9.33301 -10.5 -16s-1.5 -14 -1.5 -22v-1v-2v-283v-261
v0z" />
    <glyph glyph-name="agrave" unicode="&#xe0;" horiz-adv-x="843" 
d="M460 740c1.33301 -5.33301 2.66797 -10.167 4.00098 -14.5l4 -12.5c0.666992 -4.66699 1.66699 -9 3 -13s2.66602 -8.66699 3.99902 -14c9.33301 -28.667 23 -68.167 41 -118.5l57 -156.5l4 -10l4 -10l68.5 -182.5c21.667 -55.667 36.167 -91.5 43.5 -107.5
c2 -5.33301 4 -10 6 -14s4 -8.33301 6 -13c1.33301 -3.33301 3 -6.83301 5 -10.5l6 -11.5c3.33301 -6.66699 10.166 -12.667 20.499 -18s21.5 -10.333 33.5 -15c2.66699 -0.666992 5.33398 -1.66699 8.00098 -3s5.33398 -2.33301 8.00098 -3
c2 -0.666992 3.83301 -1.5 5.5 -2.5s3.5 -1.83301 5.5 -2.5l21 -8h-296l26 10c4 0.666992 8.33301 2 13 4s9.66699 4 15 6c9.33301 3.33301 17.833 7.33301 25.5 12s12.5 10.334 14.5 17.001v0.5c0 0.333008 0.333008 0.833008 1 1.5v1.5v1.5
c0 3.33301 -0.666992 7.66602 -2 12.999s-3 10.333 -5 15c-0.666992 2.66699 -1.33398 5 -2.00098 7l-2 6c-0.666992 2.66699 -1.5 5.16699 -2.5 7.5s-1.83301 4.5 -2.5 6.5l-67 188h-247l-70 -187l-1.5 -4.5c-0.333008 -1 -0.5 -2.16699 -0.5 -3.5
c-1.33301 -2.66699 -2.5 -5.66699 -3.5 -9s-1.83301 -6.66602 -2.5 -9.99902c-2 -7.33301 -3.66699 -14.333 -5 -21s-2 -11.667 -2 -15v-1.5v-1.5c2.66699 -6 7.83398 -10.833 15.501 -14.5s16.167 -7.16699 25.5 -10.5c1.33301 0 2.66602 -0.166992 3.99902 -0.5
s2.33301 -0.833008 3 -1.5c3.33301 -1.33301 6.66602 -2.5 9.99902 -3.5s6.33301 -2.16699 9 -3.5l27 -10h-273l22 8c4.66699 1.33301 9.83398 3 15.501 5l16.5 6c11.333 4 22 8.66699 32 14s16.667 11 20 17c2 3.33301 3.66699 6.66602 5 9.99902
s2.66602 6.33301 3.99902 9c1.33301 2 2.33301 4 3 6s1.33398 4.33301 2.00098 7c1.33301 2.66699 2.5 5.33398 3.5 8.00098l3.5 9c8.66699 18.667 17.167 38.167 25.5 58.5l25.5 62.5l14 32.5l14 33.5l94 241.5c28 75 45.333 122.833 52 143.5l5.5 18
c1.66699 5.33301 3.16699 10.666 4.5 15.999c0 2 0.333008 3.83301 1 5.5s1 3.5 1 5.5c1.33301 3.33301 2.5 7 3.5 11s1.83301 8 2.5 12l67 1v0zM511.002 348.999l-101 262l-102 -262h203v0zM514.002 788.999l-162 174l72 47l90 -221v0z" />
    </font>
</defs>
</svg>
